{
.appVersion = "1264";
copyright = "Copyright 2019 The Tomorrow Project Authors (https://github.com/MonicaRizzolli/Tomorrow)";
customParameters = (
{
name = panose;
value = (
0,
0,
6,
0,
0,
0,
0,
0,
0,
0
);
},
{
name = unicodeRanges;
value = (
0,
1,
2,
29
);
},
{
name = codePageRanges;
value = (
1252,
1250,
1257
);
},
{
name = blueScale;
value = 0.037;
},
{
name = glyphOrder;
value = (
.notdef,
CR,
space,
A,
Aacute,
Abreve,
uni1EAE,
uni1EB6,
uni1EB0,
uni1EB2,
uni1EB4,
Acircumflex,
uni1EA4,
uni1EAC,
uni1EA6,
uni1EA8,
uni1EAA,
uni0200,
Adieresis,
uni1EA0,
Agrave,
uni1EA2,
uni0202,
Amacron,
Aogonek,
Aring,
Aringacute,
Atilde,
AE,
AEacute,
B,
C,
Cacute,
Ccaron,
Ccedilla,
Ccircumflex,
Cdotaccent,
D,
uni01C4,
Eth,
Dcaron,
Dcroat,
uni01C5,
E,
Eacute,
Ebreve,
Ecaron,
Ecircumflex,
uni1EBE,
uni1EC6,
uni1EC0,
uni1EC2,
uni1EC4,
uni0204,
Edieresis,
Edotaccent,
uni1EB8,
Egrave,
uni1EBA,
uni0206,
Emacron,
Eogonek,
uni1EBC,
F,
G,
Gbreve,
Gcaron,
Gcircumflex,
uni0122,
Gdotaccent,
H,
Hbar,
Hcircumflex,
I,
Iacute,
Ibreve,
Icircumflex,
uni0208,
Idieresis,
Idotaccent,
uni1ECA,
Igrave,
uni1EC8,
uni020A,
Imacron,
Iogonek,
Itilde,
J,
Jcircumflex,
K,
uni0136,
L,
uni01C7,
Lacute,
Lcaron,
uni013B,
Ldot,
uni01C8,
Lslash,
M,
N,
uni01CA,
Nacute,
Ncaron,
uni0145,
Eng,
uni01CB,
Ntilde,
O,
Oacute,
Obreve,
Ocircumflex,
uni1ED0,
uni1ED8,
uni1ED2,
uni1ED4,
uni1ED6,
uni020C,
Odieresis,
uni022A,
uni0230,
uni1ECC,
Ograve,
uni1ECE,
Ohorn,
uni1EDA,
uni1EE2,
uni1EDC,
uni1EDE,
uni1EE0,
Ohungarumlaut,
uni020E,
Omacron,
uni01EA,
Oslash,
Oslashacute,
Otilde,
uni022C,
OE,
P,
Thorn,
Q,
R,
Racute,
Rcaron,
uni0156,
uni0210,
uni0212,
S,
Sacute,
Scaron,
Scedilla,
Scircumflex,
uni0218,
uni1E9E,
uni018F,
T,
Tbar,
Tcaron,
uni0162,
uni021A,
U,
Uacute,
Ubreve,
Ucircumflex,
uni0214,
Udieresis,
uni1EE4,
Ugrave,
uni1EE6,
Uhorn,
uni1EE8,
uni1EF0,
uni1EEA,
uni1EEC,
uni1EEE,
Uhungarumlaut,
uni0216,
Umacron,
Uogonek,
Uring,
Utilde,
V,
W,
Wacute,
Wcircumflex,
Wdieresis,
Wgrave,
X,
Y,
Yacute,
Ycircumflex,
Ydieresis,
uni1EF4,

glyphs = (
{
glyphname = .notdef;
lastChange = "2019-09-03 16:30:53 +0000";
layers = (
{
hints = (
{
horizontal = 1;
place = "{154, 93.5}";
type = Stem;
},
{
horizontal = 1;
place = "{350.87, 171.63}";
type = Stem;
},
{
place = "{187.25, 99}";
type = Stem;
},
{
place = "{412.75, 99}";
type = Stem;
},
{
place = "{75, 110}";
type = Stem;
},
{
place = "{515, 110}";
type = Stem;
}
);
layerId = "45368931-0D76-4CB6-835F-B3D628A2F0B6";
paths = (
{
closed = 1;
nodes = (
"185 62.75 LINE",
"185 107.75 LINE",
"229 154 LINE",
"472.12 154 LINE",
"515 108.87 LINE",
"515 62.75 LINE",
"625 62.75 LINE",
"625 147.37 LINE",
"524.87 247.5 LINE",
"175.12 247.5 LINE",
"75 147.37 LINE",
"75 62.75 LINE"
);
},
{
closed = 1;
nodes = (
"286.25 350.87 LINE",
"286.25 522.5 LINE",
"187.25 522.5 LINE",
"187.25 350.87 LINE"
);
},
{
closed = 1;
nodes = (
"511.75 350.87 LINE",
"511.75 522.5 LINE",
"412.75 522.5 LINE",
"412.75 350.87 LINE"
);
}
);
width = 700;
}
);
note = .notdef;
},
{
glyphname = A;
lastChange = "2019-09-03 16:30:53 +0000";
layers = (
{
hints = (
{
horizontal = 1;
place = "{179.25, 110}";
type = Stem;
},
{
horizontal = 1;
place = "{618.25, 118.75}";
type = Stem;
},
{
place = "{10, 666.5}";
type = Stem;
}
);
layerId = "45368931-0D76-4CB6-835F-B3D628A2F0B6";
paths = (
{
closed = 1;
nodes = (
"143 0 LINE",
"197.54 179.25 LINE",
"488.95 179.25 LINE",
"543.5 0 LINE",
"676.5 0 LINE",
"436.75 737 LINE",
"249.75 737 LINE",
"10 0 LINE"
);
},
{
closed = 1;
nodes = (
"331.12 618.25 LINE",
"355.37 618.25 LINE",
"455.48 289.25 LINE",
"231.01 289.25 LINE"
);
}
);
width = 687;
}
);
leftKerningGroup = A;
note = A;
rightKerningGroup = A;
unicode = 0041;
},
{
glyphname = Aacute;
lastChange = "2019-09-03 16:30:53 +0000";
layers = (
{
hints = (
{
horizontal = 1;
place = "{179.25, 110}";
type = Stem;
},
{
horizontal = 1;
place = "{618.25, 118.75}";
type = Stem;
},
{
horizontal = 1;
place = "{794.25, 154}";
type = Stem;
},
{
place = "{10, 666.5}";
type = Stem;
}
);
layerId = "45368931-0D76-4CB6-835F-B3D628A2F0B6";
paths = (
{
closed = 1;
nodes = (
"143 0 LINE",
"197.54 179.25 LINE",
"488.95 179.25 LINE",
"543.5 0 LINE",
"676.5 0 LINE",
"436.75 737 LINE",
"249.75 737 LINE",
"10 0 LINE"
);
},
{
closed = 1;
nodes = (
"331.12 618.25 LINE",
"355.37 618.25 LINE",
"455.48 289.25 LINE",
"231.01 289.25 LINE"
);
},
{
closed = 1;
nodes = (
"392.62 794.25 LINE",
"531.25 948.25 LINE",
"392.62 948.25 LINE",
"291.5 794.25 LINE"
);
}
);
width = 687;
}
);
leftKerningGroup = A;
note = Aacute;
rightKerningGroup = A;
unicode = 00C1;
},
{
glyphname = Abreve;
lastChange = "2019-09-03 16:30:53 +0000";
layers = (
{
hints = (
{
horizontal = 1;
place = "{179.25, 110}";
type = Stem;
},
{
horizontal = 1;
place = "{618.25, 118.75}";
type = Stem;
},
{
horizontal = 1;
place = "{794.25, 78}";
type = Stem;
},
{
place = "{191.37, 80.38}";
type = Stem;
},
{
place = "{412.5, 80.37}";
type = Stem;
}
);
layerId = "45368931-0D76-4CB6-835F-B3D628A2F0B6";
paths = (
{
closed = 1;
nodes = (
"143 0 LINE",
"197.54 179.25 LINE",
"488.95 179.25 LINE",
"543.5 0 LINE",
"676.5 0 LINE",
"436.75 737 LINE",
"249.75 737 LINE",
"10 0 LINE"
);
},
{
closed = 1;
nodes = (
"331.12 618.25 LINE",
"355.37 618.25 LINE",
"455.48 289.25 LINE",
"231.01 289.25 LINE"
);
},
{
closed = 1;
nodes = (
"423.5 794.25 LINE",
"492.87 863.5 LINE",
"492.87 937.25 LINE",
"412.5 937.25 LINE",
"412.5 893.25 LINE",
"391.62 872.25 LINE",
"292.62 872.25 LINE",
"271.75 893.25 LINE",
"271.75 937.25 LINE",
"191.37 937.25 LINE",
"191.37 863.5 LINE",
"260.75 794.25 LINE"
);
}
);
width = 687;
}
);
leftKerningGroup = A;
note = Abreve;
rightKerningGroup = A;
unicode = 0102;
},
{
glyphname = uni1EAE;
lastChange = "2019-09-03 16:30:53 +0000";
layers = (
{
hints = (
{
horizontal = 1;
place = "{179.25, 110}";
type = Stem;
},
{
horizontal = 1;
place = "{618.25, 118.75}";
type = Stem;
},
{
horizontal = 1;
place = "{794.25, 78}";
type = Stem;
},
{
horizontal = 1;
place = "{967.62, 154}";
type = Stem;
},
{
place = "{191.37, 80.38}";
type = Stem;
},
{
place = "{412.5, 80.37}";
type = Stem;
}
);
layerId = "45368931-0D76-4CB6-835F-B3D628A2F0B6";
paths = (
{
closed = 1;
nodes = (
"143 0 LINE",
"197.54 179.25 LINE",
"488.95 179.25 LINE",
"543.5 0 LINE",
"676.5 0 LINE",
"436.75 737 LINE",
"249.75 737 LINE",
"10 0 LINE"
);
},
{
closed = 1;
nodes = (
"331.12 618.25 LINE",
"355.37 618.25 LINE",
"455.48 289.25 LINE",
"231.01 289.25 LINE"
);
},
{
closed = 1;
nodes = (
"423.5 794.25 LINE",
"492.87 863.5 LINE",
"492.87 937.25 LINE",
"412.5 937.25 LINE",
"412.5 893.25 LINE",
"391.62 872.25 LINE",
"292.62 872.25 LINE",
"271.75 893.25 LINE",
"271.75 937.25 LINE",
"191.37 937.25 LINE",
"191.37 863.5 LINE",
"260.75 794.25 LINE"
);
},
{
closed = 1;
nodes = (
"387.62 967.62 LINE",
"526.25 1121.62 LINE",
"387.62 1121.62 LINE",
"286.5 967.62 LINE"
);
}
);
width = 687;
}
);
leftKerningGroup = A;
note = uni1EAE;
rightKerningGroup = A;
unicode = 1EAE;
},
{
glyphname = uni1EB6;
lastChange = "2019-09-03 16:30:53 +0000";
layers = (
{
hints = (
{
horizontal = 1;
place = "{-182.63, 125.38}";
type = Stem;
},
{
horizontal = 1;
place = "{179.25, 110}";
type = Stem;
},
{
horizontal = 1;
place = "{618.25, 118.75}";
type = Stem;
},
{
horizontal = 1;
place = "{794.25, 78}";
type = Stem;
},
{
place = "{191.37, 80.38}";
type = Stem;
},
{
place = "{281.62, 121}";
type = Stem;
},
{
place = "{412.5, 80.37}";
type = Stem;
}
);
layerId = "45368931-0D76-4CB6-835F-B3D628A2F0B6";
paths = (
{
closed = 1;
nodes = (
"143 0 LINE",
"197.54 179.25 LINE",
"488.95 179.25 LINE",
"543.5 0 LINE",
"676.5 0 LINE",
"436.75 737 LINE",
"249.75 737 LINE",
"10 0 LINE"
);
},
{
closed = 1;
nodes = (
"402.62 -182.63 LINE",
"402.62 -57.25 LINE",
"281.62 -57.25 LINE",
"281.62 -182.63 LINE"
);
},
{
closed = 1;
nodes = (
"331.12 618.25 LINE",
"355.37 618.25 LINE",
"455.48 289.25 LINE",
"231.01 289.25 LINE"
);
},
{
closed = 1;
nodes = (
"423.5 794.25 LINE",
"492.87 863.5 LINE",
"492.87 937.25 LINE",
"412.5 937.25 LINE",
"412.5 893.25 LINE",
"391.62 872.25 LINE",
"292.62 872.25 LINE",
"271.75 893.25 LINE",
"271.75 937.25 LINE",
"191.37 937.25 LINE",
"191.37 863.5 LINE",
"260.75 794.25 LINE"
);
}
);
width = 687;
}
);
leftKerningGroup = A;
note = uni1EB6;
rightKerningGroup = A;
unicode = 1EB6;
},
{
glyphname = uni1EB0;
lastChange = "2019-09-03 16:30:53 +0000";
layers = (
{
hints = (
{
horizontal = 1;
place = "{179.25, 110}";
type = Stem;
},
{
horizontal = 1;
place = "{618.25, 118.75}";
type = Stem;
},
{
horizontal = 1;
place = "{794.25, 78}";
type = Stem;
},
{
horizontal = 1;
place = "{967.62, 154}";
type = Stem;
},
{
place = "{191.37, 80.38}";
type = Stem;
},
{
place = "{412.5, 80.37}";
type = Stem;
}
);
layerId = "45368931-0D76-4CB6-835F-B3D628A2F0B6";
paths = (
{
closed = 1;
nodes = (
"143 0 LINE",
"197.54 179.25 LINE",
"488.95 179.25 LINE",
"543.5 0 LINE",
"676.5 0 LINE",
"436.75 737 LINE",
"249.75 737 LINE",
"10 0 LINE"
);
},
{
closed = 1;
nodes = (
"331.12 618.25 LINE",
"355.37 618.25 LINE",
"455.48 289.25 LINE",
"231.01 289.25 LINE"
);
},
{
closed = 1;
nodes = (
"423.5 794.25 LINE",
"492.87 863.5 LINE",
"492.87 937.25 LINE",
"412.5 937.25 LINE",
"412.5 893.25 LINE",
"391.62 872.25 LINE",
"292.62 872.25 LINE",
"271.75 893.25 LINE",
"271.75 937.25 LINE",
"191.37 937.25 LINE",
"191.37 863.5 LINE",
"260.75 794.25 LINE"
);
},
{
closed = 1;
nodes = (
"393.5 967.62 LINE",
"292.37 1121.62 LINE",
"153.75 1121.62 LINE",
"292.37 967.62 LINE"
);
}
);
width = 687;
}
);
leftKerningGroup = A;
note = uni1EB0;
rightKerningGroup = A;
unicode = 1EB0;
},
{
glyphname = uni1EB2;
lastChange = "2019-09-03 16:30:53 +0000";
layers = (
{
hints = (
{
horizontal = 1;
place = "{179.25, 110}";
type = Stem;
},
{
horizontal = 1;
place = "{618.25, 118.75}";
type = Stem;
},
{
horizontal = 1;
place = "{794.25, 78}";
type = Stem;
},
{
horizontal = 1;
place = "{967.62, 69.13}";
type = Stem;
},
{
horizontal = 1;
place = "{1112.37, 71}";
type = Stem;
},
{
place = "{191.37, 80.38}";
type = Stem;
},
{
place = "{364, 87.37}";
type = Stem;
},
{
place = "{299.25, 80.37}";
type = Stem;
},
{
place = "{412.5, 80.37}";
type = Stem;
}
);
layerId = "45368931-0D76-4CB6-835F-B3D628A2F0B6";
paths = (
{
closed = 1;
nodes = (
"143 0 LINE",
"197.54 179.25 LINE",
"488.95 179.25 LINE",
"543.5 0 LINE",
"676.5 0 LINE",
"436.75 737 LINE",
"249.75 737 LINE",
"10 0 LINE"
);
},
{
closed = 1;
nodes = (
"331.12 618.25 LINE",
"355.37 618.25 LINE",
"455.48 289.25 LINE",
"231.01 289.25 LINE"
);
},
{
closed = 1;
nodes = (
"423.5 794.25 LINE",
"492.87 863.5 LINE",
"492.87 937.25 LINE",
"412.5 937.25 LINE",
"412.5 893.25 LINE",
"391.62 872.25 LINE",
"292.62 872.25 LINE",
"271.75 893.25 LINE",
"271.75 937.25 LINE",
"191.37 937.25 LINE",
"191.37 863.5 LINE",
"260.75 794.25 LINE"
);
},
{
closed = 1;
nodes = (
"379.62 967.62 LINE",
"379.62 1003.75 LINE",
"451.37 1058.12 LINE",
"451.37 1133.5 LINE",
"401.62 1183.37 LINE",
"285.12 1183.37 LINE",
"234.12 1132.12 LINE",
"289.12 1076.75 LINE",
"325.25 1112.37 LINE",
"359.87 1112.37 LINE",
"364 1108.25 LINE",
"364 1088.75 LINE",
"299.25 1036.75 LINE",
"299.25 967.62 LINE"
);
}
);
width = 687;
}
);
leftKerningGroup = A;
note = uni1EB2;
rightKerningGroup = A;
unicode = 1EB2;
},
{
glyphname = uni1EB4;
lastChange = "2019-09-03 16:30:53 +0000";
layers = (
{
hints = (
{
horizontal = 1;
place = "{179.25, 110}";
type = Stem;
},
{
horizontal = 1;
place = "{618.25, 118.75}";
type = Stem;
},
{
horizontal = 1;
place = "{794.25, 78}";
type = Stem;
},
{
horizontal = 1;
place = "{1033.5, 75.87}";
type = Stem;
},
{
place = "{191.37, 80.38}";
type = Stem;
},
{
place = "{412.5, 80.37}";
type = Stem;
},
{
horizontal = 1;
place = "{967.5, 75.87}";
type = Stem;
},
{
place = "{464.75, 69.87}";
type = Stem;
},
{
place = "{149.62, 69.88}";
type = Stem;
}
);
layerId = "45368931-0D76-4CB6-835F-B3D628A2F0B6";
paths = (
{
closed = 1;
nodes = (
"143 0 LINE",
"197.54 179.25 LINE",
"488.95 179.25 LINE",
"543.5 0 LINE",
"676.5 0 LINE",
"436.75 737 LINE",
"249.75 737 LINE",
"10 0 LINE"
);
},
{
closed = 1;
nodes = (
"331.12 618.25 LINE",
"355.37 618.25 LINE",
"455.48 289.25 LINE",
"231.01 289.25 LINE"
);
},
{
closed = 1;
nodes = (
"423.5 794.25 LINE",
"492.87 863.5 LINE",
"492.87 937.25 LINE",
"412.5 937.25 LINE",
"412.5 893.25 LINE",
"391.62 872.25 LINE",
"292.62 872.25 LINE",
"271.75 893.25 LINE",
"271.75 937.25 LINE",
"191.37 937.25 LINE",
"191.37 863.5 LINE",
"260.75 794.25 LINE"
);
},
{
closed = 1;
nodes = (
"468.12 967.5 LINE",
"534.12 1034.5 LINE",
"535.12 1106 LINE",
"464.75 1106 LINE",
"464.75 1079.62 LINE",
"429.62 1043.37 LINE",
"398.75 1043.37 LINE",
"329.5 1109.37 LINE",
"216.12 1109.37 LINE",
"150.12 1042.25 LINE",
"149.12 970.75 LINE",
"219.5 970.75 LINE",
"219.5 997.12 LINE",
"254.62 1033.5 LINE",
"285.5 1033.5 LINE",
"354.75 967.5 LINE"
);
}
);
width = 687;
}
);
leftKerningGroup = A;
note = uni1EB4;
rightKerningGroup = A;
unicode = 1EB4;
},
{
glyphname = Acircumflex;
lastChange = "2019-09-03 16:30:53 +0000";
layers = (
{
hints = (
{
horizontal = 1;
place = "{179.25, 110}";
type = Stem;
},
{
horizontal = 1;
place = "{618.25, 118.75}";
type = Stem;
},
{
horizontal = 1;
place = "{794.25, 143}";
type = Stem;
},
{
place = "{10, 666.5}";
type = Stem;
}
);
layerId = "45368931-0D76-4CB6-835F-B3D628A2F0B6";
paths = (
{
closed = 1;
nodes = (
"143 0 LINE",
"197.54 179.25 LINE",
"488.95 179.25 LINE",
"543.5 0 LINE",
"676.5 0 LINE",
"436.75 737 LINE",
"249.75 737 LINE",
"10 0 LINE"
);
},
{
closed = 1;
nodes = (
"331.12 618.25 LINE",
"355.37 618.25 LINE",
"455.48 289.25 LINE",
"231.01 289.25 LINE"
);
},
{
closed = 1;
nodes = (
"275 794.25 LINE",
"342.12 862.37 LINE",
"409.25 794.25 LINE",
"510.37 794.25 LINE",
"405.87 937.25 LINE",
"278.37 937.25 LINE",
"173.87 794.25 LINE"
);
}
);
width = 687;
}
);
leftKerningGroup = A;
note = Acircumflex;
rightKerningGroup = A;
unicode = 00C2;
},
{
glyphname = uni1EA4;
lastChange = "2019-09-03 16:30:53 +0000";
layers = (
{
hints = (
{
horizontal = 1;
place = "{179.25, 110}";
type = Stem;
},
{
horizontal = 1;
place = "{618.25, 118.75}";
type = Stem;
},
{
horizontal = 1;
place = "{876.75, 154}";
type = Stem;
},
{
place = "{10, 723.75}";
type = Stem;
},
{
horizontal = 1;
place = "{794.25, 143}";
type = Stem;
}
);
layerId = "45368931-0D76-4CB6-835F-B3D628A2F0B6";
paths = (
{
closed = 1;
nodes = (
"143 0 LINE",
"197.54 179.25 LINE",
"488.95 179.25 LINE",
"543.5 0 LINE",
"676.5 0 LINE",
"436.75 737 LINE",
"249.75 737 LINE",
"10 0 LINE"
);
},
{
closed = 1;
nodes = (
"331.12 618.25 LINE",
"355.37 618.25 LINE",
"455.48 289.25 LINE",
"231.01 289.25 LINE"
);
},
{
closed = 1;
nodes = (
"275 794.25 LINE",
"342.12 862.37 LINE",
"409.25 794.25 LINE",
"510.37 794.25 LINE",
"405.87 937.25 LINE",
"278.37 937.25 LINE",
"173.87 794.25 LINE"
);
},
{
closed = 1;
nodes = (
"595.12 876.75 LINE",
"733.75 1030.75 LINE",
"595.12 1030.75 LINE",
"494 876.75 LINE"
);
}
);
width = 687;
}
);
leftKerningGroup = A;
note = uni1EA4;
rightKerningGroup = A;
unicode = 1EA4;
},
{
glyphname = uni1EAC;
lastChange = "2019-09-03 16:30:53 +0000";
layers = (
{
hints = (
{
horizontal = 1;
place = "{-182.63, 125.38}";
type = Stem;
},
{
horizontal = 1;
place = "{179.25, 110}";
type = Stem;
},
{
horizontal = 1;
place = "{618.25, 118.75}";
type = Stem;
},
{
horizontal = 1;
place = "{794.25, 143}";
type = Stem;
},
{
place = "{281.62, 121}";
type = Stem;
}
);
layerId = "45368931-0D76-4CB6-835F-B3D628A2F0B6";
paths = (
{
closed = 1;
nodes = (
"143 0 LINE",
"197.54 179.25 LINE",
"488.95 179.25 LINE",
"543.5 0 LINE",
"676.5 0 LINE",
"436.75 737 LINE",
"249.75 737 LINE",
"10 0 LINE"
);
},
{
closed = 1;
nodes = (
"402.62 -182.63 LINE",
"402.62 -57.25 LINE",
"281.62 -57.25 LINE",
"281.62 -182.63 LINE"
);
},
{
closed = 1;
nodes = (
"331.12 618.25 LINE",
"355.37 618.25 LINE",
"455.48 289.25 LINE",
"231.01 289.25 LINE"
);
},
{
closed = 1;
nodes = (
"275 794.25 LINE",
"342.12 862.37 LINE",
"409.25 794.25 LINE",
"510.37 794.25 LINE",
"405.87 937.25 LINE",
"278.37 937.25 LINE",
"173.87 794.25 LINE"
);
}
);
width = 687;
}
);
leftKerningGroup = A;
note = uni1EAC;
rightKerningGroup = A;
unicode = 1EAC;
},
{
glyphname = uni1EA6;
lastChange = "2019-10-08 20:31:12 +0000";
layers = (
{
hints = (
{
horizontal = 1;
place = "{179.25, 110}";
type = Stem;
},
{
horizontal = 1;
place = "{618.25, 118.75}";
type = Stem;
},
{
horizontal = 1;
place = "{876.75, 154}";
type = Stem;
},
{
place = "{-49.5, 726}";
type = Stem;
},
{
horizontal = 1;
place = "{794.25, 143}";
type = Stem;
}
);
layerId = "45368931-0D76-4CB6-835F-B3D628A2F0B6";
paths = (
{
closed = 1;
nodes = (
"143 0 LINE",
"197.54 179.25 LINE",
"488.95 179.25 LINE",
"543.5 0 LINE",
"676.5 0 LINE",
"436.75 737 LINE",
"249.75 737 LINE",
"10 0 LINE"
);
},
{
closed = 1;
nodes = (
"331.12 618.25 LINE",
"355.37 618.25 LINE",
"455.48 289.25 LINE",
"231.01 289.25 LINE"
);
},
{
closed = 1;
nodes = (
"190.25 876.75 LINE",
"89.12 1030.75 LINE",
"-49.5 1030.75 LINE",
"89.12 876.75 LINE"
);
},
{
closed = 1;
nodes = (
"275 794.25 LINE",
"342.12 862.37 LINE",
"409.25 794.25 LINE",
"510.37 794.25 LINE",
"405.87 937.25 LINE",
"278.37 937.25 LINE",
"173.87 794.25 LINE"
);
}
);
width = 687;
}
);
leftKerningGroup = A;
note = uni1EA6;
rightKerningGroup = A;
unicode = 1EA6;
},
{
glyphname = uni1EA8;
lastChange = "2019-09-03 16:30:53 +0000";
layers = (
{
hints = (
{
horizontal = 1;
place = "{179.25, 110}";
type = Stem;
},
{
horizontal = 1;
place = "{618.25, 118.75}";
type = Stem;
},
{
horizontal = 1;
place = "{794.25, 143}";
type = Stem;
},
{
horizontal = 1;
place = "{1021.5, 71}";
type = Stem;
},
{
place = "{538.12, 87.38}";
type = Stem;
},
{
place = "{473.37, 80.38}";
type = Stem;
}
);
layerId = "45368931-0D76-4CB6-835F-B3D628A2F0B6";
paths = (
{
closed = 1;
nodes = (
"143 0 LINE",
"197.54 179.25 LINE",
"488.95 179.25 LINE",
"543.5 0 LINE",
"676.5 0 LINE",
"436.75 737 LINE",
"249.75 737 LINE",
"10 0 LINE"
);
},
{
closed = 1;
nodes = (
"331.12 618.25 LINE",
"355.37 618.25 LINE",
"455.48 289.25 LINE",
"231.01 289.25 LINE"
);
},
{
closed = 1;
nodes = (
"275 794.25 LINE",
"342.12 862.37 LINE",
"409.25 794.25 LINE",
"510.37 794.25 LINE",
"405.87 937.25 LINE",
"278.37 937.25 LINE",
"173.87 794.25 LINE"
);
},
{
closed = 1;
nodes = (
"553.75 876.75 LINE",
"553.75 912.87 LINE",
"625.5 967.25 LINE",
"625.5 1042.62 LINE",
"575.75 1092.5 LINE",
"459.25 1092.5 LINE",
"408.25 1041.25 LINE",
"463.25 985.87 LINE",
"499.37 1021.5 LINE",
"534 1021.5 LINE",
"538.12 1017.37 LINE",
"538.12 997.87 LINE",
"473.37 945.87 LINE",
"473.37 876.75 LINE"
);
}
);
width = 687;
}
);
leftKerningGroup = A;
note = uni1EA8;
rightKerningGroup = A;
unicode = 1EA8;
},
{
glyphname = uni1EAA;
lastChange = "2019-09-03 16:30:53 +0000";
layers = (
{
hints = (
{
horizontal = 1;
place = "{179.25, 110}";
type = Stem;
},
{
horizontal = 1;
place = "{618.25, 118.75}";
type = Stem;
},
{
horizontal = 1;
place = "{794.25, 143}";
type = Stem;
},
{
horizontal = 1;
place = "{1032.87, 75.88}";
type = Stem;
},
{
place = "{149.62, 69.88}";
type = Stem;
},
{
place = "{464.75, 69.87}";
type = Stem;
},
{
horizontal = 1;
place = "{966.87, 75.88}";
type = Stem;
}
);
layerId = "45368931-0D76-4CB6-835F-B3D628A2F0B6";
paths = (
{
closed = 1;
nodes = (
"143 0 LINE",
"197.54 179.25 LINE",
"488.95 179.25 LINE",
"543.5 0 LINE",
"676.5 0 LINE",
"436.75 737 LINE",
"249.75 737 LINE",
"10 0 LINE"
);
},
{
closed = 1;
nodes = (
"331.12 618.25 LINE",
"355.37 618.25 LINE",
"455.48 289.25 LINE",
"231.01 289.25 LINE"
);
},
{
closed = 1;
nodes = (
"275 794.25 LINE",
"342.12 862.37 LINE",
"409.25 794.25 LINE",
"510.37 794.25 LINE",
"405.87 937.25 LINE",
"278.37 937.25 LINE",
"173.87 794.25 LINE"
);
},
{
closed = 1;
nodes = (
"468.12 966.87 LINE",
"534.12 1033.87 LINE",
"535.12 1105.37 LINE",
"464.75 1105.37 LINE",
"464.75 1079 LINE",
"429.62 1042.75 LINE",
"398.75 1042.75 LINE",
"329.5 1108.75 LINE",
"216.12 1108.75 LINE",
"150.12 1041.62 LINE",
"149.12 970.12 LINE",
"219.5 970.12 LINE",
"219.5 996.5 LINE",
"254.62 1032.87 LINE",
"285.5 1032.87 LINE",
"354.75 966.87 LINE"
);
}
);
width = 687;
}
);
leftKerningGroup = A;
note = uni1EAA;
rightKerningGroup = A;
unicode = 1EAA;
},
{
glyphname = uni0200;
lastChange = "2019-10-08 20:31:35 +0000";
layers = (
{
hints = (
{
horizontal = 1;
place = "{179.25, 110}";
type = Stem;
},
{
horizontal = 1;
place = "{618.25, 118.75}";
type = Stem;
},
{
horizontal = 1;
place = "{794.25, 154}";
type = Stem;
},
{
place = "{10, 666.5}";
type = Stem;
}
);
layerId = "45368931-0D76-4CB6-835F-B3D628A2F0B6";
paths = (
{
closed = 1;
nodes = (
"143 0 LINE",
"197.54 179.25 LINE",
"488.95 179.25 LINE",
"543.5 0 LINE",
"676.5 0 LINE",
"436.75 737 LINE",
"249.75 737 LINE",
"10 0 LINE"
);
},
{
closed = 1;
nodes = (
"331.12 618.25 LINE",
"355.37 618.25 LINE",
"455.48 289.25 LINE",
"231.01 289.25 LINE"
);
},
{
closed = 1;
nodes = (
"299 794 LINE",
"198 948 LINE",
"59 948 LINE",
"198 794 LINE"
);
},
{
closed = 1;
nodes = (
"504 794 LINE",
"403 948 LINE",
"264 948 LINE",
"403 794 LINE"
);
}
);
width = 687;
}
);
leftKerningGroup = A;
note = uni0200;
rightKerningGroup = A;
unicode = 0200;
},
{
glyphname = Adieresis;
lastChange = "2019-09-03 16:30:53 +0000";
layers = (
{
hints = (
{
horizontal = 1;
place = "{179.25, 110}";
type = Stem;
},
{
horizontal = 1;
place = "{618.25, 118.75}";
type = Stem;
},
{
horizontal = 1;
place = "{794.25, 125.5}";
type = Stem;
},
{
place = "{149.12, 121}";
type = Stem;
},
{
place = "{414.12, 121}";
type = Stem;
}
);
layerId = "45368931-0D76-4CB6-835F-B3D628A2F0B6";
paths = (
{
closed = 1;
nodes = (
"143 0 LINE",
"197.54 179.25 LINE",
"488.95 179.25 LINE",
"543.5 0 LINE",
"676.5 0 LINE",
"436.75 737 LINE",
"249.75 737 LINE",
"10 0 LINE"
);
},
{
closed = 1;
nodes = (
"331.12 618.25 LINE",
"355.37 618.25 LINE",
"455.48 289.25 LINE",
"231.01 289.25 LINE"
);
},
{
closed = 1;
nodes = (
"270.12 794.25 LINE",
"270.12 919.75 LINE",
"149.12 919.75 LINE",
"149.12 794.25 LINE"
);
},
{
closed = 1;
nodes = (
"535.12 794.25 LINE",
"535.12 919.75 LINE",
"414.12 919.75 LINE",
"414.12 794.25 LINE"
);
}
);
width = 687;
}
);
leftKerningGroup = A;
note = Adieresis;
rightKerningGroup = A;
unicode = 00C4;
},
{
glyphname = uni1EA0;
lastChange = "2019-09-03 16:30:53 +0000";
layers = (
{
hints = (
{
horizontal = 1;
place = "{-182.63, 125.38}";
type = Stem;
},
{
horizontal = 1;
place = "{179.25, 110}";
type = Stem;
},
{
horizontal = 1;
place = "{618.25, 118.75}";
type = Stem;
},
{
place = "{281.62, 121}";
type = Stem;
}
);
layerId = "45368931-0D76-4CB6-835F-B3D628A2F0B6";
paths = (
{
closed = 1;
nodes = (
"143 0 LINE",
"197.54 179.25 LINE",
"488.95 179.25 LINE",
"543.5 0 LINE",
"676.5 0 LINE",
"436.75 737 LINE",
"249.75 737 LINE",
"10 0 LINE"
);
},
{
closed = 1;
nodes = (
"402.62 -182.63 LINE",
"402.62 -57.25 LINE",
"281.62 -57.25 LINE",
"281.62 -182.63 LINE"
);
},
{
closed = 1;
nodes = (
"331.12 618.25 LINE",
"355.37 618.25 LINE",
"455.48 289.25 LINE",
"231.01 289.25 LINE"
);
}
);
width = 687;
}
);
leftKerningGroup = A;
note = uni1EA0;
rightKerningGroup = A;
unicode = 1EA0;
},
{
glyphname = Agrave;
lastChange = "2019-09-03 16:30:53 +0000";
layers = (
{
hints = (
{
horizontal = 1;
place = "{179.25, 110}";
type = Stem;
},
{
horizontal = 1;
place = "{618.25, 118.75}";
type = Stem;
},
{
horizontal = 1;
place = "{794.25, 154}";
type = Stem;
},
{
place = "{10, 666.5}";
type = Stem;
}
);
layerId = "45368931-0D76-4CB6-835F-B3D628A2F0B6";
paths = (
{
closed = 1;
nodes = (
"143 0 LINE",
"197.54 179.25 LINE",
"488.95 179.25 LINE",
"543.5 0 LINE",
"676.5 0 LINE",
"436.75 737 LINE",
"249.75 737 LINE",
"10 0 LINE"
);
},
{
closed = 1;
nodes = (
"331.12 618.25 LINE",
"355.37 618.25 LINE",
"455.48 289.25 LINE",
"231.01 289.25 LINE"
);
},
{
closed = 1;
nodes = (
"388.12 794.25 LINE",
"287 948.25 LINE",
"148.37 948.25 LINE",
"287 794.25 LINE"
);
}
);
width = 687;
}
);
leftKerningGroup = A;
note = Agrave;
rightKerningGroup = A;
unicode = 00C0;
},
{
glyphname = uni1EA2;
lastChange = "2019-09-03 16:30:53 +0000";
layers = (
{
hints = (
{
horizontal = 1;
place = "{179.25, 110}";
type = Stem;
},
{
horizontal = 1;
place = "{618.25, 118.75}";
type = Stem;
},
{
horizontal = 1;
place = "{794.25, 69.12}";
type = Stem;
},
{
horizontal = 1;
place = "{939, 71}";
type = Stem;
},
{
place = "{366.62, 87.38}";
type = Stem;
},
{
place = "{301.87, 80.38}";
type = Stem;
}
);
layerId = "45368931-0D76-4CB6-835F-B3D628A2F0B6";
paths = (
{
closed = 1;
nodes = (
"143 0 LINE",
"197.54 179.25 LINE",
"488.95 179.25 LINE",
"543.5 0 LINE",
"676.5 0 LINE",
"436.75 737 LINE",
"249.75 737 LINE",
"10 0 LINE"
);
},
{
closed = 1;
nodes = (
"331.12 618.25 LINE",
"355.37 618.25 LINE",
"455.48 289.25 LINE",
"231.01 289.25 LINE"
);
},
{
closed = 1;
nodes = (
"382.25 794.25 LINE",
"382.25 830.37 LINE",
"454 884.75 LINE",
"454 960.12 LINE",
"404.25 1010 LINE",
"287.75 1010 LINE",
"236.75 958.75 LINE",
"291.75 903.37 LINE",
"327.87 939 LINE",
"362.5 939 LINE",
"366.62 934.87 LINE",
"366.62 915.37 LINE",
"301.87 863.37 LINE",
"301.87 794.25 LINE"
);
}
);
width = 687;
}
);
leftKerningGroup = A;
note = uni1EA2;
rightKerningGroup = A;
unicode = 1EA2;
},
{
glyphname = uni0202;
lastChange = "2019-09-03 16:30:53 +0000";
layers = (
{
hints = (
{
horizontal = 1;
place = "{179.25, 110}";
type = Stem;
},
{
horizontal = 1;
place = "{618.25, 118.75}";
type = Stem;
},
{
horizontal = 1;
place = "{859.12, 78.13}";
type = Stem;
},
{
place = "{191.37, 80.38}";
type = Stem;
},
{
place = "{412.5, 80.37}";
type = Stem;
}
);
layerId = "45368931-0D76-4CB6-835F-B3D628A2F0B6";
paths = (
{
closed = 1;
nodes = (
"143 0 LINE",
"197.54 179.25 LINE",
"488.95 179.25 LINE",
"543.5 0 LINE",
"676.5 0 LINE",
"436.75 737 LINE",
"249.75 737 LINE",
"10 0 LINE"
);
},
{
closed = 1;
nodes = (
"331.12 618.25 LINE",
"355.37 618.25 LINE",
"455.48 289.25 LINE",
"231.01 289.25 LINE"
);
},
{
closed = 1;
nodes = (
"271.75 794.25 LINE",
"271.75 838.25 LINE",
"292.62 859.12 LINE",
"391.62 859.12 LINE",
"412.5 838.25 LINE",
"412.5 794.25 LINE",
"492.87 794.25 LINE",
"492.87 867.87 LINE",
"423.5 937.25 LINE",
"260.75 937.25 LINE",
"191.37 867.87 LINE",
"191.37 794.25 LINE"
);
}
);
width = 687;
}
);
leftKerningGroup = A;
note = uni0202;
rightKerningGroup = A;
unicode = 0202;
},
{
glyphname = Amacron;
lastChange = "2019-09-03 16:30:53 +0000";
layers = (
{
hints = (
{
horizontal = 1;
place = "{179.25, 110}";
type = Stem;
},
{
horizontal = 1;
place = "{618.25, 118.75}";
type = Stem;
},
{
horizontal = 1;
place = "{794.25, 90.12}";
type = Stem;
},
{
place = "{10, 666.5}";
type = Stem;
}
);
layerId = "45368931-0D76-4CB6-835F-B3D628A2F0B6";
paths = (
{
closed = 1;
nodes = (
"143 0 LINE",
"197.54 179.25 LINE",
"488.95 179.25 LINE",
"543.5 0 LINE",
"676.5 0 LINE",
"436.75 737 LINE",
"249.75 737 LINE",
"10 0 LINE"
);
},
{
closed = 1;
nodes = (
"331.12 618.25 LINE",
"355.37 618.25 LINE",
"455.48 289.25 LINE",
"231.01 289.25 LINE"
);
},
{
closed = 1;
nodes = (
"535.12 794.25 LINE",
"535.12 884.37 LINE",
"149.12 884.37 LINE",
"149.12 794.25 LINE"
);
}
);
width = 687;
}
);
leftKerningGroup = A;
note = Amacron;
rightKerningGroup = A;
unicode = 0100;
},
{
glyphname = Aogonek;
lastChange = "2019-09-03 18:37:23 +0000";
layers = (
{
hints = (
{
horizontal = 1;
place = "{-171.63, 81.38}";
type = Stem;
},
{
horizontal = 1;
place = "{179.25, 110}";
type = Stem;
},
{
horizontal = 1;
place = "{618.25, 118.75}";
type = Stem;
},
{
place = "{498.25, 75.87}";
type = Stem;
}
);
layerId = "45368931-0D76-4CB6-835F-B3D628A2F0B6";
paths = (
{
closed = 1;
nodes = (
"627 -171.63 LINE",
"627 -90.25 LINE",
"595.12 -90.25 LINE",
"574.12 -69.25 LINE",
"574.12 -38.5 LINE",
"627 0 LINE",
"676.5 0 LINE",
"436.75 737 LINE",
"249.75 737 LINE",
"10 0 LINE",
"143 0 LINE",
"197.54 179.25 LINE",
"488.95 179.25 LINE",
"543.37 0 LINE",
"498.25 -33 LINE",
"498.25 -107.75 LINE",
"562.12 -171.63 LINE"
);
},
{
closed = 1;
nodes = (
"331.12 618.25 LINE",
"355.37 618.25 LINE",
"455.48 289.25 LINE",
"231.01 289.25 LINE"
);
}
);
width = 687;
}
);
leftKerningGroup = A;
note = Aogonek;
rightKerningGroup = A;
unicode = 0104;
},
{
glyphname = Aring;
lastChange = "2019-09-03 16:30:53 +0000";
layers = (
{
hints = (
{
horizontal = 1;
place = "{179.25, 110}";
type = Stem;
},
{
horizontal = 1;
place = "{618.25, 118.75}";
type = Stem;
},
{
horizontal = 1;
place = "{794.25, 64.87}";
type = Stem;
},
{
horizontal = 1;
place = "{940.5, 64.87}";
type = Stem;
},
{
place = "{220, 81.37}";
type = Stem;
},
{
place = "{382.87, 81.38}";
type = Stem;
}
);
layerId = "45368931-0D76-4CB6-835F-B3D628A2F0B6";
paths = (
{
closed = 1;
nodes = (
"143 0 LINE",
"197.54 179.25 LINE",
"488.95 179.25 LINE",
"543.5 0 LINE",
"676.5 0 LINE",
"436.75 737 LINE",
"249.75 737 LINE",
"10 0 LINE"
);
},
{
closed = 1;
nodes = (
"331.12 618.25 LINE",
"355.37 618.25 LINE",
"455.48 289.25 LINE",
"231.01 289.25 LINE"
);
},
{
closed = 1;
nodes = (
"397.12 794.25 LINE",
"464.25 861.25 LINE",
"464.25 938.25 LINE",
"397.12 1005.37 LINE",
"287.12 1005.37 LINE",
"220 938.25 LINE",
"220 861.25 LINE",
"287.12 794.25 LINE"
);
},
{
closed = 1;
nodes = (
"301.37 885.5 LINE",
"301.37 914.12 LINE",
"327.87 940.5 LINE",
"356.37 940.5 LINE",
"382.87 914.12 LINE",
"382.87 885.5 LINE",
"356.37 859.12 LINE",
"327.87 859.12 LINE"
);
}
);
width = 687;
}
);
leftKerningGroup = A;
note = Aring;
rightKerningGroup = A;
unicode = 00C5;
},
{
glyphname = Aringacute;
lastChange = "2019-09-03 16:30:53 +0000";
layers = (
{
hints = (
{
horizontal = 1;
place = "{179.25, 110}";
type = Stem;
},
{
horizontal = 1;
place = "{618.25, 118.75}";
type = Stem;
},
{
horizontal = 1;
place = "{794.25, 64.87}";
type = Stem;
},
{
horizontal = 1;
place = "{940.5, 64.87}";
type = Stem;
},
{
horizontal = 1;
place = "{1035.25, 154}";
type = Stem;
},
{
place = "{220, 81.37}";
type = Stem;
},
{
place = "{382.87, 81.38}";
type = Stem;
}
);
layerId = "45368931-0D76-4CB6-835F-B3D628A2F0B6";
paths = (
{
closed = 1;
nodes = (
"143 0 LINE",
"197.54 179.25 LINE",
"488.95 179.25 LINE",
"543.5 0 LINE",
"676.5 0 LINE",
"436.75 737 LINE",
"249.75 737 LINE",
"10 0 LINE"
);
},
{
closed = 1;
nodes = (
"331.12 618.25 LINE",
"355.37 618.25 LINE",
"455.48 289.25 LINE",
"231.01 289.25 LINE"
);
},
{
closed = 1;
nodes = (
"397.12 794.25 LINE",
"464.25 861.25 LINE",
"464.25 938.25 LINE",
"397.12 1005.37 LINE",
"287.12 1005.37 LINE",
"220 938.25 LINE",
"220 861.25 LINE",
"287.12 794.25 LINE"
);
},
{
closed = 1;
nodes = (
"301.37 885.5 LINE",
"301.37 914.12 LINE",
"327.87 940.5 LINE",
"356.37 940.5 LINE",
"382.87 914.12 LINE",
"382.87 885.5 LINE",
"356.37 859.12 LINE",
"327.87 859.12 LINE"
);
},
{
closed = 1;
nodes = (
"394.37 1035.25 LINE",
"533 1189.25 LINE",
"394.37 1189.25 LINE",
"293.25 1035.25 LINE"
);
}
);
width = 687;
}
);
leftKerningGroup = A;
note = Aringacute;
rightKerningGroup = A;
unicode = 01FA;
},
{
glyphname = Atilde;
lastChange = "2019-09-03 16:30:53 +0000";
layers = (
{
hints = (
{
horizontal = 1;
place = "{179.25, 110}";
type = Stem;
},
{
horizontal = 1;
place = "{618.25, 118.75}";
type = Stem;
},
{
horizontal = 1;
place = "{860.25, 75.87}";
type = Stem;
},
{
place = "{152.37, 69.88}";
type = Stem;
},
{
place = "{467.5, 69.87}";
type = Stem;
},
{
horizontal = 1;
place = "{794.25, 75.87}";
type = Stem;
}
);
layerId = "45368931-0D76-4CB6-835F-B3D628A2F0B6";
paths = (
{
closed = 1;
nodes = (
"143 0 LINE",
"197.54 179.25 LINE",
"488.95 179.25 LINE",
"543.5 0 LINE",
"676.5 0 LINE",
"436.75 737 LINE",
"249.75 737 LINE",
"10 0 LINE"
);
},
{
closed = 1;
nodes = (
"331.12 618.25 LINE",
"355.37 618.25 LINE",
"455.48 289.25 LINE",
"231.01 289.25 LINE"
);
},
{
closed = 1;
nodes = (
"470.87 794.25 LINE",
"536.87 861.25 LINE",
"537.87 932.75 LINE",
"467.5 932.75 LINE",
"467.5 906.37 LINE",
"432.37 870.12 LINE",
"401.5 870.12 LINE",
"332.25 936.12 LINE",
"218.87 936.12 LINE",
"152.87 869 LINE",
"151.87 797.5 LINE",
"222.25 797.5 LINE",
"222.25 823.87 LINE",
"257.37 860.25 LINE",
"288.25 860.25 LINE",
"357.5 794.25 LINE"
);
}
);
width = 687;
}
);
leftKerningGroup = A;
note = Atilde;
rightKerningGroup = A;
unicode = 00C3;
},
{
glyphname = AE;
lastChange = "2019-09-03 16:30:53 +0000";
layers = (
{
hints = (
{
horizontal = 1;
place = "{0, 114.37}";
type = Stem;
},
{
horizontal = 1;
place = "{179.25, 110}";
type = Stem;
},
{
horizontal = 1;
place = "{328.87, 114.38}";
type = Stem;
},
{
horizontal = 1;
place = "{622.62, 114.38}";
type = Stem;
},
{
place = "{10, 915.75}";
type = Stem;
}
);
layerId = "45368931-0D76-4CB6-835F-B3D628A2F0B6";
paths = (
{
closed = 1;
nodes = (
"143 0 LINE",
"197.54 179.25 LINE",
"488.95 179.25 LINE",
"543.5 0 LINE",
"925.75 0 LINE",
"925.75 114.37 LINE",
"639.29 114.37 LINE",
"569.51 328.87 LINE",
"892.75 328.87 LINE",
"892.75 443.25 LINE",
"532.31 443.25 LINE",
"473.95 622.62 LINE",
"925.75 622.62 LINE",
"925.75 737 LINE",
"249.75 737 LINE",
"10 0 LINE"
);
},
{
closed = 1;
nodes = (
"331.12 618.25 LINE",
"355.37 618.25 LINE",
"455.48 289.25 LINE",
"231.01 289.25 LINE"
);
}
);
width = 976;
}
);
leftKerningGroup = A;
note = AE;
rightKerningGroup = AE;
unicode = 00C6;
},
{
glyphname = AEacute;
lastChange = "2019-09-03 16:30:53 +0000";
layers = (
{
hints = (
{
horizontal = 1;
place = "{0, 114.37}";
type = Stem;
},
{
horizontal = 1;
place = "{179.25, 110}";
type = Stem;
},
{
horizontal = 1;
place = "{328.87, 114.38}";
type = Stem;
},
{
horizontal = 1;
place = "{622.62, 114.38}";
type = Stem;
},
{
horizontal = 1;
place = "{794.25, 154}";
type = Stem;
},
{
place = "{10, 915.75}";
type = Stem;
}
);
layerId = "45368931-0D76-4CB6-835F-B3D628A2F0B6";
paths = (
{
closed = 1;
nodes = (
"143 0 LINE",
"197.54 179.25 LINE",
"488.95 179.25 LINE",
"543.5 0 LINE",
"925.75 0 LINE",
"925.75 114.37 LINE",
"639.29 114.37 LINE",
"569.51 328.87 LINE",
"892.75 328.87 LINE",
"892.75 443.25 LINE",
"532.31 443.25 LINE",
"473.95 622.62 LINE",
"925.75 622.62 LINE",
"925.75 737 LINE",
"249.75 737 LINE",
"10 0 LINE"
);
},
{
closed = 1;
nodes = (
"331.12 618.25 LINE",
"355.37 618.25 LINE",
"455.48 289.25 LINE",
"231.01 289.25 LINE"
);
},
{
closed = 1;
nodes = (
"392.62 794.25 LINE",
"531.25 948.25 LINE",
"392.62 948.25 LINE",
"291.5 794.25 LINE"
);
}
);
width = 976;
}
);
leftKerningGroup = A;
note = AEacute;
rightKerningGroup = AE;
unicode = 01FC;
},
{
glyphname = B;
lastChange = "2019-09-03 16:30:53 +0000";
layers = (
{
hints = (
{
horizontal = 1;
place = "{0, 110.14}";
type = Stem;
},
{
horizontal = 1;
place = "{331.27, 109.85}";
type = Stem;
},
{
horizontal = 1;
place = "{627.15, 109.85}";
type = Stem;
},
{
place = "{80, 125.4}";
type = Stem;
},
{
place = "{488.99, 125.51}";
type = Stem;
},
{
place = "{522.31, 125.19}";
type = Stem;
}
);
layerId = "45368931-0D76-4CB6-835F-B3D628A2F0B6";
paths = (
{
closed = 1;
nodes = (
"536.5 0 LINE",
"647.5 111.12 LINE",
"647.5 319 LINE",
"567.25 399.25 LINE",
"614.5 453.25 LINE",
"614.5 625.87 LINE",
"503.5 737 LINE",
"80 737 LINE",
"80 0 LINE"
);
},
{
closed = 1;
nodes = (
"205.4 331.16 LINE",
"478.12 331.37 LINE",
"522.25 287.12 LINE",
"522.37 154 LINE",
"478.12 110.25 LINE",
"205.4 110.03 LINE"
);
},
{
closed = 1;
nodes = (
"205.4 627.04 LINE",
"445.12 627.25 LINE",
"488.87 583 LINE",
"489.12 490.5 LINE",
"445.75 441.12 LINE",
"205.4 441.12 LINE"
);
}
);
width = 708;
}
);
leftKerningGroup = B;
note = B;
rightKerningGroup = B;
unicode = 0042;
},
{
glyphname = C;
lastChange = "2019-09-03 16:30:53 +0000";
layers = (
{
hints = (
{
horizontal = 1;
place = "{0, 109.88}";
type = Stem;
},
{
horizontal = 1;
place = "{626.88, 110.12}";
type = Stem;
},
{
place = "{60, 125.37}";
type = Stem;
}
);
layerId = "45368931-0D76-4CB6-835F-B3D628A2F0B6";
paths = (
{
closed = 1;
nodes = (
"527.5 0 LINE",
"628.75 101.25 LINE",
"549.5 181.5 LINE",
"476.87 110 LINE",
"229.37 109.75 LINE",
"185.62 154 LINE",
"185.12 583 LINE",
"229.37 626.75 LINE",
"468.12 627 LINE",
"540.75 555.5 LINE",
"619.87 635.75 LINE",
"518.75 737 LINE",
"171.12 737 LINE",
"60 625.87 LINE",
"60 111.12 LINE",
"171.12 0 LINE"
);
}
);
width = 649;
}
);
leftKerningGroup = C;
note = C;
rightKerningGroup = C;
unicode = 0043;
},
{
glyphname = Cacute;
lastChange = "2019-09-03 16:30:53 +0000";
layers = (
{
hints = (
{
horizontal = 1;
place = "{0, 109.88}";
type = Stem;
},
{
horizontal = 1;
place = "{626.88, 110.12}";
type = Stem;
},
{
horizontal = 1;
place = "{794.25, 154}";
type = Stem;
},
{
place = "{60, 125.37}";
type = Stem;
}
);
layerId = "45368931-0D76-4CB6-835F-B3D628A2F0B6";
paths = (
{
closed = 1;
nodes = (
"527.5 0 LINE",
"628.75 101.25 LINE",
"549.5 181.5 LINE",
"476.87 110 LINE",
"229.37 109.75 LINE",
"185.62 154 LINE",
"185.12 583 LINE",
"229.37 626.75 LINE",
"468.12 627 LINE",
"540.75 555.5 LINE",
"619.87 635.75 LINE",
"518.75 737 LINE",
"171.12 737 LINE",
"60 625.87 LINE",
"60 111.12 LINE",
"171.12 0 LINE"
);
},
{
closed = 1;
nodes = (
"395.5 794.25 LINE",
"534.12 948.25 LINE",
"395.5 948.25 LINE",
"294.37 794.25 LINE"
);
}
);
width = 649;
}
);
leftKerningGroup = C;
note = Cacute;
rightKerningGroup = C;
unicode = 0106;
},
{
glyphname = Ccaron;
lastChange = "2019-09-03 16:30:53 +0000";
layers = (
{
hints = (
{
horizontal = 1;
place = "{0, 109.88}";
type = Stem;
},
{
horizontal = 1;
place = "{626.88, 110.12}";
type = Stem;
},
{
horizontal = 1;
place = "{794.25, 143}";
type = Stem;
},
{
place = "{60, 125.37}";
type = Stem;
}
);
layerId = "45368931-0D76-4CB6-835F-B3D628A2F0B6";
paths = (
{
closed = 1;
nodes = (
"527.5 0 LINE",
"628.75 101.25 LINE",
"549.5 181.5 LINE",
"476.87 110 LINE",
"229.37 109.75 LINE",
"185.62 154 LINE",
"185.12 583 LINE",
"229.37 626.75 LINE",
"468.12 627 LINE",
"540.75 555.5 LINE",
"619.87 635.75 LINE",
"518.75 737 LINE",
"171.12 737 LINE",
"60 625.87 LINE",
"60 111.12 LINE",
"171.12 0 LINE"
);
},
{
closed = 1;
nodes = (
"408.75 794.25 LINE",
"513.25 937.25 LINE",
"412.12 937.25 LINE",
"345 869.12 LINE",
"277.87 937.25 LINE",
"176.75 937.25 LINE",
"281.25 794.25 LINE"
);
}
);
width = 649;
}
);
leftKerningGroup = C;
note = Ccaron;
rightKerningGroup = C;
unicode = 010C;
},
{
glyphname = Ccedilla;
lastChange = "2019-09-03 16:30:53 +0000";
layers = (
{
hints = (
{
horizontal = 1;
place = "{0, 109.88}";
type = Stem;
},
{
horizontal = 1;
place = "{626.88, 110.12}";
type = Stem;
},
{
place = "{60, 125.37}";
type = Stem;
}
);
layerId = "45368931-0D76-4CB6-835F-B3D628A2F0B6";
paths = (
{
closed = 1;
nodes = (
"362.5 -125.38 LINE",
"401 0 LINE",
"527.5 0 LINE",
"628.75 101.25 LINE",
"549.5 181.5 LINE",
"476.87 110 LINE",
"229.37 109.75 LINE",
"185.62 154 LINE",
"185.12 583 LINE",
"229.37 626.75 LINE",
"468.12 627 LINE",
"540.75 555.5 LINE",
"619.87 635.75 LINE",
"518.75 737 LINE",
"171.12 737 LINE",
"60 625.87 LINE",
"60 111.12 LINE",
"171.12 0 LINE",
"297.62 0 LINE",
"277.75 -125.38 LINE"
);
}
);
width = 649;
}
);
leftKerningGroup = C;
note = Ccedilla;
rightKerningGroup = C;
unicode = 00C7;
},
{
glyphname = Ccircumflex;
lastChange = "2019-09-03 16:30:53 +0000";
layers = (
{
hints = (
{
horizontal = 1;
place = "{0, 109.88}";
type = Stem;
},
{
horizontal = 1;
place = "{626.88, 110.12}";
type = Stem;
},
{
horizontal = 1;
place = "{794.25, 143}";
type = Stem;
},
{
place = "{60, 125.37}";
type = Stem;
}
);
layerId = "45368931-0D76-4CB6-835F-B3D628A2F0B6";
paths = (
{
closed = 1;
nodes = (
"527.5 0 LINE",
"628.75 101.25 LINE",
"549.5 181.5 LINE",
"476.87 110 LINE",
"229.37 109.75 LINE",
"185.62 154 LINE",
"185.12 583 LINE",
"229.37 626.75 LINE",
"468.12 627 LINE",
"540.75 555.5 LINE",
"619.87 635.75 LINE",
"518.75 737 LINE",
"171.12 737 LINE",
"60 625.87 LINE",
"60 111.12 LINE",
"171.12 0 LINE"
);
},
{
closed = 1;
nodes = (
"277.87 794.25 LINE",
"345 862.37 LINE",
"412.12 794.25 LINE",
"513.25 794.25 LINE",
"408.75 937.25 LINE",
"281.25 937.25 LINE",
"176.75 794.25 LINE"
);
}
);
width = 649;
}
);
leftKerningGroup = C;
note = Ccircumflex;
rightKerningGroup = C;
unicode = 0108;
},
{
glyphname = Cdotaccent;
lastChange = "2019-09-03 16:30:53 +0000";
layers = (
{
hints = (
{
horizontal = 1;
place = "{0, 109.88}";
type = Stem;
},
{
horizontal = 1;
place = "{626.88, 110.12}";
type = Stem;
},
{
horizontal = 1;
place = "{794.25, 125.37}";
type = Stem;
},
{
place = "{60, 125.37}";
type = Stem;
},
{
place = "{284.5, 121}";
type = Stem;
}
);
layerId = "45368931-0D76-4CB6-835F-B3D628A2F0B6";
paths = (
{
closed = 1;
nodes = (
"527.5 0 LINE",
"628.75 101.25 LINE",
"549.5 181.5 LINE",
"476.87 110 LINE",
"229.37 109.75 LINE",
"185.62 154 LINE",
"185.12 583 LINE",
"229.37 626.75 LINE",
"468.12 627 LINE",
"540.75 555.5 LINE",
"619.87 635.75 LINE",
"518.75 737 LINE",
"171.12 737 LINE",
"60 625.87 LINE",
"60 111.12 LINE",
"171.12 0 LINE"
);
},
{
closed = 1;
nodes = (
"405.5 794.25 LINE",
"405.5 919.62 LINE",
"284.5 919.62 LINE",
"284.5 794.25 LINE"
);
}
);
width = 649;
}
);
leftKerningGroup = C;
note = Cdotaccent;
rightKerningGroup = C;
unicode = 010A;
},
{
glyphname = D;
lastChange = "2019-09-03 16:30:53 +0000";
layers = (
{
hints = (
{
horizontal = 1;
place = "{0, 110}";
type = Stem;
},
{
horizontal = 1;
place = "{627, 110}";
type = Stem;
},
{
place = "{80, 125.4}";
type = Stem;
},
{
place = "{534.37, 125.38}";
type = Stem;
}
);
layerId = "45368931-0D76-4CB6-835F-B3D628A2F0B6";
paths = (
{
closed = 1;
nodes = (
"504.62 0 LINE",
"659.75 155.12 LINE",
"659.75 581.87 LINE",
"504.62 737 LINE",
"80 737 LINE",
"80 0 LINE"
);
},
{
closed = 1;
nodes = (
"205.4 627 LINE",
"446.37 627 LINE",
"534.37 539 LINE",
"534.37 198 LINE",
"446.37 110 LINE",
"205.4 110 LINE"
);
}
);
width = 720;
}
);
leftKerningGroup = B;
note = D;
rightKerningGroup = D;
unicode = 0044;
},
{
glyphname = uni01C4;
lastChange = "2019-09-03 16:30:53 +0000";
layers = (
{
hints = (
{
horizontal = 1;
place = "{0, 114.37}";
type = Stem;
},
{
horizontal = 1;
place = "{622.62, 114.38}";
type = Stem;
},
{
horizontal = 1;
place = "{794.25, 143}";
type = Stem;
},
{
place = "{80, 125.4}";
type = Stem;
},
{
place = "{534.37, 125.38}";
type = Stem;
},
{
horizontal = 1;
place = "{0, 110}";
type = Stem;
},
{
horizontal = 1;
place = "{627, 110}";
type = Stem;
},
{
place = "{1153.62, 165}";
type = Stem;
},
{
place = "{780.62, 167.25}";
type = Stem;
}
);
layerId = "45368931-0D76-4CB6-835F-B3D628A2F0B6";
paths = (
{
closed = 1;
nodes = (
"504.62 0 LINE",
"659.75 155.12 LINE",
"659.75 581.87 LINE",
"504.62 737 LINE",
"80 737 LINE",
"80 0 LINE"
);
},
{
closed = 1;
nodes = (
"205.4 627 LINE",
"446.37 627 LINE",
"534.37 539 LINE",
"534.37 198 LINE",
"446.37 110 LINE",
"205.4 110 LINE"
);
},
{
closed = 1;
nodes = (
"1318.62 0 LINE",
"1318.62 114.37 LINE",
"947.87 114.37 LINE",
"947.87 138.62 LINE",
"1318.62 622.62 LINE",
"1318.62 737 LINE",
"802.62 737 LINE",
"802.62 622.62 LINE",
"1153.62 622.62 LINE",
"1153.62 598.37 LINE",
"780.62 114.37 LINE",
"780.62 0 LINE"
);
},
{
closed = 1;
nodes = (
"1121.87 794.25 LINE",
"1226.37 937.25 LINE",
"1125.25 937.25 LINE",
"1058.12 869.12 LINE",
"991 937.25 LINE",
"889.87 937.25 LINE",
"994.37 794.25 LINE"
);
}
);
width = 1379;
}
);
leftKerningGroup = B;
note = uni01C4;
rightKerningGroup = uni01C4;
unicode = 01C4;
},
{
glyphname = Eth;
lastChange = "2019-09-03 16:30:53 +0000";
layers = (
{
hints = (
{
horizontal = 1;
place = "{0, 110}";
type = Stem;
},
{
horizontal = 1;
place = "{324.5, 99}";
type = Stem;
},
{
horizontal = 1;
place = "{627, 110}";
type = Stem;
},
{
place = "{80, 125.4}";
type = Stem;
},
{
place = "{534.37, 125.38}";
type = Stem;
}
);
layerId = "45368931-0D76-4CB6-835F-B3D628A2F0B6";
paths = (
{
closed = 1;
nodes = (
"504.62 0 LINE",
"659.75 155.12 LINE",
"659.75 581.87 LINE",
"504.62 737 LINE",
"80 737 LINE",
"80 423.5 LINE",
"11.87 423.5 LINE",
"11.87 324.5 LINE",
"80 324.5 LINE",
"80 0 LINE"
);
},
{
closed = 1;
nodes = (
"205.4 324.5 LINE",
"325.37 324.5 LINE",
"325.37 423.5 LINE",
"205.4 423.5 LINE",
"205.4 627 LINE",
"446.37 627 LINE",
"534.37 539 LINE",
"534.37 198 LINE",
"446.37 110 LINE",
"205.4 110 LINE"
);
}
);
width = 720;
}
);
leftKerningGroup = B;
note = Eth;
rightKerningGroup = D;
unicode = 00D0;
},
{
glyphname = Dcaron;
lastChange = "2019-09-03 16:30:53 +0000";
layers = (
{
hints = (
{
horizontal = 1;
place = "{0, 110}";
type = Stem;
},
{
horizontal = 1;
place = "{627, 110}";
type = Stem;
},
{
horizontal = 1;
place = "{794.25, 143}";
type = Stem;
},
{
place = "{80, 125.4}";
type = Stem;
},
{
place = "{534.37, 125.38}";
type = Stem;
}
);
layerId = "45368931-0D76-4CB6-835F-B3D628A2F0B6";
paths = (
{
closed = 1;
nodes = (
"504.62 0 LINE",
"659.75 155.12 LINE",
"659.75 581.87 LINE",
"504.62 737 LINE",
"80 737 LINE",
"80 0 LINE"
);
},
{
closed = 1;
nodes = (
"205.4 627 LINE",
"446.37 627 LINE",
"534.37 539 LINE",
"534.37 198 LINE",
"446.37 110 LINE",
"205.4 110 LINE"
);
},
{
closed = 1;
nodes = (
"396.75 794.25 LINE",
"501.25 937.25 LINE",
"400.12 937.25 LINE",
"333 869.12 LINE",
"265.87 937.25 LINE",
"164.75 937.25 LINE",
"269.25 794.25 LINE"
);
}
);
width = 720;
}
);
leftKerningGroup = B;
note = Dcaron;
rightKerningGroup = D;
unicode = 010E;
},
{
glyphname = Dcroat;
lastChange = "2019-09-03 16:30:53 +0000";
layers = (
{
hints = (
{
horizontal = 1;
place = "{0, 110}";
type = Stem;
},
{
horizontal = 1;
place = "{324.5, 99}";
type = Stem;
},
{
horizontal = 1;
place = "{627, 110}";
type = Stem;
},
{
place = "{80, 125.4}";
type = Stem;
},
{
place = "{534.37, 125.38}";
type = Stem;
}
);
layerId = "45368931-0D76-4CB6-835F-B3D628A2F0B6";
paths = (
{
closed = 1;
nodes = (
"504.62 0 LINE",
"659.75 155.12 LINE",
"659.75 581.87 LINE",
"504.62 737 LINE",
"80 737 LINE",
"80 423.5 LINE",
"11.87 423.5 LINE",
"11.87 324.5 LINE",
"80 324.5 LINE",
"80 0 LINE"
);
},
{
closed = 1;
nodes = (
"205.4 324.5 LINE",
"325.37 324.5 LINE",
"325.37 423.5 LINE",
"205.4 423.5 LINE",
"205.4 627 LINE",
"446.37 627 LINE",
"534.37 539 LINE",
"534.37 198 LINE",
"446.37 110 LINE",
"205.4 110 LINE"
);
}
);
width = 720;
}
);
leftKerningGroup = B;
note = Dcroat;
rightKerningGroup = D;
unicode = 0110;
},
{
glyphname = uni01C5;
lastChange = "2019-09-03 16:30:53 +0000";
layers = (
{
hints = (
{
horizontal = 1;
place = "{0, 99}";
type = Stem;
},
{
horizontal = 1;
place = "{423.5, 99}";
type = Stem;
},
{
horizontal = 1;
place = "{627, 110}";
type = Stem;
},
{
place = "{80, 125.4}";
type = Stem;
},
{
place = "{534.37, 125.38}";
type = Stem;
},
{
horizontal = 1;
place = "{0, 110}";
type = Stem;
},
{
horizontal = 1;
place = "{579.75, 143}";
type = Stem;
}
);
layerId = "45368931-0D76-4CB6-835F-B3D628A2F0B6";
paths = (
{
closed = 1;
nodes = (
"504.62 0 LINE",
"659.75 155.12 LINE",
"659.75 581.87 LINE",
"504.62 737 LINE",
"80 737 LINE",
"80 0 LINE"
);
},
{
closed = 1;
nodes = (
"205.4 627 LINE",
"446.37 627 LINE",
"534.37 539 LINE",
"534.37 198 LINE",
"446.37 110 LINE",
"205.4 110 LINE"
);
},
{
closed = 1;
nodes = (
"1253.75 0 LINE",
"1253.75 99 LINE",
"945.5 99 LINE",
"1247.12 411.37 LINE",
"1247.12 522.5 LINE",
"818.12 522.5 LINE",
"818.12 423.5 LINE",
"1098.9 423.5 LINE",
"797.25 111.12 LINE",
"797.25 0 LINE"
);
},
{
closed = 1;
nodes = (
"1088.75 579.75 LINE",
"1193.25 722.75 LINE",
"1092.12 722.75 LINE",
"1025 654.62 LINE",
"957.87 722.75 LINE",
"856.75 722.75 LINE",
"961.25 579.75 LINE"
);
}
);
width = 1334;
}
);
leftKerningGroup = B;
note = uni01C5;
unicode = 01C5;
},
{
glyphname = E;
lastChange = "2019-09-03 16:30:53 +0000";
layers = (
{
hints = (
{
horizontal = 1;
place = "{0, 114.37}";
type = Stem;
},
{
horizontal = 1;
place = "{328.87, 114.38}";
type = Stem;
},
{
horizontal = 1;
place = "{622.62, 114.38}";
type = Stem;
},
{
place = "{80, 125.4}";
type = Stem;
}
);
layerId = "45368931-0D76-4CB6-835F-B3D628A2F0B6";
paths = (
{
closed = 1;
nodes = (
"583.75 0 LINE",
"583.75 114.37 LINE",
"205.4 114.37 LINE",
"205.4 328.87 LINE",
"550.75 328.87 LINE",
"550.75 443.25 LINE",
"205.4 443.25 LINE",
"205.4 622.62 LINE",
"583.75 622.62 LINE",
"583.75 737 LINE",
"80 737 LINE",
"80 0 LINE"
);
}
);
width = 634;
}
);
leftKerningGroup = B;
note = E;
rightKerningGroup = AE;
unicode = 0045;
},
{
glyphname = Eacute;
lastChange = "2019-09-03 16:30:53 +0000";
layers = (
{
hints = (
{
horizontal = 1;
place = "{0, 114.37}";
type = Stem;
},
{
horizontal = 1;
place = "{328.87, 114.38}";
type = Stem;
},
{
horizontal = 1;
place = "{622.62, 114.38}";
type = Stem;
},
{
horizontal = 1;
place = "{794.25, 154}";
type = Stem;
},
{
place = "{80, 125.4}";
type = Stem;
}
);
layerId = "45368931-0D76-4CB6-835F-B3D628A2F0B6";
paths = (
{
closed = 1;
nodes = (
"583.75 0 LINE",
"583.75 114.37 LINE",
"205.4 114.37 LINE",
"205.4 328.87 LINE",
"550.75 328.87 LINE",
"550.75 443.25 LINE",
"205.4 443.25 LINE",
"205.4 622.62 LINE",
"583.75 622.62 LINE",
"583.75 737 LINE",
"80 737 LINE",
"80 0 LINE"
);
},
{
closed = 1;
nodes = (
"380.12 794.25 LINE",
"518.75 948.25 LINE",
"380.12 948.25 LINE",
"279 794.25 LINE"
);
}
);
width = 634;
}
);
leftKerningGroup = B;
note = Eacute;
rightKerningGroup = AE;
unicode = 00C9;
},
{
glyphname = Ebreve;
lastChange = "2019-09-03 16:30:53 +0000";
layers = (
{
hints = (
{
horizontal = 1;
place = "{0, 114.37}";
type = Stem;
},
{
horizontal = 1;
place = "{328.87, 114.38}";
type = Stem;
},
{
horizontal = 1;
place = "{622.62, 114.38}";
type = Stem;
},
{
horizontal = 1;
place = "{794.25, 78}";
type = Stem;
},
{
place = "{80, 125.4}";
type = Stem;
},
{
place = "{400, 80.37}";
type = Stem;
},
{
place = "{178.87, 80.38}";
type = Stem;
}
);
layerId = "45368931-0D76-4CB6-835F-B3D628A2F0B6";
paths = (
{
closed = 1;
nodes = (
"583.75 0 LINE",
"583.75 114.37 LINE",
"205.4 114.37 LINE",
"205.4 328.87 LINE",
"550.75 328.87 LINE",
"550.75 443.25 LINE",
"205.4 443.25 LINE",
"205.4 622.62 LINE",
"583.75 622.62 LINE",
"583.75 737 LINE",
"80 737 LINE",
"80 0 LINE"
);
},
{
closed = 1;
nodes = (
"411 794.25 LINE",
"480.37 863.5 LINE",
"480.37 937.25 LINE",
"400 937.25 LINE",
"400 893.25 LINE",
"379.12 872.25 LINE",
"280.12 872.25 LINE",
"259.25 893.25 LINE",
"259.25 937.25 LINE",
"178.87 937.25 LINE",
"178.87 863.5 LINE",
"248.25 794.25 LINE"
);
}
);
width = 634;
}
);
leftKerningGroup = B;
note = Ebreve;
rightKerningGroup = AE;
unicode = 0114;
},
{
glyphname = Ecaron;
lastChange = "2019-09-03 16:30:53 +0000";
layers = (
{
hints = (
{
horizontal = 1;
place = "{0, 114.37}";
type = Stem;
},
{
horizontal = 1;
place = "{328.87, 114.38}";
type = Stem;
},
{
horizontal = 1;
place = "{622.62, 114.38}";
type = Stem;
},
{
horizontal = 1;
place = "{794.25, 143}";
type = Stem;
},
{
place = "{80, 125.4}";
type = Stem;
}
);
layerId = "45368931-0D76-4CB6-835F-B3D628A2F0B6";
paths = (
{
closed = 1;
nodes = (
"583.75 0 LINE",
"583.75 114.37 LINE",
"205.4 114.37 LINE",
"205.4 328.87 LINE",
"550.75 328.87 LINE",
"550.75 443.25 LINE",
"205.4 443.25 LINE",
"205.4 622.62 LINE",
"583.75 622.62 LINE",
"583.75 737 LINE",
"80 737 LINE",
"80 0 LINE"
);
},
{
closed = 1;
nodes = (
"393.37 794.25 LINE",
"497.87 937.25 LINE",
"396.75 937.25 LINE",
"329.62 869.12 LINE",
"262.5 937.25 LINE",
"161.37 937.25 LINE",
"265.87 794.25 LINE"
);
}
);
width = 634;
}
);
leftKerningGroup = B;
note = Ecaron;
rightKerningGroup = AE;
unicode = 011A;
},
{
glyphname = Ecircumflex;
lastChange = "2019-09-03 16:30:53 +0000";
layers = (
{
hints = (
{
horizontal = 1;
place = "{0, 114.37}";
type = Stem;
},
{
horizontal = 1;
place = "{328.87, 114.38}";
type = Stem;
},
{
horizontal = 1;
place = "{622.62, 114.38}";
type = Stem;
},
{
horizontal = 1;
place = "{794.25, 143}";
type = Stem;
},
{
place = "{80, 125.4}";
type = Stem;
}
);
layerId = "45368931-0D76-4CB6-835F-B3D628A2F0B6";
paths = (
{
closed = 1;
nodes = (
"583.75 0 LINE",
"583.75 114.37 LINE",
"205.4 114.37 LINE",
"205.4 328.87 LINE",
"550.75 328.87 LINE",
"550.75 443.25 LINE",
"205.4 443.25 LINE",
"205.4 622.62 LINE",
"583.75 622.62 LINE",
"583.75 737 LINE",
"80 737 LINE",
"80 0 LINE"
);
},
{
closed = 1;
nodes = (
"262.5 794.25 LINE",
"329.62 862.37 LINE",
"396.75 794.25 LINE",
"497.87 794.25 LINE",
"393.37 937.25 LINE",
"265.87 937.25 LINE",
"161.37 794.25 LINE"
);
}
);
width = 634;
}
);
leftKerningGroup = B;
note = Ecircumflex;
rightKerningGroup = AE;
unicode = 00CA;
},
{
glyphname = uni1EBE;
lastChange = "2019-09-03 16:30:53 +0000";
layers = (
{
hints = (
{
horizontal = 1;
place = "{0, 114.37}";
type = Stem;
},
{
horizontal = 1;
place = "{328.87, 114.38}";
type = Stem;
},
{
horizontal = 1;
place = "{622.62, 114.38}";
type = Stem;
},
{
horizontal = 1;
place = "{876.75, 154}";
type = Stem;
},
{
place = "{80, 125.4}";
type = Stem;
},
{
horizontal = 1;
place = "{794.25, 143}";
type = Stem;
}
);
layerId = "45368931-0D76-4CB6-835F-B3D628A2F0B6";
paths = (
{
closed = 1;
nodes = (
"583.75 0 LINE",
"583.75 114.37 LINE",
"205.4 114.37 LINE",
"205.4 328.87 LINE",
"550.75 328.87 LINE",
"550.75 443.25 LINE",
"205.4 443.25 LINE",
"205.4 622.62 LINE",
"583.75 622.62 LINE",
"583.75 737 LINE",
"80 737 LINE",
"80 0 LINE"
);
},
{
closed = 1;
nodes = (
"262.5 794.25 LINE",
"329.62 862.37 LINE",
"396.75 794.25 LINE",
"497.87 794.25 LINE",
"393.37 937.25 LINE",
"265.87 937.25 LINE",
"161.37 794.25 LINE"
);
},
{
closed = 1;
nodes = (
"582.62 876.75 LINE",
"721.25 1030.75 LINE",
"582.62 1030.75 LINE",
"481.5 876.75 LINE"
);
}
);
width = 634;
}
);
leftKerningGroup = B;
note = uni1EBE;
rightKerningGroup = AE;
unicode = 1EBE;
},
{
glyphname = uni1EC6;
lastChange = "2019-09-03 16:30:53 +0000";
layers = (
{
hints = (
{
horizontal = 1;
place = "{-182.63, 125.38}";
type = Stem;
},
{
horizontal = 1;
place = "{0, 114.37}";
type = Stem;
},
{
horizontal = 1;
place = "{328.87, 114.38}";
type = Stem;
},
{
horizontal = 1;
place = "{622.62, 114.38}";
type = Stem;
},
{
horizontal = 1;
place = "{794.25, 143}";
type = Stem;
},
{
place = "{80, 125.4}";
type = Stem;
},
{
place = "{269.12, 121}";
type = Stem;
}
);
layerId = "45368931-0D76-4CB6-835F-B3D628A2F0B6";
paths = (
{
closed = 1;
nodes = (
"583.75 0 LINE",
"583.75 114.37 LINE",
"205.4 114.37 LINE",
"205.4 328.87 LINE",
"550.75 328.87 LINE",
"550.75 443.25 LINE",
"205.4 443.25 LINE",
"205.4 622.62 LINE",
"583.75 622.62 LINE",
"583.75 737 LINE",
"80 737 LINE",
"80 0 LINE"
);
},
{
closed = 1;
nodes = (
"390.12 -182.63 LINE",
"390.12 -57.25 LINE",
"269.12 -57.25 LINE",
"269.12 -182.63 LINE"
);
},
{
closed = 1;
nodes = (
"262.5 794.25 LINE",
"329.62 862.37 LINE",
"396.75 794.25 LINE",
"497.87 794.25 LINE",
"393.37 937.25 LINE",
"265.87 937.25 LINE",
"161.37 794.25 LINE"
);
}
);
width = 634;
}
);
leftKerningGroup = B;
note = uni1EC6;
rightKerningGroup = AE;
unicode = 1EC6;
},
{
glyphname = uni1EC0;
lastChange = "2019-09-03 16:30:53 +0000";
layers = (
{
hints = (
{
horizontal = 1;
place = "{0, 114.37}";
type = Stem;
},
{
horizontal = 1;
place = "{328.87, 114.38}";
type = Stem;
},
{
horizontal = 1;
place = "{622.62, 114.38}";
type = Stem;
},
{
horizontal = 1;
place = "{876.75, 154}";
type = Stem;
},
{
place = "{80, 125.4}";
type = Stem;
},
{
horizontal = 1;
place = "{794.25, 143}";
type = Stem;
}
);
layerId = "45368931-0D76-4CB6-835F-B3D628A2F0B6";
paths = (
{
closed = 1;
nodes = (
"583.75 0 LINE",
"583.75 114.37 LINE",
"205.4 114.37 LINE",
"205.4 328.87 LINE",
"550.75 328.87 LINE",
"550.75 443.25 LINE",
"205.4 443.25 LINE",
"205.4 622.62 LINE",
"583.75 622.62 LINE",
"583.75 737 LINE",
"80 737 LINE",
"80 0 LINE"
);
},
{
closed = 1;
nodes = (
"177.75 876.75 LINE",
"76.62 1030.75 LINE",
"-62 1030.75 LINE",
"76.62 876.75 LINE"
);
},
{
closed = 1;
nodes = (
"262.5 794.25 LINE",
"329.62 862.37 LINE",
"396.75 794.25 LINE",
"497.87 794.25 LINE",
"393.37 937.25 LINE",
"265.87 937.25 LINE",
"161.37 794.25 LINE"
);
}
);
width = 634;
}
);
leftKerningGroup = B;
note = uni1EC0;
rightKerningGroup = AE;
unicode = 1EC0;
},
{
glyphname = uni1EC2;
lastChange = "2019-09-03 16:30:53 +0000";
layers = (
{
hints = (
{
horizontal = 1;
place = "{0, 114.37}";
type = Stem;
},
{
horizontal = 1;
place = "{328.87, 114.38}";
type = Stem;
},
{
horizontal = 1;
place = "{622.62, 114.38}";
type = Stem;
},
{
horizontal = 1;
place = "{794.25, 143}";
type = Stem;
},
{
horizontal = 1;
place = "{1021.5, 71}";
type = Stem;
},
{
place = "{80, 125.4}";
type = Stem;
},
{
place = "{460.87, 80.38}";
type = Stem;
},
{
place = "{525.62, 87.38}";
type = Stem;
}
);
layerId = "45368931-0D76-4CB6-835F-B3D628A2F0B6";
paths = (
{
closed = 1;
nodes = (
"583.75 0 LINE",
"583.75 114.37 LINE",
"205.4 114.37 LINE",
"205.4 328.87 LINE",
"550.75 328.87 LINE",
"550.75 443.25 LINE",
"205.4 443.25 LINE",
"205.4 622.62 LINE",
"583.75 622.62 LINE",
"583.75 737 LINE",
"80 737 LINE",
"80 0 LINE"
);
},
{
closed = 1;
nodes = (
"262.5 794.25 LINE",
"329.62 862.37 LINE",
"396.75 794.25 LINE",
"497.87 794.25 LINE",
"393.37 937.25 LINE",
"265.87 937.25 LINE",
"161.37 794.25 LINE"
);
},
{
closed = 1;
nodes = (
"541.25 876.75 LINE",
"541.25 912.87 LINE",
"613 967.25 LINE",
"613 1042.62 LINE",
"563.25 1092.5 LINE",
"446.75 1092.5 LINE",
"395.75 1041.25 LINE",
"450.75 985.87 LINE",
"486.87 1021.5 LINE",
"521.5 1021.5 LINE",
"525.62 1017.37 LINE",
"525.62 997.87 LINE",
"460.87 945.87 LINE",
"460.87 876.75 LINE"
);
}
);
width = 634;
}
);
leftKerningGroup = B;
note = uni1EC2;
rightKerningGroup = AE;
unicode = 1EC2;
},
{
glyphname = uni1EC4;
lastChange = "2019-09-03 16:30:53 +0000";
layers = (
{
hints = (
{
horizontal = 1;
place = "{0, 114.37}";
type = Stem;
},
{
horizontal = 1;
place = "{328.87, 114.38}";
type = Stem;
},
{
horizontal = 1;
place = "{622.62, 114.38}";
type = Stem;
},
{
horizontal = 1;
place = "{794.25, 143}";
type = Stem;
},
{
horizontal = 1;
place = "{1032.87, 75.88}";
type = Stem;
},
{
place = "{137.12, 69.88}";
type = Stem;
},
{
place = "{452.25, 69.87}";
type = Stem;
},
{
horizontal = 1;
place = "{966.87, 75.88}";
type = Stem;
},
{
place = "{80, 125.4}";
type = Stem;
}
);
layerId = "45368931-0D76-4CB6-835F-B3D628A2F0B6";
paths = (
{
closed = 1;
nodes = (
"583.75 0 LINE",
"583.75 114.37 LINE",
"205.4 114.37 LINE",
"205.4 328.87 LINE",
"550.75 328.87 LINE",
"550.75 443.25 LINE",
"205.4 443.25 LINE",
"205.4 622.62 LINE",
"583.75 622.62 LINE",
"583.75 737 LINE",
"80 737 LINE",
"80 0 LINE"
);
},
{
closed = 1;
nodes = (
"262.5 794.25 LINE",
"329.62 862.37 LINE",
"396.75 794.25 LINE",
"497.87 794.25 LINE",
"393.37 937.25 LINE",
"265.87 937.25 LINE",
"161.37 794.25 LINE"
);
},
{
closed = 1;
nodes = (
"455.62 966.87 LINE",
"521.62 1033.87 LINE",
"522.62 1105.37 LINE",
"452.25 1105.37 LINE",
"452.25 1079 LINE",
"417.12 1042.75 LINE",
"386.25 1042.75 LINE",
"317 1108.75 LINE",
"203.62 1108.75 LINE",
"137.62 1041.62 LINE",
"136.62 970.12 LINE",
"207 970.12 LINE",
"207 996.5 LINE",
"242.12 1032.87 LINE",
"273 1032.87 LINE",
"342.25 966.87 LINE"
);
}
);
width = 634;
}
);
leftKerningGroup = B;
note = uni1EC4;
rightKerningGroup = AE;
unicode = 1EC4;
},
{
glyphname = uni0204;
lastChange = "2019-10-08 20:32:04 +0000";
layers = (
{
hints = (
{
horizontal = 1;
place = "{0, 114.37}";
type = Stem;
},
{
horizontal = 1;
place = "{328.87, 114.38}";
type = Stem;
},
{
horizontal = 1;
place = "{622.62, 114.38}";
type = Stem;
},
{
horizontal = 1;
place = "{794.25, 154}";
type = Stem;
},
{
place = "{80, 125.4}";
type = Stem;
}
);
layerId = "45368931-0D76-4CB6-835F-B3D628A2F0B6";
paths = (
{
closed = 1;
nodes = (
"583.75 0 LINE",
"583.75 114.37 LINE",
"205.4 114.37 LINE",
"205.4 328.87 LINE",
"550.75 328.87 LINE",
"550.75 443.25 LINE",
"205.4 443.25 LINE",
"205.4 622.62 LINE",
"583.75 622.62 LINE",
"583.75 737 LINE",
"80 737 LINE",
"80 0 LINE"
);
},
{
closed = 1;
nodes = (
"287 794 LINE",
"186 948 LINE",
"47 948 LINE",
"186 794 LINE"
);
},
{
closed = 1;
nodes = (
"491 794 LINE",
"390 948 LINE",
"251 948 LINE",
"390 794 LINE"
);
}
);
width = 634;
}
);
leftKerningGroup = B;
note = uni0204;
rightKerningGroup = AE;
unicode = 0204;
},
{
glyphname = Edieresis;
lastChange = "2019-09-03 16:30:53 +0000";
layers = (
{
hints = (
{
horizontal = 1;
place = "{0, 114.37}";
type = Stem;
},
{
horizontal = 1;
place = "{328.87, 114.38}";
type = Stem;
},
{
horizontal = 1;
place = "{622.62, 114.38}";
type = Stem;
},
{
horizontal = 1;
place = "{794.25, 125.5}";
type = Stem;
},
{
place = "{136.62, 121}";
type = Stem;
},
{
place = "{401.62, 121}";
type = Stem;
},
{
place = "{80, 125.4}";
type = Stem;
}
);
layerId = "45368931-0D76-4CB6-835F-B3D628A2F0B6";
paths = (
{
closed = 1;
nodes = (
"583.75 0 LINE",
"583.75 114.37 LINE",
"205.4 114.37 LINE",
"205.4 328.87 LINE",
"550.75 328.87 LINE",
"550.75 443.25 LINE",
"205.4 443.25 LINE",
"205.4 622.62 LINE",
"583.75 622.62 LINE",
"583.75 737 LINE",
"80 737 LINE",
"80 0 LINE"
);
},
{
closed = 1;
nodes = (
"257.62 794.25 LINE",
"257.62 919.75 LINE",
"136.62 919.75 LINE",
"136.62 794.25 LINE"
);
},
{
closed = 1;
nodes = (
"522.62 794.25 LINE",
"522.62 919.75 LINE",
"401.62 919.75 LINE",
"401.62 794.25 LINE"
);
}
);
width = 634;
}
);
leftKerningGroup = B;
note = Edieresis;
rightKerningGroup = AE;
unicode = 00CB;
},
{
glyphname = Edotaccent;
lastChange = "2019-09-03 16:30:53 +0000";
layers = (
{
hints = (
{
horizontal = 1;
place = "{0, 114.37}";
type = Stem;
},
{
horizontal = 1;
place = "{328.87, 114.38}";
type = Stem;
},
{
horizontal = 1;
place = "{622.62, 114.38}";
type = Stem;
},
{
horizontal = 1;
place = "{794.25, 125.37}";
type = Stem;
},
{
place = "{80, 125.4}";
type = Stem;
},
{
place = "{269.12, 121}";
type = Stem;
}
);
layerId = "45368931-0D76-4CB6-835F-B3D628A2F0B6";
paths = (
{
closed = 1;
nodes = (
"583.75 0 LINE",
"583.75 114.37 LINE",
"205.4 114.37 LINE",
"205.4 328.87 LINE",
"550.75 328.87 LINE",
"550.75 443.25 LINE",
"205.4 443.25 LINE",
"205.4 622.62 LINE",
"583.75 622.62 LINE",
"583.75 737 LINE",
"80 737 LINE",
"80 0 LINE"
);
},
{
closed = 1;
nodes = (
"390.12 794.25 LINE",
"390.12 919.62 LINE",
"269.12 919.62 LINE",
"269.12 794.25 LINE"
);
}
);
width = 634;
}
);
leftKerningGroup = B;
note = Edotaccent;
rightKerningGroup = AE;
unicode = 0116;
},
{
glyphname = uni1EB8;
lastChange = "2019-09-03 16:30:53 +0000";
layers = (
{
hints = (
{
horizontal = 1;
place = "{-182.63, 125.38}";
type = Stem;
},
{
horizontal = 1;
place = "{0, 114.37}";
type = Stem;
},
{
horizontal = 1;
place = "{328.87, 114.38}";
type = Stem;
},
{
horizontal = 1;
place = "{622.62, 114.38}";
type = Stem;
},
{
place = "{80, 125.4}";
type = Stem;
},
{
place = "{269.12, 121}";
type = Stem;
}
);
layerId = "45368931-0D76-4CB6-835F-B3D628A2F0B6";
paths = (
{
closed = 1;
nodes = (
"583.75 0 LINE",
"583.75 114.37 LINE",
"205.4 114.37 LINE",
"205.4 328.87 LINE",
"550.75 328.87 LINE",
"550.75 443.25 LINE",
"205.4 443.25 LINE",
"205.4 622.62 LINE",
"583.75 622.62 LINE",
"583.75 737 LINE",
"80 737 LINE",
"80 0 LINE"
);
},
{
closed = 1;
nodes = (
"390.12 -182.63 LINE",
"390.12 -57.25 LINE",
"269.12 -57.25 LINE",
"269.12 -182.63 LINE"
);
}
);
width = 634;
}
);
leftKerningGroup = B;
note = uni1EB8;
rightKerningGroup = AE;
unicode = 1EB8;
},
{
glyphname = Egrave;
lastChange = "2019-09-03 16:30:53 +0000";
layers = (
{
hints = (
{
horizontal = 1;
place = "{0, 114.37}";
type = Stem;
},
{
horizontal = 1;
place = "{328.87, 114.38}";
type = Stem;
},
{
horizontal = 1;
place = "{622.62, 114.38}";
type = Stem;
},
{
horizontal = 1;
place = "{794.25, 154}";
type = Stem;
},
{
place = "{80, 125.4}";
type = Stem;
}
);
layerId = "45368931-0D76-4CB6-835F-B3D628A2F0B6";
paths = (
{
closed = 1;
nodes = (
"583.75 0 LINE",
"583.75 114.37 LINE",
"205.4 114.37 LINE",
"205.4 328.87 LINE",
"550.75 328.87 LINE",
"550.75 443.25 LINE",
"205.4 443.25 LINE",
"205.4 622.62 LINE",
"583.75 622.62 LINE",
"583.75 737 LINE",
"80 737 LINE",
"80 0 LINE"
);
},
{
closed = 1;
nodes = (
"375.62 794.25 LINE",
"274.5 948.25 LINE",
"135.87 948.25 LINE",
"274.5 794.25 LINE"
);
}
);
width = 634;
}
);
leftKerningGroup = B;
note = Egrave;
rightKerningGroup = AE;
unicode = 00C8;
},
{
glyphname = uni1EBA;
lastChange = "2019-09-03 16:30:53 +0000";
layers = (
{
hints = (
{
horizontal = 1;
place = "{0, 114.37}";
type = Stem;
},
{
horizontal = 1;
place = "{328.87, 114.38}";
type = Stem;
},
{
horizontal = 1;
place = "{622.62, 114.38}";
type = Stem;
},
{
horizontal = 1;
place = "{794.25, 69.12}";
type = Stem;
},
{
horizontal = 1;
place = "{939, 71}";
type = Stem;
},
{
place = "{80, 125.4}";
type = Stem;
},
{
place = "{354.12, 87.38}";
type = Stem;
},
{
place = "{289.37, 80.38}";
type = Stem;
}
);
layerId = "45368931-0D76-4CB6-835F-B3D628A2F0B6";
paths = (
{
closed = 1;
nodes = (
"583.75 0 LINE",
"583.75 114.37 LINE",
"205.4 114.37 LINE",
"205.4 328.87 LINE",
"550.75 328.87 LINE",
"550.75 443.25 LINE",
"205.4 443.25 LINE",
"205.4 622.62 LINE",
"583.75 622.62 LINE",
"583.75 737 LINE",
"80 737 LINE",
"80 0 LINE"
);
},
{
closed = 1;
nodes = (
"369.75 794.25 LINE",
"369.75 830.37 LINE",
"441.5 884.75 LINE",
"441.5 960.12 LINE",
"391.75 1010 LINE",
"275.25 1010 LINE",
"224.25 958.75 LINE",
"279.25 903.37 LINE",
"315.37 939 LINE",
"350 939 LINE",
"354.12 934.87 LINE",
"354.12 915.37 LINE",
"289.37 863.37 LINE",
"289.37 794.25 LINE"
);
}
);
width = 634;
}
);
leftKerningGroup = B;
note = uni1EBA;
rightKerningGroup = AE;
unicode = 1EBA;
},
{
glyphname = uni0206;
lastChange = "2019-09-03 16:30:53 +0000";
layers = (
{
hints = (
{
horizontal = 1;
place = "{0, 114.37}";
type = Stem;
},
{
horizontal = 1;
place = "{328.87, 114.38}";
type = Stem;
},
{
horizontal = 1;
place = "{622.62, 114.38}";
type = Stem;
},
{
horizontal = 1;
place = "{859.12, 78.13}";
type = Stem;
},
{
place = "{178.87, 80.38}";
type = Stem;
},
{
place = "{400, 80.37}";
type = Stem;
},
{
place = "{80, 125.4}";
type = Stem;
}
);
layerId = "45368931-0D76-4CB6-835F-B3D628A2F0B6";
paths = (
{
closed = 1;
nodes = (
"583.75 0 LINE",
"583.75 114.37 LINE",
"205.4 114.37 LINE",
"205.4 328.87 LINE",
"550.75 328.87 LINE",
"550.75 443.25 LINE",
"205.4 443.25 LINE",
"205.4 622.62 LINE",
"583.75 622.62 LINE",
"583.75 737 LINE",
"80 737 LINE",
"80 0 LINE"
);
},
{
closed = 1;
nodes = (
"259.25 794.25 LINE",
"259.25 838.25 LINE",
"280.12 859.12 LINE",
"379.12 859.12 LINE",
"400 838.25 LINE",
"400 794.25 LINE",
"480.37 794.25 LINE",
"480.37 867.87 LINE",
"411 937.25 LINE",
"248.25 937.25 LINE",
"178.87 867.87 LINE",
"178.87 794.25 LINE"
);
}
);
width = 634;
}
);
leftKerningGroup = B;
note = uni0206;
rightKerningGroup = AE;
unicode = 0206;
},
{
glyphname = Emacron;
lastChange = "2019-09-03 16:30:53 +0000";
layers = (
{
hints = (
{
horizontal = 1;
place = "{0, 114.37}";
type = Stem;
},
{
horizontal = 1;
place = "{328.87, 114.38}";
type = Stem;
},
{
horizontal = 1;
place = "{622.62, 114.38}";
type = Stem;
},
{
horizontal = 1;
place = "{794.25, 90.12}";
type = Stem;
},
{
place = "{80, 125.4}";
type = Stem;
}
);
layerId = "45368931-0D76-4CB6-835F-B3D628A2F0B6";
paths = (
{
closed = 1;
nodes = (
"583.75 0 LINE",
"583.75 114.37 LINE",
"205.4 114.37 LINE",
"205.4 328.87 LINE",
"550.75 328.87 LINE",
"550.75 443.25 LINE",
"205.4 443.25 LINE",
"205.4 622.62 LINE",
"583.75 622.62 LINE",
"583.75 737 LINE",
"80 737 LINE",
"80 0 LINE"
);
},
{
closed = 1;
nodes = (
"522.62 794.25 LINE",
"522.62 884.37 LINE",
"136.62 884.37 LINE",
"136.62 794.25 LINE"
);
}
);
width = 634;
}
);
leftKerningGroup = B;
note = Emacron;
rightKerningGroup = AE;
unicode = 0112;
},
{
glyphname = Eogonek;
lastChange = "2019-09-03 16:30:53 +0000";
layers = (
{
hints = (
{
horizontal = 1;
place = "{-171.63, 81.38}";
type = Stem;
},
{
horizontal = 1;
place = "{0, 114.37}";
type = Stem;
},
{
horizontal = 1;
place = "{328.87, 114.38}";
type = Stem;
},
{
horizontal = 1;
place = "{622.62, 114.38}";
type = Stem;
},
{
place = "{80, 125.4}";
type = Stem;
},
{
place = "{455, 128.75}";
type = Stem;
}
);
layerId = "45368931-0D76-4CB6-835F-B3D628A2F0B6";
paths = (
{
closed = 1;
nodes = (
"583.75 -171.63 LINE",
"583.75 -90.25 LINE",
"551.87 -90.25 LINE",
"530.87 -69.25 LINE",
"530.87 -38.5 LINE",
"583.75 0 LINE",
"583.75 114.37 LINE",
"205.4 114.37 LINE",
"205.4 328.87 LINE",
"550.75 328.87 LINE",
"550.75 443.25 LINE",
"205.4 443.25 LINE",
"205.4 622.62 LINE",
"583.75 622.62 LINE",
"583.75 737 LINE",
"80 737 LINE",
"80 0 LINE",
"500.12 0 LINE",
"455 -33 LINE",
"455 -107.75 LINE",
"518.87 -171.63 LINE"
);
}
);
width = 634;
}
);
leftKerningGroup = B;
note = Eogonek;
rightKerningGroup = AE;
unicode = 0118;
},
{
glyphname = uni1EBC;
lastChange = "2019-09-03 16:30:53 +0000";
layers = (
{
hints = (
{
horizontal = 1;
place = "{0, 114.37}";
type = Stem;
},
{
horizontal = 1;
place = "{328.87, 114.38}";
type = Stem;
},
{
horizontal = 1;
place = "{622.62, 114.38}";
type = Stem;
},
{
horizontal = 1;
place = "{860.25, 75.87}";
type = Stem;
},
{
place = "{139.87, 69.88}";
type = Stem;
},
{
place = "{455, 69.87}";
type = Stem;
},
{
horizontal = 1;
place = "{794.25, 75.87}";
type = Stem;
},
{
place = "{80, 125.4}";
type = Stem;
}
);
layerId = "45368931-0D76-4CB6-835F-B3D628A2F0B6";
paths = (
{
closed = 1;
nodes = (
"583.75 0 LINE",
"583.75 114.37 LINE",
"205.4 114.37 LINE",
"205.4 328.87 LINE",
"550.75 328.87 LINE",
"550.75 443.25 LINE",
"205.4 443.25 LINE",
"205.4 622.62 LINE",
"583.75 622.62 LINE",
"583.75 737 LINE",
"80 737 LINE",
"80 0 LINE"
);
},
{
closed = 1;
nodes = (
"458.37 794.25 LINE",
"524.37 861.25 LINE",
"525.37 932.75 LINE",
"455 932.75 LINE",
"455 906.37 LINE",
"419.87 870.12 LINE",
"389 870.12 LINE",
"319.75 936.12 LINE",
"206.37 936.12 LINE",
"140.37 869 LINE",
"139.37 797.5 LINE",
"209.75 797.5 LINE",
"209.75 823.87 LINE",
"244.87 860.25 LINE",
"275.75 860.25 LINE",
"345 794.25 LINE"
);
}
);
width = 634;
}
);
leftKerningGroup = B;
note = uni1EBC;
rightKerningGroup = AE;
unicode = 1EBC;
},
{
glyphname = F;
lastChange = "2019-09-03 16:30:53 +0000";
layers = (
{
hints = (
{
horizontal = 1;
place = "{315.75, 114.37}";
type = Stem;
},
{
horizontal = 1;
place = "{622.62, 114.38}";
type = Stem;
},
{
place = "{80, 125.4}";
type = Stem;
}
);
layerId = "45368931-0D76-4CB6-835F-B3D628A2F0B6";
paths = (
{
closed = 1;
nodes = (
"205.4 0 LINE",
"205.4 315.75 LINE",
"528.75 315.75 LINE",
"528.75 430.12 LINE",
"205.4 430.12 LINE",
"205.4 622.62 LINE",
"572.75 622.62 LINE",
"572.75 737 LINE",
"80 737 LINE",
"80 0 LINE"
);
}
);
width = 583;
}
);
leftKerningGroup = B;
note = F;
rightKerningGroup = F;
unicode = 0046;
},
{
glyphname = G;
lastChange = "2019-09-03 16:30:53 +0000";
layers = (
{
hints = (
{
horizontal = 1;
place = "{0, 109.88}";
type = Stem;
},
{
horizontal = 1;
place = "{294.75, 110}";
type = Stem;
},
{
horizontal = 1;
place = "{626.88, 110.12}";
type = Stem;
},
{
place = "{60, 125.37}";
type = Stem;
},
{
place = "{536.37, 103.38}";
type = Stem;
}
);
layerId = "45368931-0D76-4CB6-835F-B3D628A2F0B6";
paths = (
{
closed = 1;
nodes = (
"451.62 0 LINE",
"536.37 75.69 LINE",
"536.37 0 LINE",
"639.75 0 LINE",
"639.75 404.75 LINE",
"368 404.75 LINE",
"368 294.75 LINE",
"536.37 294.75 LINE",
"536.37 212.9 LINE",
"420.87 110 LINE",
"229.37 109.75 LINE",
"185.62 154 LINE",
"185.12 583 LINE",
"229.37 626.75 LINE",
"486.87 627 LINE",
"559.37 555.5 LINE",
"638.62 635.75 LINE",
"537.37 737 LINE",
"171.12 737 LINE",
"60 625.87 LINE",
"60 111.12 LINE",
"168.12 0 LINE"
);
}
);
width = 720;
}
);
leftKerningGroup = C;
note = G;
rightKerningGroup = G;
unicode = 0047;
},
{
glyphname = Gbreve;
lastChange = "2019-09-03 16:30:53 +0000";
layers = (
{
hints = (
{
horizontal = 1;
place = "{0, 109.88}";
type = Stem;
},
{
horizontal = 1;
place = "{294.75, 110}";
type = Stem;
},
{
horizontal = 1;
place = "{626.88, 110.12}";
type = Stem;
},
{
horizontal = 1;
place = "{794.25, 78}";
type = Stem;
},
{
place = "{60, 125.37}";
type = Stem;
},
{
place = "{424.62, 80.38}";
type = Stem;
},
{
place = "{536.37, 103.38}";
type = Stem;
},
{
place = "{203.5, 80.37}";
type = Stem;
}
);
layerId = "45368931-0D76-4CB6-835F-B3D628A2F0B6";
paths = (
{
closed = 1;
nodes = (
"451.62 0 LINE",
"536.37 75.69 LINE",
"536.37 0 LINE",
"639.75 0 LINE",
"639.75 404.75 LINE",
"368 404.75 LINE",
"368 294.75 LINE",
"536.37 294.75 LINE",
"536.37 212.9 LINE",
"420.87 110 LINE",
"229.37 109.75 LINE",
"185.62 154 LINE",
"185.12 583 LINE",
"229.37 626.75 LINE",
"486.87 627 LINE",
"559.37 555.5 LINE",
"638.62 635.75 LINE",
"537.37 737 LINE",
"171.12 737 LINE",
"60 625.87 LINE",
"60 111.12 LINE",
"168.12 0 LINE"
);
},
{
closed = 1;
nodes = (
"435.62 794.25 LINE",
"505 863.5 LINE",
"505 937.25 LINE",
"424.62 937.25 LINE",
"424.62 893.25 LINE",
"403.75 872.25 LINE",
"304.75 872.25 LINE",
"283.87 893.25 LINE",
"283.87 937.25 LINE",
"203.5 937.25 LINE",
"203.5 863.5 LINE",
"272.87 794.25 LINE"
);
}
);
width = 720;
}
);
leftKerningGroup = C;
note = Gbreve;
rightKerningGroup = G;
unicode = 011E;
},
{
glyphname = Gcaron;
lastChange = "2019-09-03 16:30:53 +0000";
layers = (
{
hints = (
{
horizontal = 1;
place = "{0, 109.88}";
type = Stem;
},
{
horizontal = 1;
place = "{294.75, 110}";
type = Stem;
},
{
horizontal = 1;
place = "{626.88, 110.12}";
type = Stem;
},
{
horizontal = 1;
place = "{794.25, 143}";
type = Stem;
},
{
place = "{60, 125.37}";
type = Stem;
},
{
place = "{536.37, 103.38}";
type = Stem;
}
);
layerId = "45368931-0D76-4CB6-835F-B3D628A2F0B6";
paths = (
{
closed = 1;
nodes = (
"451.62 0 LINE",
"536.37 75.69 LINE",
"536.37 0 LINE",
"639.75 0 LINE",
"639.75 404.75 LINE",
"368 404.75 LINE",
"368 294.75 LINE",
"536.37 294.75 LINE",
"536.37 212.9 LINE",
"420.87 110 LINE",
"229.37 109.75 LINE",
"185.62 154 LINE",
"185.12 583 LINE",
"229.37 626.75 LINE",
"486.87 627 LINE",
"559.37 555.5 LINE",
"638.62 635.75 LINE",
"537.37 737 LINE",
"171.12 737 LINE",
"60 625.87 LINE",
"60 111.12 LINE",
"168.12 0 LINE"
);
},
{
closed = 1;
nodes = (
"418 794.25 LINE",
"522.5 937.25 LINE",
"421.37 937.25 LINE",
"354.25 869.12 LINE",
"287.12 937.25 LINE",
"186 937.25 LINE",
"290.5 794.25 LINE"
);
}
);
width = 720;
}
);
leftKerningGroup = C;
note = Gcaron;
rightKerningGroup = G;
unicode = 01E6;
},
{
glyphname = Gcircumflex;
lastChange = "2019-09-03 16:30:53 +0000";
layers = (
{
hints = (
{
horizontal = 1;
place = "{0, 109.88}";
type = Stem;
},
{
horizontal = 1;
place = "{294.75, 110}";
type = Stem;
},
{
horizontal = 1;
place = "{626.88, 110.12}";
type = Stem;
},
{
horizontal = 1;
place = "{794.25, 143}";
type = Stem;
},
{
place = "{60, 125.37}";
type = Stem;
},
{
place = "{536.37, 103.38}";
type = Stem;
}
);
layerId = "45368931-0D76-4CB6-835F-B3D628A2F0B6";
paths = (
{
closed = 1;
nodes = (
"451.62 0 LINE",
"536.37 75.69 LINE",
"536.37 0 LINE",
"639.75 0 LINE",
"639.75 404.75 LINE",
"368 404.75 LINE",
"368 294.75 LINE",
"536.37 294.75 LINE",
"536.37 212.9 LINE",
"420.87 110 LINE",
"229.37 109.75 LINE",
"185.62 154 LINE",
"185.12 583 LINE",
"229.37 626.75 LINE",
"486.87 627 LINE",
"559.37 555.5 LINE",
"638.62 635.75 LINE",
"537.37 737 LINE",
"171.12 737 LINE",
"60 625.87 LINE",
"60 111.12 LINE",
"168.12 0 LINE"
);
},
{
closed = 1;
nodes = (
"287.12 794.25 LINE",
"354.25 862.37 LINE",
"421.37 794.25 LINE",
"522.5 794.25 LINE",
"418 937.25 LINE",
"290.5 937.25 LINE",
"186 794.25 LINE"
);
}
);
width = 720;
}
);
leftKerningGroup = C;
note = Gcircumflex;
rightKerningGroup = G;
unicode = 011C;
},
{
glyphname = uni0122;
lastChange = "2019-09-03 16:30:53 +0000";
layers = (
{
hints = (
{
horizontal = 1;
place = "{-239.75, 182.5}";
type = Stem;
},
{
horizontal = 1;
place = "{0, 109.88}";
type = Stem;
},
{
horizontal = 1;
place = "{294.75, 110}";
type = Stem;
},
{
horizontal = 1;
place = "{626.88, 110.12}";
type = Stem;
},
{
place = "{60, 125.37}";
type = Stem;
},
{
place = "{536.37, 103.38}";
type = Stem;
}
);
layerId = "45368931-0D76-4CB6-835F-B3D628A2F0B6";
paths = (
{
closed = 1;
nodes = (
"451.62 0 LINE",
"536.37 75.69 LINE",
"536.37 0 LINE",
"639.75 0 LINE",
"639.75 404.75 LINE",
"368 404.75 LINE",
"368 294.75 LINE",
"536.37 294.75 LINE",
"536.37 212.9 LINE",
"420.87 110 LINE",
"229.37 109.75 LINE",
"185.62 154 LINE",
"185.12 583 LINE",
"229.37 626.75 LINE",
"486.87 627 LINE",
"559.37 555.5 LINE",
"638.62 635.75 LINE",
"537.37 737 LINE",
"171.12 737 LINE",
"60 625.87 LINE",
"60 111.12 LINE",
"168.12 0 LINE"
);
},
{
closed = 1;
nodes = (
"293.62 -239.75 LINE",
"385 -57.25 LINE",
"267.25 -57.25 LINE",
"226.62 -239.75 LINE"
);
}
);
width = 720;
}
);
leftKerningGroup = C;
note = uni0122;
rightKerningGroup = G;
unicode = 0122;
},
{
glyphname = Gdotaccent;
lastChange = "2019-09-03 16:30:53 +0000";
layers = (
{
hints = (
{
horizontal = 1;
place = "{0, 109.88}";
type = Stem;
},
{
horizontal = 1;
place = "{294.75, 110}";
type = Stem;
},
{
horizontal = 1;
place = "{626.88, 110.12}";
type = Stem;
},
{
horizontal = 1;
place = "{794.25, 125.37}";
type = Stem;
},
{
place = "{60, 125.37}";
type = Stem;
},
{
place = "{293.75, 121}";
type = Stem;
},
{
place = "{536.37, 103.38}";
type = Stem;
}
);
layerId = "45368931-0D76-4CB6-835F-B3D628A2F0B6";
paths = (
{
closed = 1;
nodes = (
"451.62 0 LINE",
"536.37 75.69 LINE",
"536.37 0 LINE",
"639.75 0 LINE",
"639.75 404.75 LINE",
"368 404.75 LINE",
"368 294.75 LINE",
"536.37 294.75 LINE",
"536.37 212.9 LINE",
"420.87 110 LINE",
"229.37 109.75 LINE",
"185.62 154 LINE",
"185.12 583 LINE",
"229.37 626.75 LINE",
"486.87 627 LINE",
"559.37 555.5 LINE",
"638.62 635.75 LINE",
"537.37 737 LINE",
"171.12 737 LINE",
"60 625.87 LINE",
"60 111.12 LINE",
"168.12 0 LINE"
);
},
{
closed = 1;
nodes = (
"414.75 794.25 LINE",
"414.75 919.62 LINE",
"293.75 919.62 LINE",
"293.75 794.25 LINE"
);
}
);
width = 720;
}
);
leftKerningGroup = C;
note = Gdotaccent;
rightKerningGroup = G;
unicode = 0120;
},
{
glyphname = H;
lastChange = "2019-09-03 16:30:53 +0000";
layers = (
{
hints = (
{
horizontal = 1;
place = "{331.12, 110}";
type = Stem;
},
{
place = "{80, 125.4}";
type = Stem;
},
{
place = "{527.62, 125.4}";
type = Stem;
}
);
layerId = "45368931-0D76-4CB6-835F-B3D628A2F0B6";
paths = (
{
closed = 1;
nodes = (
"205.4 0 LINE",
"205.4 331.12 LINE",
"527.62 331.12 LINE",
"527.62 0 LINE",
"653.02 0 LINE",
"653.02 737 LINE",
"527.62 737 LINE",
"527.62 441.12 LINE",
"205.4 441.12 LINE",
"205.4 737 LINE",
"80 737 LINE",
"80 0 LINE"
);
}
);
width = 733;
}
);
leftKerningGroup = B;
note = H;
rightKerningGroup = H;
unicode = 0048;
},
{
glyphname = Hbar;
lastChange = "2019-09-03 16:30:53 +0000";
layers = (
{
hints = (
{
horizontal = 1;
place = "{331.12, 110}";
type = Stem;
},
{
horizontal = 1;
place = "{533.75, 99}";
type = Stem;
},
{
place = "{80, 125.4}";
type = Stem;
},
{
place = "{527.62, 125.4}";
type = Stem;
}
);
layerId = "45368931-0D76-4CB6-835F-B3D628A2F0B6";
paths = (
{
closed = 1;
nodes = (
"205.4 0 LINE",
"205.4 331.12 LINE",
"527.62 331.12 LINE",
"527.62 0 LINE",
"653.02 0 LINE",
"653.02 533.75 LINE",
"714 533.75 LINE",
"714 632.75 LINE",
"653.02 632.75 LINE",
"653.02 737 LINE",
"527.62 737 LINE",
"527.62 632.75 LINE",
"205.4 632.75 LINE",
"205.4 737 LINE",
"80 737 LINE",
"80 632.75 LINE",
"19 632.75 LINE",
"19 533.75 LINE",
"80 533.75 LINE",
"80 0 LINE"
);
},
{
closed = 1;
nodes = (
"205.4 533.75 LINE",
"527.62 533.75 LINE",
"527.62 441.12 LINE",
"205.4 441.12 LINE"
);
}
);
width = 733;
}
);
leftKerningGroup = B;
note = Hbar;
rightKerningGroup = H;
unicode = 0126;
},
{
glyphname = Hcircumflex;
lastChange = "2019-09-03 16:30:53 +0000";
layers = (
{
hints = (
{
horizontal = 1;
place = "{331.12, 110}";
type = Stem;
},
{
horizontal = 1;
place = "{794.25, 143}";
type = Stem;
},
{
place = "{80, 125.4}";
type = Stem;
},
{
place = "{527.62, 125.4}";
type = Stem;
}
);
layerId = "45368931-0D76-4CB6-835F-B3D628A2F0B6";
paths = (
{
closed = 1;
nodes = (
"205.4 0 LINE",
"205.4 331.12 LINE",
"527.62 331.12 LINE",
"527.62 0 LINE",
"653.02 0 LINE",
"653.02 737 LINE",
"527.62 737 LINE",
"527.62 441.12 LINE",
"205.4 441.12 LINE",
"205.4 737 LINE",
"80 737 LINE",
"80 0 LINE"
);
},
{
closed = 1;
nodes = (
"305.5 794.25 LINE",
"372.62 862.37 LINE",
"439.75 794.25 LINE",
"540.87 794.25 LINE",
"436.37 937.25 LINE",
"308.87 937.25 LINE",
"204.37 794.25 LINE"
);
}
);
width = 733;
}
);
leftKerningGroup = B;
note = Hcircumflex;
rightKerningGroup = H;
unicode = 0124;
},
{
glyphname = I;
lastChange = "2019-09-03 16:30:53 +0000";
layers = (
{
hints = (
{
horizontal = 1;
place = "{0, 114.37}";
type = Stem;
},
{
horizontal = 1;
place = "{622.62, 114.38}";
type = Stem;
},
{
place = "{134.75, 125.4}";
type = Stem;
}
);
layerId = "45368931-0D76-4CB6-835F-B3D628A2F0B6";
paths = (
{
closed = 1;
nodes = (
"335 0 LINE",
"335 114.37 LINE",
"260.15 114.37 LINE",
"260.15 622.62 LINE",
"335 622.62 LINE",
"335 737 LINE",
"60 737 LINE",
"60 622.62 LINE",
"134.75 622.62 LINE",
"134.75 114.37 LINE",
"60 114.37 LINE",
"60 0 LINE"
);
}
);
width = 395;
}
);
leftKerningGroup = B;
note = I;
rightKerningGroup = H;
unicode = 0049;
},
{
glyphname = Iacute;
lastChange = "2019-09-03 16:30:53 +0000";
layers = (
{
hints = (
{
horizontal = 1;
place = "{0, 114.37}";
type = Stem;
},
{
horizontal = 1;
place = "{622.62, 114.38}";
type = Stem;
},
{
horizontal = 1;
place = "{794.25, 154}";
type = Stem;
},
{
place = "{134.75, 125.4}";
type = Stem;
}
);
layerId = "45368931-0D76-4CB6-835F-B3D628A2F0B6";
paths = (
{
closed = 1;
nodes = (
"335 0 LINE",
"335 114.37 LINE",
"260.15 114.37 LINE",
"260.15 622.62 LINE",
"335 622.62 LINE",
"335 737 LINE",
"60 737 LINE",
"60 622.62 LINE",
"134.75 622.62 LINE",
"134.75 114.37 LINE",
"60 114.37 LINE",
"60 0 LINE"
);
},
{
closed = 1;
nodes = (
"248 794.25 LINE",
"386.62 948.25 LINE",
"248 948.25 LINE",
"146.87 794.25 LINE"
);
}
);
width = 395;
}
);
leftKerningGroup = B;
note = Iacute;
rightKerningGroup = H;
unicode = 00CD;
},
{
glyphname = Ibreve;
lastChange = "2019-09-03 16:30:53 +0000";
layers = (
{
hints = (
{
horizontal = 1;
place = "{0, 114.37}";
type = Stem;
},
{
horizontal = 1;
place = "{622.62, 114.38}";
type = Stem;
},
{
horizontal = 1;
place = "{794.25, 78}";
type = Stem;
},
{
place = "{46.75, 80.37}";
type = Stem;
},
{
place = "{134.75, 125.4}";
type = Stem;
},
{
place = "{267.87, 80.38}";
type = Stem;
}
);
layerId = "45368931-0D76-4CB6-835F-B3D628A2F0B6";
paths = (
{
closed = 1;
nodes = (
"335 0 LINE",
"335 114.37 LINE",
"260.15 114.37 LINE",
"260.15 622.62 LINE",
"335 622.62 LINE",
"335 737 LINE",
"60 737 LINE",
"60 622.62 LINE",
"134.75 622.62 LINE",
"134.75 114.37 LINE",
"60 114.37 LINE",
"60 0 LINE"
);
},
{
closed = 1;
nodes = (
"278.87 794.25 LINE",
"348.25 863.5 LINE",
"348.25 937.25 LINE",
"267.87 937.25 LINE",
"267.87 893.25 LINE",
"247 872.25 LINE",
"148 872.25 LINE",
"127.12 893.25 LINE",
"127.12 937.25 LINE",
"46.75 937.25 LINE",
"46.75 863.5 LINE",
"116.12 794.25 LINE"
);
}
);
width = 395;
}
);
leftKerningGroup = B;
note = Ibreve;
rightKerningGroup = H;
unicode = 012C;
},
{
glyphname = Icircumflex;
lastChange = "2019-09-03 16:30:53 +0000";
layers = (
{
hints = (
{
horizontal = 1;
place = "{0, 114.37}";
type = Stem;
},
{
horizontal = 1;
place = "{622.62, 114.38}";
type = Stem;
},
{
horizontal = 1;
place = "{794.25, 143}";
type = Stem;
},
{
place = "{134.75, 125.4}";
type = Stem;
}
);
layerId = "45368931-0D76-4CB6-835F-B3D628A2F0B6";
paths = (
{
closed = 1;
nodes = (
"335 0 LINE",
"335 114.37 LINE",
"260.15 114.37 LINE",
"260.15 622.62 LINE",
"335 622.62 LINE",
"335 737 LINE",
"60 737 LINE",
"60 622.62 LINE",
"134.75 622.62 LINE",
"134.75 114.37 LINE",
"60 114.37 LINE",
"60 0 LINE"
);
},
{
closed = 1;
nodes = (
"130.37 794.25 LINE",
"197.5 862.37 LINE",
"264.62 794.25 LINE",
"365.75 794.25 LINE",
"261.25 937.25 LINE",
"133.75 937.25 LINE",
"29.25 794.25 LINE"
);
}
);
width = 395;
}
);
leftKerningGroup = B;
note = Icircumflex;
rightKerningGroup = H;
unicode = 00CE;
},
{
glyphname = uni0208;
lastChange = "2019-10-08 20:32:47 +0000";
layers = (
{
hints = (
{
horizontal = 1;
place = "{0, 114.37}";
type = Stem;
},
{
horizontal = 1;
place = "{622.62, 114.38}";
type = Stem;
},
{
horizontal = 1;
place = "{794.25, 154}";
type = Stem;
},
{
place = "{134.75, 125.4}";
type = Stem;
}
);
layerId = "45368931-0D76-4CB6-835F-B3D628A2F0B6";
paths = (
{
closed = 1;
nodes = (
"335 0 LINE",
"335 114.37 LINE",
"260.15 114.37 LINE",
"260.15 622.62 LINE",
"335 622.62 LINE",
"335 737 LINE",
"60 737 LINE",
"60 622.62 LINE",
"134.75 622.62 LINE",
"134.75 114.37 LINE",
"60 114.37 LINE",
"60 0 LINE"
);
},
{
closed = 1;
nodes = (
"154 794 LINE",
"53 948 LINE",
"-86 948 LINE",
"53 794 LINE"
);
},
{
closed = 1;
nodes = (
"359 794 LINE",
"258 948 LINE",
"119 948 LINE",
"258 794 LINE"
);
}
);
width = 395;
}
);
leftKerningGroup = B;
note = uni0208;
rightKerningGroup = H;
unicode = 0208;
},
{
glyphname = Idieresis;
lastChange = "2019-09-03 16:30:53 +0000";
layers = (
{
hints = (
{
horizontal = 1;
place = "{0, 114.37}";
type = Stem;
},
{
horizontal = 1;
place = "{622.62, 114.38}";
type = Stem;
},
{
horizontal = 1;
place = "{794.25, 125.5}";
type = Stem;
},
{
place = "{4.5, 121}";
type = Stem;
},
{
place = "{134.75, 125.4}";
type = Stem;
},
{
place = "{269.5, 121}";
type = Stem;
}
);
layerId = "45368931-0D76-4CB6-835F-B3D628A2F0B6";
paths = (
{
closed = 1;
nodes = (
"335 0 LINE",
"335 114.37 LINE",
"260.15 114.37 LINE",
"260.15 622.62 LINE",
"335 622.62 LINE",
"335 737 LINE",
"60 737 LINE",
"60 622.62 LINE",
"134.75 622.62 LINE",
"134.75 114.37 LINE",
"60 114.37 LINE",
"60 0 LINE"
);
},
{
closed = 1;
nodes = (
"125.5 794.25 LINE",
"125.5 919.75 LINE",
"4.5 919.75 LINE",
"4.5 794.25 LINE"
);
},
{
closed = 1;
nodes = (
"390.5 794.25 LINE",
"390.5 919.75 LINE",
"269.5 919.75 LINE",
"269.5 794.25 LINE"
);
}
);
width = 395;
}
);
leftKerningGroup = B;
note = Idieresis;
rightKerningGroup = H;
unicode = 00CF;
},
{
glyphname = Idotaccent;
lastChange = "2019-09-03 16:30:53 +0000";
layers = (
{
hints = (
{
horizontal = 1;
place = "{0, 114.37}";
type = Stem;
},
{
horizontal = 1;
place = "{622.62, 114.38}";
type = Stem;
},
{
horizontal = 1;
place = "{794.25, 125.37}";
type = Stem;
},
{
place = "{137, 121}";
type = Stem;
},
{
place = "{134.75, 125.4}";
type = Stem;
}
);
layerId = "45368931-0D76-4CB6-835F-B3D628A2F0B6";
paths = (
{
closed = 1;
nodes = (
"335 0 LINE",
"335 114.37 LINE",
"260.15 114.37 LINE",
"260.15 622.62 LINE",
"335 622.62 LINE",
"335 737 LINE",
"60 737 LINE",
"60 622.62 LINE",
"134.75 622.62 LINE",
"134.75 114.37 LINE",
"60 114.37 LINE",
"60 0 LINE"
);
},
{
closed = 1;
nodes = (
"258 794.25 LINE",
"258 919.62 LINE",
"137 919.62 LINE",
"137 794.25 LINE"
);
}
);
width = 395;
}
);
leftKerningGroup = B;
note = Idotaccent;
rightKerningGroup = H;
unicode = 0130;
},
{
glyphname = uni1ECA;
lastChange = "2019-09-03 16:30:53 +0000";
layers = (
{
hints = (
{
horizontal = 1;
place = "{-182.63, 125.38}";
type = Stem;
},
{
horizontal = 1;
place = "{0, 114.37}";
type = Stem;
},
{
horizontal = 1;
place = "{622.62, 114.38}";
type = Stem;
},
{
place = "{134.75, 125.4}";
type = Stem;
},
{
place = "{137, 121}";
type = Stem;
}
);
layerId = "45368931-0D76-4CB6-835F-B3D628A2F0B6";
paths = (
{
closed = 1;
nodes = (
"335 0 LINE",
"335 114.37 LINE",
"260.15 114.37 LINE",
"260.15 622.62 LINE",
"335 622.62 LINE",
"335 737 LINE",
"60 737 LINE",
"60 622.62 LINE",
"134.75 622.62 LINE",
"134.75 114.37 LINE",
"60 114.37 LINE",
"60 0 LINE"
);
},
{
closed = 1;
nodes = (
"258 -182.63 LINE",
"258 -57.25 LINE",
"137 -57.25 LINE",
"137 -182.63 LINE"
);
}
);
width = 395;
}
);
leftKerningGroup = B;
note = uni1ECA;
rightKerningGroup = H;
unicode = 1ECA;
},
{
glyphname = Igrave;
lastChange = "2019-09-03 16:30:53 +0000";
layers = (
{
hints = (
{
horizontal = 1;
place = "{0, 114.37}";
type = Stem;
},
{
horizontal = 1;
place = "{622.62, 114.38}";
type = Stem;
},
{
horizontal = 1;
place = "{794.25, 154}";
type = Stem;
},
{
place = "{134.75, 125.4}";
type = Stem;
}
);
layerId = "45368931-0D76-4CB6-835F-B3D628A2F0B6";
paths = (
{
closed = 1;
nodes = (
"335 0 LINE",
"335 114.37 LINE",
"260.15 114.37 LINE",
"260.15 622.62 LINE",
"335 622.62 LINE",
"335 737 LINE",
"60 737 LINE",
"60 622.62 LINE",
"134.75 622.62 LINE",
"134.75 114.37 LINE",
"60 114.37 LINE",
"60 0 LINE"
);
},
{
closed = 1;
nodes = (
"243.5 794.25 LINE",
"142.37 948.25 LINE",
"3.75 948.25 LINE",
"142.37 794.25 LINE"
);
}
);
width = 395;
}
);
leftKerningGroup = B;
note = Igrave;
rightKerningGroup = H;
unicode = 00CC;
},
{
glyphname = uni1EC8;
lastChange = "2019-09-03 16:30:53 +0000";
layers = (
{
hints = (
{
horizontal = 1;
place = "{0, 114.37}";
type = Stem;
},
{
horizontal = 1;
place = "{622.62, 114.38}";
type = Stem;
},
{
horizontal = 1;
place = "{794.25, 69.12}";
type = Stem;
},
{
horizontal = 1;
place = "{939, 71}";
type = Stem;
},
{
place = "{222, 87.37}";
type = Stem;
},
{
place = "{157.25, 80.37}";
type = Stem;
},
{
place = "{134.75, 125.4}";
type = Stem;
}
);
layerId = "45368931-0D76-4CB6-835F-B3D628A2F0B6";
paths = (
{
closed = 1;
nodes = (
"335 0 LINE",
"335 114.37 LINE",
"260.15 114.37 LINE",
"260.15 622.62 LINE",
"335 622.62 LINE",
"335 737 LINE",
"60 737 LINE",
"60 622.62 LINE",
"134.75 622.62 LINE",
"134.75 114.37 LINE",
"60 114.37 LINE",
"60 0 LINE"
);
},
{
closed = 1;
nodes = (
"237.62 794.25 LINE",
"237.62 830.37 LINE",
"309.37 884.75 LINE",
"309.37 960.12 LINE",
"259.62 1010 LINE",
"143.12 1010 LINE",
"92.12 958.75 LINE",
"147.12 903.37 LINE",
"183.25 939 LINE",
"217.87 939 LINE",
"222 934.87 LINE",
"222 915.37 LINE",
"157.25 863.37 LINE",
"157.25 794.25 LINE"
);
}
);
width = 395;
}
);
leftKerningGroup = B;
note = uni1EC8;
rightKerningGroup = H;
unicode = 1EC8;
},
{
glyphname = uni020A;
lastChange = "2019-09-03 16:30:53 +0000";
layers = (
{
hints = (
{
horizontal = 1;
place = "{0, 114.37}";
type = Stem;
},
{
horizontal = 1;
place = "{622.62, 114.38}";
type = Stem;
},
{
horizontal = 1;
place = "{859.12, 78.13}";
type = Stem;
},
{
place = "{134.75, 125.4}";
type = Stem;
},
{
place = "{46.75, 80.37}";
type = Stem;
},
{
place = "{267.87, 80.38}";
type = Stem;
}
);
layerId = "45368931-0D76-4CB6-835F-B3D628A2F0B6";
paths = (
{
closed = 1;
nodes = (
"335 0 LINE",
"335 114.37 LINE",
"260.15 114.37 LINE",
"260.15 622.62 LINE",
"335 622.62 LINE",
"335 737 LINE",
"60 737 LINE",
"60 622.62 LINE",
"134.75 622.62 LINE",
"134.75 114.37 LINE",
"60 114.37 LINE",
"60 0 LINE"
);
},
{
closed = 1;
nodes = (
"127.12 794.25 LINE",
"127.12 838.25 LINE",
"148 859.12 LINE",
"247 859.12 LINE",
"267.87 838.25 LINE",
"267.87 794.25 LINE",
"348.25 794.25 LINE",
"348.25 867.87 LINE",
"278.87 937.25 LINE",
"116.12 937.25 LINE",
"46.75 867.87 LINE",
"46.75 794.25 LINE"
);
}
);
width = 395;
}
);
leftKerningGroup = B;
note = uni020A;
rightKerningGroup = H;
unicode = 020A;
},
{
glyphname = Imacron;
lastChange = "2019-09-03 16:30:53 +0000";
layers = (
{
hints = (
{
horizontal = 1;
place = "{0, 114.37}";
type = Stem;
},
{
horizontal = 1;
place = "{622.62, 114.38}";
type = Stem;
},
{
horizontal = 1;
place = "{794.25, 90.12}";
type = Stem;
},
{
place = "{134.75, 125.4}";
type = Stem;
}
);
layerId = "45368931-0D76-4CB6-835F-B3D628A2F0B6";
paths = (
{
closed = 1;
nodes = (
"335 0 LINE",
"335 114.37 LINE",
"260.15 114.37 LINE",
"260.15 622.62 LINE",
"335 622.62 LINE",
"335 737 LINE",
"60 737 LINE",
"60 622.62 LINE",
"134.75 622.62 LINE",
"134.75 114.37 LINE",
"60 114.37 LINE",
"60 0 LINE"
);
},
{
closed = 1;
nodes = (
"390.5 794.25 LINE",
"390.5 884.37 LINE",
"4.5 884.37 LINE",
"4.5 794.25 LINE"
);
}
);
width = 395;
}
);
leftKerningGroup = B;
note = Imacron;
rightKerningGroup = H;
unicode = 012A;
},
{
glyphname = Iogonek;
lastChange = "2019-09-03 16:30:53 +0000";
layers = (
{
hints = (
{
horizontal = 1;
place = "{-171.63, 81.38}";
type = Stem;
},
{
horizontal = 1;
place = "{0, 114.37}";
type = Stem;
},
{
horizontal = 1;
place = "{622.62, 114.38}";
type = Stem;
},
{
place = "{134.75, 125.4}";
type = Stem;
},
{
place = "{206.25, 128.75}";
type = Stem;
}
);
layerId = "45368931-0D76-4CB6-835F-B3D628A2F0B6";
paths = (
{
closed = 1;
nodes = (
"335 -171.63 LINE",
"335 -90.25 LINE",
"303.12 -90.25 LINE",
"282.12 -69.25 LINE",
"282.12 -38.5 LINE",
"335 0 LINE",
"335 114.37 LINE",
"260.15 114.37 LINE",
"260.15 622.62 LINE",
"335 622.62 LINE",
"335 737 LINE",
"60 737 LINE",
"60 622.62 LINE",
"134.75 622.62 LINE",
"134.75 114.37 LINE",
"60 114.37 LINE",
"60 0 LINE",
"251.37 0 LINE",
"206.25 -33 LINE",
"206.25 -107.75 LINE",
"270.12 -171.63 LINE"
);
}
);
width = 395;
}
);
leftKerningGroup = B;
note = Iogonek;
rightKerningGroup = H;
unicode = 012E;
},
{
glyphname = Itilde;
lastChange = "2019-09-03 16:30:53 +0000";
layers = (
{
hints = (
{
horizontal = 1;
place = "{0, 114.37}";
type = Stem;
},
{
horizontal = 1;
place = "{622.62, 114.38}";
type = Stem;
},
{
horizontal = 1;
place = "{794.25, 75.87}";
type = Stem;
},
{
place = "{7.75, 69.87}";
type = Stem;
},
{
place = "{134.75, 125.4}";
type = Stem;
},
{
place = "{322.87, 69.88}";
type = Stem;
},
{
horizontal = 1;
place = "{860.25, 75.87}";
type = Stem;
}
);
layerId = "45368931-0D76-4CB6-835F-B3D628A2F0B6";
paths = (
{
closed = 1;
nodes = (
"335 0 LINE",
"335 114.37 LINE",
"260.15 114.37 LINE",
"260.15 622.62 LINE",
"335 622.62 LINE",
"335 737 LINE",
"60 737 LINE",
"60 622.62 LINE",
"134.75 622.62 LINE",
"134.75 114.37 LINE",
"60 114.37 LINE",
"60 0 LINE"
);
},
{
closed = 1;
nodes = (
"326.25 794.25 LINE",
"392.25 861.25 LINE",
"393.25 932.75 LINE",
"322.87 932.75 LINE",
"322.87 906.37 LINE",
"287.75 870.12 LINE",
"256.87 870.12 LINE",
"187.62 936.12 LINE",
"74.25 936.12 LINE",
"8.25 869 LINE",
"7.25 797.5 LINE",
"77.62 797.5 LINE",
"77.62 823.87 LINE",
"112.75 860.25 LINE",
"143.62 860.25 LINE",
"212.87 794.25 LINE"
);
}
);
width = 395;
}
);
leftKerningGroup = B;
note = Itilde;
rightKerningGroup = H;
unicode = 0128;
},
{
glyphname = J;
lastChange = "2019-09-03 16:30:53 +0000";
layers = (
{
hints = (
{
horizontal = 1;
place = "{0, 109.94}";
type = Stem;
},
{
place = "{40, 125.49}";
type = Stem;
},
{
place = "{383.24, 125.26}";
type = Stem;
}
);
layerId = "45368931-0D76-4CB6-835F-B3D628A2F0B6";
paths = (
{
closed = 1;
nodes = (
"397.5 0 LINE",
"508.5 111.12 LINE",
"508.5 737 LINE",
"383.12 737 LINE",
"383.37 154 LINE",
"339.12 110.12 LINE",
"209.37 109.75 LINE",
"165.62 154 LINE",
"165.37 280.5 LINE",
"40 280.5 LINE",
"40 111.12 LINE",
"151 0 LINE"
);
}
);
width = 589;
}
);
leftKerningGroup = J;
note = J;
unicode = 004A;
},
{
glyphname = Jcircumflex;
lastChange = "2019-09-03 16:30:53 +0000";
layers = (
{
hints = (
{
horizontal = 1;
place = "{0, 109.94}";
type = Stem;
},
{
horizontal = 1;
place = "{794.25, 143}";
type = Stem;
},
{
place = "{40, 125.49}";
type = Stem;
},
{
place = "{383.24, 125.26}";
type = Stem;
}
);
layerId = "45368931-0D76-4CB6-835F-B3D628A2F0B6";
paths = (
{
closed = 1;
nodes = (
"397.5 0 LINE",
"508.5 111.12 LINE",
"508.5 737 LINE",
"383.12 737 LINE",
"383.37 154 LINE",
"339.12 110.12 LINE",
"209.37 109.75 LINE",
"165.62 154 LINE",
"165.37 280.5 LINE",
"40 280.5 LINE",
"40 111.12 LINE",
"151 0 LINE"
);
},
{
closed = 1;
nodes = (
"378.75 794.25 LINE",
"445.87 862.37 LINE",
"513 794.25 LINE",
"614.12 794.25 LINE",
"509.62 937.25 LINE",
"382.12 937.25 LINE",
"277.62 794.25 LINE"
);
}
);
width = 589;
}
);
note = Jcircumflex;
unicode = 0134;
},
{
glyphname = K;
lastChange = "2019-09-30 12:14:54 +0000";
layers = (
{
hints = (
{
horizontal = 1;
place = "{0, 737}";
type = Stem;
},
{
place = "{80, 125.4}";
type = Stem;
}
);
layerId = "45368931-0D76-4CB6-835F-B3D628A2F0B6";
paths = (
{
closed = 1;
nodes = (
"205.4 0 LINE",
"205.4 193.68 LINE",
"315.65 321.52 LINE",
"522.25 0 LINE",
"674 0 LINE",
"402.6 422.33 LINE",
"674 737 LINE",
"526.62 737 LINE",
"205 369 LINE",
"205.4 737 LINE",
"80 737 LINE",
"80 0 LINE"
);
}
);
width = 679;
}
);
leftKerningGroup = B;
note = K;
rightKerningGroup = K;
unicode = 004B;
},
{
glyphname = uni0136;
lastChange = "2019-09-30 12:15:05 +0000";
layers = (
{
hints = (
{
horizontal = 1;
place = "{-239.75, 182.5}";
type = Stem;
},
{
place = "{80, 125.4}";
type = Stem;
}
);
layerId = "45368931-0D76-4CB6-835F-B3D628A2F0B6";
paths = (
{
closed = 1;
nodes = (
"205.4 0 LINE",
"205.4 193.68 LINE",
"315.65 321.52 LINE",
"522.25 0 LINE",
"674 0 LINE",
"402.6 422.33 LINE",
"674 737 LINE",
"526.62 737 LINE",
"205 369 LINE",
"205.4 737 LINE",
"80 737 LINE",
"80 0 LINE"
);
},
{
closed = 1;
nodes = (
"324.5 -239.75 LINE",
"415.87 -57.25 LINE",
"298.12 -57.25 LINE",
"257.5 -239.75 LINE"
);
}
);
width = 679;
}
);
leftKerningGroup = B;
note = uni0136;
rightKerningGroup = K;
unicode = 0136;
},
{
glyphname = L;
lastChange = "2019-09-03 16:30:53 +0000";
layers = (
{
hints = (
{
horizontal = 1;
place = "{0, 114.37}";
type = Stem;
},
{
place = "{80, 125.4}";
type = Stem;
}
);
layerId = "45368931-0D76-4CB6-835F-B3D628A2F0B6";
paths = (
{
closed = 1;
nodes = (
"561.75 0 LINE",
"561.75 114.37 LINE",
"205.4 114.37 LINE",
"205.4 737 LINE",
"80 737 LINE",
"80 0 LINE"
);
}
);
width = 572;
}
);
leftKerningGroup = B;
note = L;
rightKerningGroup = L;
unicode = 004C;
},
{
glyphname = uni01C7;
lastChange = "2019-09-03 16:30:53 +0000";
layers = (
{
hints = (
{
horizontal = 1;
place = "{0, 114.37}";
type = Stem;
},
{
place = "{80, 125.4}";
type = Stem;
},
{
place = "{638.25, 125.49}";
type = Stem;
},
{
place = "{981.49, 125.26}";
type = Stem;
}
);
layerId = "45368931-0D76-4CB6-835F-B3D628A2F0B6";
paths = (
{
closed = 1;
nodes = (
"561.75 0 LINE",
"561.75 114.37 LINE",
"205.4 114.37 LINE",
"205.4 737 LINE",
"80 737 LINE",
"80 0 LINE"
);
},
{
closed = 1;
nodes = (
"995.75 0 LINE",
"1106.75 111.12 LINE",
"1106.75 737 LINE",
"981.37 737 LINE",
"981.62 154 LINE",
"937.37 110.12 LINE",
"807.62 109.75 LINE",
"763.87 154 LINE",
"763.62 280.5 LINE",
"638.25 280.5 LINE",
"638.25 111.12 LINE",
"749.25 0 LINE"
);
}
);
width = 1187;
}
);
leftKerningGroup = B;
note = uni01C7;
unicode = 01C7;
},
{
glyphname = Lacute;
lastChange = "2019-09-03 16:30:53 +0000";
layers = (
{
hints = (
{
horizontal = 1;
place = "{0, 114.37}";
type = Stem;
},
{
horizontal = 1;
place = "{794.25, 154}";
type = Stem;
},
{
place = "{80, 125.4}";
type = Stem;
}
);
layerId = "45368931-0D76-4CB6-835F-B3D628A2F0B6";
paths = (
{
closed = 1;
nodes = (
"561.75 0 LINE",
"561.75 114.37 LINE",
"205.4 114.37 LINE",
"205.4 737 LINE",
"80 737 LINE",
"80 0 LINE"
);
},
{
closed = 1;
nodes = (
"193.12 794.25 LINE",
"331.75 948.25 LINE",
"193.12 948.25 LINE",
"92 794.25 LINE"
);
}
);
width = 572;
}
);
leftKerningGroup = B;
note = Lacute;
rightKerningGroup = L;
unicode = 0139;
},
{
glyphname = Lcaron;
lastChange = "2019-09-03 16:30:53 +0000";
layers = (
{
hints = (
{
horizontal = 1;
place = "{0, 114.37}";
type = Stem;
},
{
horizontal = 1;
place = "{554.5, 182.5}";
type = Stem;
},
{
place = "{80, 125.4}";
type = Stem;
}
);
layerId = "45368931-0D76-4CB6-835F-B3D628A2F0B6";
paths = (
{
closed = 1;
nodes = (
"561.75 0 LINE",
"561.75 114.37 LINE",
"205.4 114.37 LINE",
"205.4 737 LINE",
"80 737 LINE",
"80 0 LINE"
);
},
{
closed = 1;
nodes = (
"381.5 554.5 LINE",
"472.87 737 LINE",
"355.12 737 LINE",
"314.5 554.5 LINE"
);
}
);
width = 572;
}
);
leftKerningGroup = B;
note = Lcaron;
rightKerningGroup = L;
unicode = 013D;
},
{
glyphname = uni013B;
lastChange = "2019-09-03 16:30:53 +0000";
layers = (
{
hints = (
{
horizontal = 1;
place = "{-239.75, 182.5}";
type = Stem;
},
{
horizontal = 1;
place = "{0, 114.37}";
type = Stem;
},
{
place = "{80, 125.4}";
type = Stem;
}
);
layerId = "45368931-0D76-4CB6-835F-B3D628A2F0B6";
paths = (
{
closed = 1;
nodes = (
"561.75 0 LINE",
"561.75 114.37 LINE",
"205.4 114.37 LINE",
"205.4 737 LINE",
"80 737 LINE",
"80 0 LINE"
);
},
{
closed = 1;
nodes = (
"284.5 -239.75 LINE",
"375.87 -57.25 LINE",
"258.12 -57.25 LINE",
"217.5 -239.75 LINE"
);
}
);
width = 572;
}
);
leftKerningGroup = B;
note = uni013B;
rightKerningGroup = L;
unicode = 013B;
},
{
glyphname = Ldot;
lastChange = "2019-09-03 16:30:53 +0000";
layers = (
{
hints = (
{
horizontal = 1;
place = "{0, 114.37}";
type = Stem;
},
{
horizontal = 1;
place = "{331.12, 125.38}";
type = Stem;
},
{
place = "{80, 125.4}";
type = Stem;
},
{
place = "{357.12, 121}";
type = Stem;
}
);
layerId = "45368931-0D76-4CB6-835F-B3D628A2F0B6";
paths = (
{
closed = 1;
nodes = (
"561.75 0 LINE",
"561.75 114.37 LINE",
"205.4 114.37 LINE",
"205.4 737 LINE",
"80 737 LINE",
"80 0 LINE"
);
},
{
closed = 1;
nodes = (
"478.12 331.12 LINE",
"478.12 456.5 LINE",
"357.12 456.5 LINE",
"357.12 331.12 LINE"
);
}
);
width = 572;
}
);
leftKerningGroup = B;
note = Ldot;
rightKerningGroup = L;
unicode = 013F;
},
{
glyphname = uni01C8;
lastChange = "2019-09-03 16:30:53 +0000";
layers = (
{
hints = (
{
horizontal = 1;
place = "{-187, 99}";
type = Stem;
},
{
horizontal = 1;
place = "{0, 114.37}";
type = Stem;
},
{
horizontal = 1;
place = "{579.75, 125.37}";
type = Stem;
},
{
place = "{80, 125.4}";
type = Stem;
},
{
place = "{666, 121}";
type = Stem;
}
);
layerId = "45368931-0D76-4CB6-835F-B3D628A2F0B6";
paths = (
{
closed = 1;
nodes = (
"561.75 0 LINE",
"561.75 114.37 LINE",
"205.4 114.37 LINE",
"205.4 737 LINE",
"80 737 LINE",
"80 0 LINE"
);
},
{
closed = 1;
nodes = (
"685.75 -187 LINE",
"787 -88 LINE",
"787 522.5 LINE",
"666 522.5 LINE",
"666 -45.13 LINE",
"625.25 -88 LINE",
"550.5 -88 LINE",
"550.5 -187 LINE"
);
},
{
closed = 1;
nodes = (
"787 579.75 LINE",
"787 705.12 LINE",
"666 705.12 LINE",
"666 579.75 LINE"
);
}
);
width = 862;
}
);
leftKerningGroup = B;
note = uni01C8;
rightKerningGroup = uni01C8;
unicode = 01C8;
},
{
glyphname = Lslash;
lastChange = "2019-09-03 16:30:53 +0000";
layers = (
{
hints = (
{
horizontal = 1;
place = "{0, 114.37}";
type = Stem;
},
{
place = "{80, 125.4}";
type = Stem;
}
);
layerId = "45368931-0D76-4CB6-835F-B3D628A2F0B6";
paths = (
{
closed = 1;
nodes = (
"561.75 0 LINE",
"561.75 114.37 LINE",
"205.4 114.37 LINE",
"205.4 331.83 LINE",
"361.75 400.37 LINE",
"361.75 524.75 LINE",
"205.4 456.21 LINE",
"205.4 737 LINE",
"80 737 LINE",
"80 401.24 LINE",
"23 376.25 LINE",
"23 251.87 LINE",
"80 276.86 LINE",
"80 0 LINE"
);
}
);
width = 572;
}
);
leftKerningGroup = B;
note = Lslash;
rightKerningGroup = L;
unicode = 0141;
},
{
glyphname = M;
lastChange = "2019-10-05 13:36:02 +0000";
layers = (
{
hints = (
{
horizontal = 1;
place = "{0, 737}";
type = Stem;
},
{
place = "{80, 125.4}";
type = Stem;
},
{
place = "{693.87, 125.4}";
type = Stem;
}
);
layerId = "45368931-0D76-4CB6-835F-B3D628A2F0B6";
paths = (
{
closed = 1;
nodes = (
"205.4 0 LINE",
"205.4 514.69 LINE",
"414.37 0 LINE",
"484.87 0 LINE",
"694 515 LINE",
"693.87 0 LINE",
"819.27 0 LINE",
"819.27 737 LINE",
"660.87 737 LINE",
"449.62 202.37 LINE",
"238.37 737 LINE",
"80 737 LINE",
"80 0 LINE"
);
}
);
width = 899;
}
);
leftKerningGroup = B;
note = M;
rightKerningGroup = H;
unicode = 004D;
},
{
glyphname = N;
lastChange = "2019-09-03 16:30:53 +0000";
layers = (
{
hints = (
{
horizontal = 1;
place = "{0, 737}";
type = Stem;
},
{
place = "{80, 125.4}";
type = Stem;
},
{
place = "{533.12, 125.4}";
type = Stem;
},
{
horizontal = 1;
place = "{514.75, 222.25}";
type = Stem;
}
);
layerId = "45368931-0D76-4CB6-835F-B3D628A2F0B6";
paths = (
{
closed = 1;
nodes = (
"205.4 0 LINE",
"205.4 514.75 LINE",
"229.5 514.75 LINE",
"522.12 0 LINE",
"658.52 0 LINE",
"658.52 737 LINE",
"533.12 737 LINE",
"533.12 222.25 LINE",
"240.5 737 LINE",
"80 737 LINE",
"80 0 LINE"
);
}
);
width = 739;
}
);
leftKerningGroup = B;
note = N;
rightKerningGroup = H;
unicode = 004E;
},
{
glyphname = uni01CA;
lastChange = "2019-09-03 16:30:53 +0000";
layers = (
{
hints = (
{
horizontal = 1;
place = "{0, 109.94}";
type = Stem;
},
{
horizontal = 1;
place = "{514.75, 222.25}";
type = Stem;
},
{
place = "{80, 125.4}";
type = Stem;
},
{
place = "{533.12, 125.4}";
type = Stem;
},
{
place = "{807.62, 125.5}";
type = Stem;
},
{
place = "{1150.87, 125.25}";
type = Stem;
}
);
layerId = "45368931-0D76-4CB6-835F-B3D628A2F0B6";
paths = (
{
closed = 1;
nodes = (
"205.4 0 LINE",
"205.4 514.75 LINE",
"229.5 514.75 LINE",
"522.12 0 LINE",
"658.52 0 LINE",
"658.52 737 LINE",
"533.12 737 LINE",
"533.12 222.25 LINE",
"240.5 737 LINE",
"80 737 LINE",
"80 0 LINE"
);
},
{
closed = 1;
nodes = (
"1165.12 0 LINE",
"1276.12 111.12 LINE",
"1276.12 737 LINE",
"1150.75 737 LINE",
"1151 154 LINE",
"1106.75 110.12 LINE",
"977 109.75 LINE",
"933.25 154 LINE",
"933 280.5 LINE",
"807.62 280.5 LINE",
"807.62 111.12 LINE",
"918.62 0 LINE"
);
}
);
width = 1356;
}
);
leftKerningGroup = B;
note = uni01CA;
unicode = 01CA;
},
{
glyphname = Nacute;
lastChange = "2019-09-03 16:30:53 +0000";
layers = (
{
hints = (
{
horizontal = 1;
place = "{514.75, 222.25}";
type = Stem;
},
{
horizontal = 1;
place = "{794.25, 154}";
type = Stem;
},
{
place = "{80, 125.4}";
type = Stem;
},
{
place = "{533.12, 125.4}";
type = Stem;
}
);
layerId = "45368931-0D76-4CB6-835F-B3D628A2F0B6";
paths = (
{
closed = 1;
nodes = (
"205.4 0 LINE",
"205.4 514.75 LINE",
"229.5 514.75 LINE",
"522.12 0 LINE",
"658.52 0 LINE",
"658.52 737 LINE",
"533.12 737 LINE",
"533.12 222.25 LINE",
"240.5 737 LINE",
"80 737 LINE",
"80 0 LINE"
);
},
{
closed = 1;
nodes = (
"429.25 794.25 LINE",
"567.87 948.25 LINE",
"429.25 948.25 LINE",
"328.12 794.25 LINE"
);
}
);
width = 739;
}
);
leftKerningGroup = B;
note = Nacute;
rightKerningGroup = H;
unicode = 0143;
},
{
glyphname = Ncaron;
lastChange = "2019-09-03 16:30:53 +0000";
layers = (
{
hints = (
{
horizontal = 1;
place = "{514.75, 222.25}";
type = Stem;
},
{
horizontal = 1;
place = "{794.25, 143}";
type = Stem;
},
{
place = "{80, 125.4}";
type = Stem;
},
{
place = "{533.12, 125.4}";
type = Stem;
}
);
layerId = "45368931-0D76-4CB6-835F-B3D628A2F0B6";
paths = (
{
closed = 1;
nodes = (
"205.4 0 LINE",
"205.4 514.75 LINE",
"229.5 514.75 LINE",
"522.12 0 LINE",
"658.52 0 LINE",
"658.52 737 LINE",
"533.12 737 LINE",
"533.12 222.25 LINE",
"240.5 737 LINE",
"80 737 LINE",
"80 0 LINE"
);
},
{
closed = 1;
nodes = (
"442.5 794.25 LINE",
"547 937.25 LINE",
"445.87 937.25 LINE",
"378.75 869.12 LINE",
"311.62 937.25 LINE",
"210.5 937.25 LINE",
"315 794.25 LINE"
);
}
);
width = 739;
}
);
leftKerningGroup = B;
note = Ncaron;
rightKerningGroup = H;
unicode = 0147;
},
{
glyphname = uni0145;
lastChange = "2019-09-03 16:30:53 +0000";
layers = (
{
hints = (
{
horizontal = 1;
place = "{-239.75, 182.5}";
type = Stem;
},
{
horizontal = 1;
place = "{514.75, 222.25}";
type = Stem;
},
{
place = "{80, 125.4}";
type = Stem;
},
{
place = "{533.12, 125.4}";
type = Stem;
}
);
layerId = "45368931-0D76-4CB6-835F-B3D628A2F0B6";
paths = (
{
closed = 1;
nodes = (
"205.4 0 LINE",
"205.4 514.75 LINE",
"229.5 514.75 LINE",
"522.12 0 LINE",
"658.52 0 LINE",
"658.52 737 LINE",
"533.12 737 LINE",
"533.12 222.25 LINE",
"240.5 737 LINE",
"80 737 LINE",
"80 0 LINE"
);
},
{
closed = 1;
nodes = (
"333 -239.75 LINE",
"424.37 -57.25 LINE",
"306.62 -57.25 LINE",
"266 -239.75 LINE"
);
}
);
width = 739;
}
);
leftKerningGroup = B;
note = uni0145;
rightKerningGroup = H;
unicode = 0145;
},
{
glyphname = Eng;
lastChange = "2019-09-03 18:37:47 +0000";
layers = (
{
hints = (
{
horizontal = 1;
place = "{-187, 99}";
type = Stem;
},
{
horizontal = 1;
place = "{514.75, 222.25}";
type = Stem;
},
{
place = "{80, 125.4}";
type = Stem;
},
{
place = "{533.12, 125.4}";
type = Stem;
}
);
layerId = "45368931-0D76-4CB6-835F-B3D628A2F0B6";
paths = (
{
closed = 1;
nodes = (
"557.37 -187 LINE",
"658.5 -88 LINE",
"658.52 737 LINE",
"533.12 737 LINE",
"533.12 222.25 LINE",
"240.5 737 LINE",
"80 737 LINE",
"80 0 LINE",
"205.4 0 LINE",
"205.4 514.75 LINE",
"229.5 514.75 LINE",
"522.12 0 LINE",
"522.12 -45.13 LINE",
"482.5 -88 LINE",
"427.5 -88 LINE",
"427.5 -187 LINE"
);
}
);
width = 739;
}
);
leftKerningGroup = B;
note = Eng;
rightKerningGroup = H;
unicode = 014A;
},
{
glyphname = uni01CB;
lastChange = "2019-09-03 16:30:53 +0000";
layers = (
{
hints = (
{
horizontal = 1;
place = "{-187, 99}";
type = Stem;
},
{
horizontal = 1;
place = "{579.75, 125.37}";
type = Stem;
},
{
place = "{80, 125.4}";
type = Stem;
},
{
place = "{533.12, 125.4}";
type = Stem;
},
{
place = "{834.37, 121}";
type = Stem;
},
{
horizontal = 1;
place = "{514.75, 222.25}";
type = Stem;
}
);
layerId = "45368931-0D76-4CB6-835F-B3D628A2F0B6";
paths = (
{
closed = 1;
nodes = (
"205.4 0 LINE",
"205.4 514.75 LINE",
"229.5 514.75 LINE",
"522.12 0 LINE",
"658.52 0 LINE",
"658.52 737 LINE",
"533.12 737 LINE",
"533.12 222.25 LINE",
"240.5 737 LINE",
"80 737 LINE",
"80 0 LINE"
);
},
{
closed = 1;
nodes = (
"854.12 -187 LINE",
"955.37 -88 LINE",
"955.37 522.5 LINE",
"834.37 522.5 LINE",
"834.37 -45.13 LINE",
"793.62 -88 LINE",
"718.87 -88 LINE",
"718.87 -187 LINE"
);
},
{
closed = 1;
nodes = (
"955.37 579.75 LINE",
"955.37 705.12 LINE",
"834.37 705.12 LINE",
"834.37 579.75 LINE"
);
}
);
width = 1030;
}
);
leftKerningGroup = B;
note = uni01CB;
rightKerningGroup = uni01C8;
unicode = 01CB;
},
{
glyphname = Ntilde;
lastChange = "2019-09-03 16:30:53 +0000";
layers = (
{
hints = (
{
horizontal = 1;
place = "{860.25, 75.87}";
type = Stem;
},
{
place = "{189, 69.87}";
type = Stem;
},
{
place = "{533.12, 125.4}";
type = Stem;
},
{
horizontal = 1;
place = "{794.25, 75.87}";
type = Stem;
},
{
place = "{80, 125.4}";
type = Stem;
},
{
place = "{504.12, 69.88}";
type = Stem;
},
{
horizontal = 1;
place = "{514.75, 222.25}";
type = Stem;
}
);
layerId = "45368931-0D76-4CB6-835F-B3D628A2F0B6";
paths = (
{
closed = 1;
nodes = (
"205.4 0 LINE",
"205.4 514.75 LINE",
"229.5 514.75 LINE",
"522.12 0 LINE",
"658.52 0 LINE",
"658.52 737 LINE",
"533.12 737 LINE",
"533.12 222.25 LINE",
"240.5 737 LINE",
"80 737 LINE",
"80 0 LINE"
);
},
{
closed = 1;
nodes = (
"507.5 794.25 LINE",
"573.5 861.25 LINE",
"574.5 932.75 LINE",
"504.12 932.75 LINE",
"504.12 906.37 LINE",
"469 870.12 LINE",
"438.12 870.12 LINE",
"368.87 936.12 LINE",
"255.5 936.12 LINE",
"189.5 869 LINE",
"188.5 797.5 LINE",
"258.87 797.5 LINE",
"258.87 823.87 LINE",
"294 860.25 LINE",
"324.87 860.25 LINE",
"394.12 794.25 LINE"
);
}
);
width = 739;
}
);
leftKerningGroup = B;
note = Ntilde;
rightKerningGroup = H;
unicode = 00D1;
},
{
glyphname = O;
lastChange = "2019-09-03 16:30:53 +0000";
layers = (
{
hints = (
{
horizontal = 1;
place = "{0, 110.06}";
type = Stem;
},
{
horizontal = 1;
place = "{626.94, 110.06}";
type = Stem;
},
{
place = "{60, 125.37}";
type = Stem;
},
{
place = "{517.56, 125.44}";
type = Stem;
}
);
layerId = "45368931-0D76-4CB6-835F-B3D628A2F0B6";
paths = (
{
closed = 1;
nodes = (
"531.87 0 LINE",
"643 111.12 LINE",
"643 625.87 LINE",
"531.87 737 LINE",
"171.12 737 LINE",
"60 625.87 LINE",
"60 111.12 LINE",
"171.12 0 LINE"
);
},
{
closed = 1;
nodes = (
"185.62 154 LINE",
"185.12 583 LINE",
"229.37 626.75 LINE",
"473.5 627.12 LINE",
"517.37 583 LINE",
"517.75 154.12 LINE",
"473.62 110.25 LINE",
"229.5 109.87 LINE"
);
}
);
width = 703;
}
);
leftKerningGroup = C;
note = O;
rightKerningGroup = O;
unicode = 004F;
},
{
glyphname = Oacute;
lastChange = "2019-09-03 16:30:53 +0000";
layers = (
{
hints = (
{
horizontal = 1;
place = "{0, 110.06}";
type = Stem;
},
{
horizontal = 1;
place = "{626.94, 110.06}";
type = Stem;
},
{
horizontal = 1;
place = "{794.25, 154}";
type = Stem;
},
{
place = "{60, 125.37}";
type = Stem;
},
{
place = "{517.56, 125.44}";
type = Stem;
}
);
layerId = "45368931-0D76-4CB6-835F-B3D628A2F0B6";
paths = (
{
closed = 1;
nodes = (
"531.87 0 LINE",
"643 111.12 LINE",
"643 625.87 LINE",
"531.87 737 LINE",
"171.12 737 LINE",
"60 625.87 LINE",
"60 111.12 LINE",
"171.12 0 LINE"
);
},
{
closed = 1;
nodes = (
"185.62 154 LINE",
"185.12 583 LINE",
"229.37 626.75 LINE",
"473.5 627.12 LINE",
"517.37 583 LINE",
"517.75 154.12 LINE",
"473.62 110.25 LINE",
"229.5 109.87 LINE"
);
},
{
closed = 1;
nodes = (
"402 794.25 LINE",
"540.62 948.25 LINE",
"402 948.25 LINE",
"300.87 794.25 LINE"
);
}
);
width = 703;
}
);
leftKerningGroup = C;
note = Oacute;
rightKerningGroup = O;
unicode = 00D3;
},
{
glyphname = Obreve;
lastChange = "2019-09-03 16:30:53 +0000";
layers = (
{
hints = (
{
horizontal = 1;
place = "{0, 110.06}";
type = Stem;
},
{
horizontal = 1;
place = "{626.94, 110.06}";
type = Stem;
},
{
horizontal = 1;
place = "{794.25, 78}";
type = Stem;
},
{
place = "{60, 125.37}";
type = Stem;
},
{
place = "{517.56, 125.44}";
type = Stem;
},
{
place = "{200.75, 80.37}";
type = Stem;
},
{
place = "{421.87, 80.38}";
type = Stem;
}
);
layerId = "45368931-0D76-4CB6-835F-B3D628A2F0B6";
paths = (
{
closed = 1;
nodes = (
"531.87 0 LINE",
"643 111.12 LINE",
"643 625.87 LINE",
"531.87 737 LINE",
"171.12 737 LINE",
"60 625.87 LINE",
"60 111.12 LINE",
"171.12 0 LINE"
);
},
{
closed = 1;
nodes = (
"185.62 154 LINE",
"185.12 583 LINE",
"229.37 626.75 LINE",
"473.5 627.12 LINE",
"517.37 583 LINE",
"517.75 154.12 LINE",
"473.62 110.25 LINE",
"229.5 109.87 LINE"
);
},
{
closed = 1;
nodes = (
"432.87 794.25 LINE",
"502.25 863.5 LINE",
"502.25 937.25 LINE",
"421.87 937.25 LINE",
"421.87 893.25 LINE",
"401 872.25 LINE",
"302 872.25 LINE",
"281.12 893.25 LINE",
"281.12 937.25 LINE",
"200.75 937.25 LINE",
"200.75 863.5 LINE",
"270.12 794.25 LINE"
);
}
);
width = 703;
}
);
leftKerningGroup = C;
note = Obreve;
rightKerningGroup = O;
unicode = 014E;
},
{
glyphname = Ocircumflex;
lastChange = "2019-09-03 16:30:53 +0000";
layers = (
{
hints = (
{
horizontal = 1;
place = "{0, 110.06}";
type = Stem;
},
{
horizontal = 1;
place = "{626.94, 110.06}";
type = Stem;
},
{
horizontal = 1;
place = "{794.25, 143}";
type = Stem;
},
{
place = "{60, 125.37}";
type = Stem;
},
{
place = "{517.56, 125.44}";
type = Stem;
}
);
layerId = "45368931-0D76-4CB6-835F-B3D628A2F0B6";
paths = (
{
closed = 1;
nodes = (
"531.87 0 LINE",
"643 111.12 LINE",
"643 625.87 LINE",
"531.87 737 LINE",
"171.12 737 LINE",
"60 625.87 LINE",
"60 111.12 LINE",
"171.12 0 LINE"
);
},
{
closed = 1;
nodes = (
"185.62 154 LINE",
"185.12 583 LINE",
"229.37 626.75 LINE",
"473.5 627.12 LINE",
"517.37 583 LINE",
"517.75 154.12 LINE",
"473.62 110.25 LINE",
"229.5 109.87 LINE"
);
},
{
closed = 1;
nodes = (
"284.37 794.25 LINE",
"351.5 862.37 LINE",
"418.62 794.25 LINE",
"519.75 794.25 LINE",
"415.25 937.25 LINE",
"287.75 937.25 LINE",
"183.25 794.25 LINE"
);
}
);
width = 703;
}
);
leftKerningGroup = C;
note = Ocircumflex;
rightKerningGroup = O;
unicode = 00D4;
},
{
glyphname = uni1ED0;
lastChange = "2019-09-03 16:30:53 +0000";
layers = (
{
hints = (
{
horizontal = 1;
place = "{0, 110.06}";
type = Stem;
},
{
horizontal = 1;
place = "{626.94, 110.06}";
type = Stem;
},
{
horizontal = 1;
place = "{876.75, 154}";
type = Stem;
},
{
place = "{60, 125.37}";
type = Stem;
},
{
place = "{517.56, 125.44}";
type = Stem;
},
{
horizontal = 1;
place = "{794.25, 143}";
type = Stem;
}
);
layerId = "45368931-0D76-4CB6-835F-B3D628A2F0B6";
paths = (
{
closed = 1;
nodes = (
"531.87 0 LINE",
"643 111.12 LINE",
"643 625.87 LINE",
"531.87 737 LINE",
"171.12 737 LINE",
"60 625.87 LINE",
"60 111.12 LINE",
"171.12 0 LINE"
);
},
{
closed = 1;
nodes = (
"185.62 154 LINE",
"185.12 583 LINE",
"229.37 626.75 LINE",
"473.5 627.12 LINE",
"517.37 583 LINE",
"517.75 154.12 LINE",
"473.62 110.25 LINE",
"229.5 109.87 LINE"
);
},
{
closed = 1;
nodes = (
"284.37 794.25 LINE",
"351.5 862.37 LINE",
"418.62 794.25 LINE",
"519.75 794.25 LINE",
"415.25 937.25 LINE",
"287.75 937.25 LINE",
"183.25 794.25 LINE"
);
},
{
closed = 1;
nodes = (
"604.5 876.75 LINE",
"743.12 1030.75 LINE",
"604.5 1030.75 LINE",
"503.37 876.75 LINE"
);
}
);
width = 703;
}
);
leftKerningGroup = C;
note = uni1ED0;
rightKerningGroup = O;
unicode = 1ED0;
},
{
glyphname = uni1ED8;
lastChange = "2019-09-03 16:30:53 +0000";
layers = (
{
hints = (
{
horizontal = 1;
place = "{-182.63, 125.38}";
type = Stem;
},
{
horizontal = 1;
place = "{0, 110.06}";
type = Stem;
},
{
horizontal = 1;
place = "{626.94, 110.06}";
type = Stem;
},
{
horizontal = 1;
place = "{794.25, 143}";
type = Stem;
},
{
place = "{60, 125.37}";
type = Stem;
},
{
place = "{291, 121}";
type = Stem;
},
{
place = "{517.56, 125.44}";
type = Stem;
}
);
layerId = "45368931-0D76-4CB6-835F-B3D628A2F0B6";
paths = (
{
closed = 1;
nodes = (
"531.87 0 LINE",
"643 111.12 LINE",
"643 625.87 LINE",
"531.87 737 LINE",
"171.12 737 LINE",
"60 625.87 LINE",
"60 111.12 LINE",
"171.12 0 LINE"
);
},
{
closed = 1;
nodes = (
"412 -182.63 LINE",
"412 -57.25 LINE",
"291 -57.25 LINE",
"291 -182.63 LINE"
);
},
{
closed = 1;
nodes = (
"185.62 154 LINE",
"185.12 583 LINE",
"229.37 626.75 LINE",
"473.5 627.12 LINE",
"517.37 583 LINE",
"517.75 154.12 LINE",
"473.62 110.25 LINE",
"229.5 109.87 LINE"
);
},
{
closed = 1;
nodes = (
"284.37 794.25 LINE",
"351.5 862.37 LINE",
"418.62 794.25 LINE",
"519.75 794.25 LINE",
"415.25 937.25 LINE",
"287.75 937.25 LINE",
"183.25 794.25 LINE"
);
}
);
width = 703;
}
);
leftKerningGroup = C;
note = uni1ED8;
rightKerningGroup = O;
unicode = 1ED8;
},
{
glyphname = uni1ED2;
lastChange = "2019-09-03 16:30:53 +0000";
layers = (
{
hints = (
{
horizontal = 1;
place = "{0, 110.06}";
type = Stem;
},
{
horizontal = 1;
place = "{626.94, 110.06}";
type = Stem;
},
{
horizontal = 1;
place = "{876.75, 154}";
type = Stem;
},
{
place = "{60, 125.37}";
type = Stem;
},
{
place = "{517.56, 125.44}";
type = Stem;
},
{
horizontal = 1;
place = "{794.25, 143}";
type = Stem;
}
);
layerId = "45368931-0D76-4CB6-835F-B3D628A2F0B6";
paths = (
{
closed = 1;
nodes = (
"531.87 0 LINE",
"643 111.12 LINE",
"643 625.87 LINE",
"531.87 737 LINE",
"171.12 737 LINE",
"60 625.87 LINE",
"60 111.12 LINE",
"171.12 0 LINE"
);
},
{
closed = 1;
nodes = (
"185.62 154 LINE",
"185.12 583 LINE",
"229.37 626.75 LINE",
"473.5 627.12 LINE",
"517.37 583 LINE",
"517.75 154.12 LINE",
"473.62 110.25 LINE",
"229.5 109.87 LINE"
);
},
{
closed = 1;
nodes = (
"199.62 876.75 LINE",
"98.5 1030.75 LINE",
"-40.13 1030.75 LINE",
"98.5 876.75 LINE"
);
},
{
closed = 1;
nodes = (
"284.37 794.25 LINE",
"351.5 862.37 LINE",
"418.62 794.25 LINE",
"519.75 794.25 LINE",
"415.25 937.25 LINE",
"287.75 937.25 LINE",
"183.25 794.25 LINE"
);
}
);
width = 703;
}
);
leftKerningGroup = C;
note = uni1ED2;
rightKerningGroup = O;
unicode = 1ED2;
},
{
glyphname = uni1ED4;
lastChange = "2019-09-03 16:30:53 +0000";
layers = (
{
hints = (
{
horizontal = 1;
place = "{0, 110.06}";
type = Stem;
},
{
horizontal = 1;
place = "{626.94, 110.06}";
type = Stem;
},
{
horizontal = 1;
place = "{794.25, 143}";
type = Stem;
},
{
horizontal = 1;
place = "{1021.5, 71}";
type = Stem;
},
{
place = "{60, 125.37}";
type = Stem;
},
{
place = "{482.75, 80.37}";
type = Stem;
},
{
place = "{547.5, 87.37}";
type = Stem;
},
{
place = "{517.56, 125.44}";
type = Stem;
}
);
layerId = "45368931-0D76-4CB6-835F-B3D628A2F0B6";
paths = (
{
closed = 1;
nodes = (
"531.87 0 LINE",
"643 111.12 LINE",
"643 625.87 LINE",
"531.87 737 LINE",
"171.12 737 LINE",
"60 625.87 LINE",
"60 111.12 LINE",
"171.12 0 LINE"
);
},
{
closed = 1;
nodes = (
"185.62 154 LINE",
"185.12 583 LINE",
"229.37 626.75 LINE",
"473.5 627.12 LINE",
"517.37 583 LINE",
"517.75 154.12 LINE",
"473.62 110.25 LINE",
"229.5 109.87 LINE"
);
},
{
closed = 1;
nodes = (
"284.37 794.25 LINE",
"351.5 862.37 LINE",
"418.62 794.25 LINE",
"519.75 794.25 LINE",
"415.25 937.25 LINE",
"287.75 937.25 LINE",
"183.25 794.25 LINE"
);
},
{
closed = 1;
nodes = (
"563.12 876.75 LINE",
"563.12 912.87 LINE",
"634.87 967.25 LINE",
"634.87 1042.62 LINE",
"585.12 1092.5 LINE",
"468.62 1092.5 LINE",
"417.62 1041.25 LINE",
"472.62 985.87 LINE",
"508.75 1021.5 LINE",
"543.37 1021.5 LINE",
"547.5 1017.37 LINE",
"547.5 997.87 LINE",
"482.75 945.87 LINE",
"482.75 876.75 LINE"
);
}
);
width = 703;
}
);
leftKerningGroup = C;
note = uni1ED4;
rightKerningGroup = O;
unicode = 1ED4;
},
{
glyphname = uni1ED6;
lastChange = "2019-09-03 16:30:53 +0000";
layers = (
{
hints = (
{
horizontal = 1;
place = "{0, 110.06}";
type = Stem;
},
{
horizontal = 1;
place = "{626.94, 110.06}";
type = Stem;
},
{
horizontal = 1;
place = "{794.25, 143}";
type = Stem;
},
{
horizontal = 1;
place = "{1032.87, 75.88}";
type = Stem;
},
{
place = "{159, 69.87}";
type = Stem;
},
{
place = "{517.56, 125.44}";
type = Stem;
},
{
horizontal = 1;
place = "{966.87, 75.88}";
type = Stem;
},
{
place = "{60, 125.37}";
type = Stem;
},
{
place = "{474.12, 69.88}";
type = Stem;
}
);
layerId = "45368931-0D76-4CB6-835F-B3D628A2F0B6";
paths = (
{
closed = 1;
nodes = (
"531.87 0 LINE",
"643 111.12 LINE",
"643 625.87 LINE",
"531.87 737 LINE",
"171.12 737 LINE",
"60 625.87 LINE",
"60 111.12 LINE",
"171.12 0 LINE"
);
},
{
closed = 1;
nodes = (
"185.62 154 LINE",
"185.12 583 LINE",
"229.37 626.75 LINE",
"473.5 627.12 LINE",
"517.37 583 LINE",
"517.75 154.12 LINE",
"473.62 110.25 LINE",
"229.5 109.87 LINE"
);
},
{
closed = 1;
nodes = (
"284.37 794.25 LINE",
"351.5 862.37 LINE",
"418.62 794.25 LINE",
"519.75 794.25 LINE",
"415.25 937.25 LINE",
"287.75 937.25 LINE",
"183.25 794.25 LINE"
);
},
{
closed = 1;
nodes = (
"477.5 966.87 LINE",
"543.5 1033.87 LINE",
"544.5 1105.37 LINE",
"474.12 1105.37 LINE",
"474.12 1079 LINE",
"439 1042.75 LINE",
"408.12 1042.75 LINE",
"338.87 1108.75 LINE",
"225.5 1108.75 LINE",
"159.5 1041.62 LINE",
"158.5 970.12 LINE",
"228.87 970.12 LINE",
"228.87 996.5 LINE",
"264 1032.87 LINE",
"294.87 1032.87 LINE",
"364.12 966.87 LINE"
);
}
);
width = 703;
}
);
leftKerningGroup = C;
note = uni1ED6;
rightKerningGroup = O;
unicode = 1ED6;
},
{
glyphname = uni020C;
lastChange = "2019-10-08 20:33:00 +0000";
layers = (
{
hints = (
{
horizontal = 1;
place = "{0, 110.06}";
type = Stem;
},
{
horizontal = 1;
place = "{626.94, 110.06}";
type = Stem;
},
{
horizontal = 1;
place = "{794.25, 154}";
type = Stem;
},
{
place = "{60, 125.37}";
type = Stem;
},
{
place = "{517.56, 125.44}";
type = Stem;
}
);
layerId = "45368931-0D76-4CB6-835F-B3D628A2F0B6";
paths = (
{
closed = 1;
nodes = (
"531.87 0 LINE",
"643 111.12 LINE",
"643 625.87 LINE",
"531.87 737 LINE",
"171.12 737 LINE",
"60 625.87 LINE",
"60 111.12 LINE",
"171.12 0 LINE"
);
},
{
closed = 1;
nodes = (
"185.62 154 LINE",
"185.12 583 LINE",
"229.37 626.75 LINE",
"473.5 627.12 LINE",
"517.37 583 LINE",
"517.75 154.12 LINE",
"473.62 110.25 LINE",
"229.5 109.87 LINE"
);
},
{
closed = 1;
nodes = (
"308 794 LINE",
"207 948 LINE",
"68 948 LINE",
"207 794 LINE"
);
},
{
closed = 1;
nodes = (
"513 794 LINE",
"412 948 LINE",
"273 948 LINE",
"412 794 LINE"
);
}
);
width = 703;
}
);
leftKerningGroup = C;
note = uni020C;
rightKerningGroup = O;
unicode = 020C;
},
{
glyphname = Odieresis;
lastChange = "2019-09-03 16:30:53 +0000";
layers = (
{
hints = (
{
horizontal = 1;
place = "{0, 110.06}";
type = Stem;
},
{
horizontal = 1;
place = "{626.94, 110.06}";
type = Stem;
},
{
horizontal = 1;
place = "{794.25, 125.5}";
type = Stem;
},
{
place = "{158.5, 121}";
type = Stem;
},
{
place = "{423.5, 121}";
type = Stem;
},
{
place = "{60, 125.37}";
type = Stem;
},
{
place = "{517.56, 125.44}";
type = Stem;
}
);
layerId = "45368931-0D76-4CB6-835F-B3D628A2F0B6";
paths = (
{
closed = 1;
nodes = (
"531.87 0 LINE",
"643 111.12 LINE",
"643 625.87 LINE",
"531.87 737 LINE",
"171.12 737 LINE",
"60 625.87 LINE",
"60 111.12 LINE",
"171.12 0 LINE"
);
},
{
closed = 1;
nodes = (
"185.62 154 LINE",
"185.12 583 LINE",
"229.37 626.75 LINE",
"473.5 627.12 LINE",
"517.37 583 LINE",
"517.75 154.12 LINE",
"473.62 110.25 LINE",
"229.5 109.87 LINE"
);
},
{
closed = 1;
nodes = (
"279.5 794.25 LINE",
"279.5 919.75 LINE",
"158.5 919.75 LINE",
"158.5 794.25 LINE"
);
},
{
closed = 1;
nodes = (
"544.5 794.25 LINE",
"544.5 919.75 LINE",
"423.5 919.75 LINE",
"423.5 794.25 LINE"
);
}
);
width = 703;
}
);
leftKerningGroup = C;
note = Odieresis;
rightKerningGroup = O;
unicode = 00D6;
},
{
glyphname = uni022A;
lastChange = "2019-09-03 16:30:53 +0000";
layers = (
{
hints = (
{
horizontal = 1;
place = "{0, 110.06}";
type = Stem;
},
{
horizontal = 1;
place = "{626.94, 110.06}";
type = Stem;
},
{
horizontal = 1;
place = "{794.25, 125.5}";
type = Stem;
},
{
horizontal = 1;
place = "{967.5, 90.12}";
type = Stem;
},
{
place = "{158.5, 121}";
type = Stem;
},
{
place = "{423.5, 121}";
type = Stem;
},
{
place = "{60, 125.37}";
type = Stem;
},
{
place = "{517.56, 125.44}";
type = Stem;
}
);
layerId = "45368931-0D76-4CB6-835F-B3D628A2F0B6";
paths = (
{
closed = 1;
nodes = (
"531.87 0 LINE",
"643 111.12 LINE",
"643 625.87 LINE",
"531.87 737 LINE",
"171.12 737 LINE",
"60 625.87 LINE",
"60 111.12 LINE",
"171.12 0 LINE"
);
},
{
closed = 1;
nodes = (
"185.62 154 LINE",
"185.12 583 LINE",
"229.37 626.75 LINE",
"473.5 627.12 LINE",
"517.37 583 LINE",
"517.75 154.12 LINE",
"473.62 110.25 LINE",
"229.5 109.87 LINE"
);
},
{
closed = 1;
nodes = (
"279.5 794.25 LINE",
"279.5 919.75 LINE",
"158.5 919.75 LINE",
"158.5 794.25 LINE"
);
},
{
closed = 1;
nodes = (
"544.5 794.25 LINE",
"544.5 919.75 LINE",
"423.5 919.75 LINE",
"423.5 794.25 LINE"
);
},
{
closed = 1;
nodes = (
"544.5 967.5 LINE",
"544.5 1057.62 LINE",
"158.5 1057.62 LINE",
"158.5 967.5 LINE"
);
}
);
width = 703;
}
);
leftKerningGroup = C;
note = uni022A;
rightKerningGroup = O;
unicode = 022A;
},
{
glyphname = uni0230;
lastChange = "2019-09-03 16:30:53 +0000";
layers = (
{
hints = (
{
horizontal = 1;
place = "{0, 110.06}";
type = Stem;
},
{
horizontal = 1;
place = "{626.94, 110.06}";
type = Stem;
},
{
horizontal = 1;
place = "{794.25, 125.37}";
type = Stem;
},
{
horizontal = 1;
place = "{967.25, 90.12}";
type = Stem;
},
{
place = "{60, 125.37}";
type = Stem;
},
{
place = "{291, 121}";
type = Stem;
},
{
place = "{517.56, 125.44}";
type = Stem;
}
);
layerId = "45368931-0D76-4CB6-835F-B3D628A2F0B6";
paths = (
{
closed = 1;
nodes = (
"531.87 0 LINE",
"643 111.12 LINE",
"643 625.87 LINE",
"531.87 737 LINE",
"171.12 737 LINE",
"60 625.87 LINE",
"60 111.12 LINE",
"171.12 0 LINE"
);
},
{
closed = 1;
nodes = (
"185.62 154 LINE",
"185.12 583 LINE",
"229.37 626.75 LINE",
"473.5 627.12 LINE",
"517.37 583 LINE",
"517.75 154.12 LINE",
"473.62 110.25 LINE",
"229.5 109.87 LINE"
);
},
{
closed = 1;
nodes = (
"412 794.25 LINE",
"412 919.62 LINE",
"291 919.62 LINE",
"291 794.25 LINE"
);
},
{
closed = 1;
nodes = (
"544.5 967.25 LINE",
"544.5 1057.37 LINE",
"158.5 1057.37 LINE",
"158.5 967.25 LINE"
);
}
);
width = 703;
}
);
leftKerningGroup = C;
note = uni0230;
rightKerningGroup = O;
unicode = 0230;
},
{
glyphname = uni1ECC;
lastChange = "2019-09-03 16:30:53 +0000";
layers = (
{
hints = (
{
horizontal = 1;
place = "{-182.63, 125.38}";
type = Stem;
},
{
horizontal = 1;
place = "{0, 110.06}";
type = Stem;
},
{
horizontal = 1;
place = "{626.94, 110.06}";
type = Stem;
},
{
place = "{60, 125.37}";
type = Stem;
},
{
place = "{291, 121}";
type = Stem;
},
{
place = "{517.56, 125.44}";
type = Stem;
}
);
layerId = "45368931-0D76-4CB6-835F-B3D628A2F0B6";
paths = (
{
closed = 1;
nodes = (
"531.87 0 LINE",
"643 111.12 LINE",
"643 625.87 LINE",
"531.87 737 LINE",
"171.12 737 LINE",
"60 625.87 LINE",
"60 111.12 LINE",
"171.12 0 LINE"
);
},
{
closed = 1;
nodes = (
"412 -182.63 LINE",
"412 -57.25 LINE",
"291 -57.25 LINE",
"291 -182.63 LINE"
);
},
{
closed = 1;
nodes = (
"185.62 154 LINE",
"185.12 583 LINE",
"229.37 626.75 LINE",
"473.5 627.12 LINE",
"517.37 583 LINE",
"517.75 154.12 LINE",
"473.62 110.25 LINE",
"229.5 109.87 LINE"
);
}
);
width = 703;
}
);
leftKerningGroup = C;
note = uni1ECC;
rightKerningGroup = O;
unicode = 1ECC;
},
{
glyphname = Ograve;
lastChange = "2019-09-03 16:30:53 +0000";
layers = (
{
hints = (
{
horizontal = 1;
place = "{0, 110.06}";
type = Stem;
},
{
horizontal = 1;
place = "{626.94, 110.06}";
type = Stem;
},
{
horizontal = 1;
place = "{794.25, 154}";
type = Stem;
},
{
place = "{60, 125.37}";
type = Stem;
},
{
place = "{517.56, 125.44}";
type = Stem;
}
);
layerId = "45368931-0D76-4CB6-835F-B3D628A2F0B6";
paths = (
{
closed = 1;
nodes = (
"531.87 0 LINE",
"643 111.12 LINE",
"643 625.87 LINE",
"531.87 737 LINE",
"171.12 737 LINE",
"60 625.87 LINE",
"60 111.12 LINE",
"171.12 0 LINE"
);
},
{
closed = 1;
nodes = (
"185.62 154 LINE",
"185.12 583 LINE",
"229.37 626.75 LINE",
"473.5 627.12 LINE",
"517.37 583 LINE",
"517.75 154.12 LINE",
"473.62 110.25 LINE",
"229.5 109.87 LINE"
);
},
{
closed = 1;
nodes = (
"397.5 794.25 LINE",
"296.37 948.25 LINE",
"157.75 948.25 LINE",
"296.37 794.25 LINE"
);
}
);
width = 703;
}
);
leftKerningGroup = C;
note = Ograve;
rightKerningGroup = O;
unicode = 00D2;
},
{
glyphname = uni1ECE;
lastChange = "2019-09-03 16:30:53 +0000";
layers = (
{
hints = (
{
horizontal = 1;
place = "{0, 110.06}";
type = Stem;
},
{
horizontal = 1;
place = "{626.94, 110.06}";
type = Stem;
},
{
horizontal = 1;
place = "{794.25, 69.12}";
type = Stem;
},
{
horizontal = 1;
place = "{939, 71}";
type = Stem;
},
{
place = "{60, 125.37}";
type = Stem;
},
{
place = "{311.25, 80.37}";
type = Stem;
},
{
place = "{517.56, 125.44}";
type = Stem;
},
{
place = "{376, 87.37}";
type = Stem;
}
);
layerId = "45368931-0D76-4CB6-835F-B3D628A2F0B6";
paths = (
{
closed = 1;
nodes = (
"531.87 0 LINE",
"643 111.12 LINE",
"643 625.87 LINE",
"531.87 737 LINE",
"171.12 737 LINE",
"60 625.87 LINE",
"60 111.12 LINE",
"171.12 0 LINE"
);
},
{
closed = 1;
nodes = (
"185.62 154 LINE",
"185.12 583 LINE",
"229.37 626.75 LINE",
"473.5 627.12 LINE",
"517.37 583 LINE",
"517.75 154.12 LINE",
"473.62 110.25 LINE",
"229.5 109.87 LINE"
);
},
{
closed = 1;
nodes = (
"391.62 794.25 LINE",
"391.62 830.37 LINE",
"463.37 884.75 LINE",
"463.37 960.12 LINE",
"413.62 1010 LINE",
"297.12 1010 LINE",
"246.12 958.75 LINE",
"301.12 903.37 LINE",
"337.25 939 LINE",
"371.87 939 LINE",
"376 934.87 LINE",
"376 915.37 LINE",
"311.25 863.37 LINE",
"311.25 794.25 LINE"
);
}
);
width = 703;
}
);
leftKerningGroup = C;
note = uni1ECE;
rightKerningGroup = O;
unicode = 1ECE;
},
{
glyphname = Ohorn;
lastChange = "2019-09-03 16:30:53 +0000";
layers = (
{
hints = (
{
horizontal = 1;
place = "{0, 110.06}";
type = Stem;
},
{
horizontal = 1;
place = "{606.12, 76.88}";
type = Stem;
},
{
place = "{60, 125.37}";
type = Stem;
},
{
place = "{517.56, 125.44}";
type = Stem;
},
{
horizontal = 1;
place = "{626.94, 110.06}";
type = Stem;
}
);
layerId = "45368931-0D76-4CB6-835F-B3D628A2F0B6";
paths = (
{
closed = 1;
nodes = (
"531.87 0 LINE",
"643 111.12 LINE",
"643 606.12 LINE",
"725.25 606.12 LINE",
"794.75 801.62 LINE",
"667.5 801.62 LINE",
"651.12 683 LINE",
"585.87 683 LINE",
"531.87 737 LINE",
"171.12 737 LINE",
"60 625.87 LINE",
"60 111.12 LINE",
"171.12 0 LINE"
);
},
{
closed = 1;
nodes = (
"185.62 154 LINE",
"185.12 583 LINE",
"229.37 626.75 LINE",
"473.5 627.12 LINE",
"517.37 583 LINE",
"517.75 154.12 LINE",
"473.62 110.25 LINE",
"229.5 109.87 LINE"
);
}
);
width = 703;
}
);
leftKerningGroup = C;
note = Ohorn;
rightKerningGroup = O;
unicode = 01A0;
},
{
glyphname = uni1EDA;
lastChange = "2019-09-03 16:30:53 +0000";
layers = (
{
hints = (
{
horizontal = 1;
place = "{0, 110.06}";
type = Stem;
},
{
horizontal = 1;
place = "{626.94, 110.06}";
type = Stem;
},
{
horizontal = 1;
place = "{794.25, 154}";
type = Stem;
},
{
place = "{60, 125.37}";
type = Stem;
},
{
place = "{517.56, 125.44}";
type = Stem;
},
{
horizontal = 1;
place = "{606.12, 76.88}";
type = Stem;
}
);
layerId = "45368931-0D76-4CB6-835F-B3D628A2F0B6";
paths = (
{
closed = 1;
nodes = (
"531.87 0 LINE",
"643 111.12 LINE",
"643 606.12 LINE",
"725.25 606.12 LINE",
"794.75 801.62 LINE",
"667.5 801.62 LINE",
"651.12 683 LINE",
"585.87 683 LINE",
"531.87 737 LINE",
"171.12 737 LINE",
"60 625.87 LINE",
"60 111.12 LINE",
"171.12 0 LINE"
);
},
{
closed = 1;
nodes = (
"185.62 154 LINE",
"185.12 583 LINE",
"229.37 626.75 LINE",
"473.5 627.12 LINE",
"517.37 583 LINE",
"517.75 154.12 LINE",
"473.62 110.25 LINE",
"229.5 109.87 LINE"
);
},
{
closed = 1;
nodes = (
"402 794.25 LINE",
"540.62 948.25 LINE",
"402 948.25 LINE",
"300.87 794.25 LINE"
);
}
);
width = 703;
}
);
leftKerningGroup = C;
note = uni1EDA;
rightKerningGroup = O;
unicode = 1EDA;
},
{
glyphname = uni1EE2;
lastChange = "2019-09-03 16:30:53 +0000";
layers = (
{
hints = (
{
horizontal = 1;
place = "{-182.63, 125.38}";
type = Stem;
},
{
horizontal = 1;
place = "{0, 110.06}";
type = Stem;
},
{
horizontal = 1;
place = "{606.12, 76.88}";
type = Stem;
},
{
place = "{60, 125.37}";
type = Stem;
},
{
place = "{291, 121}";
type = Stem;
},
{
place = "{517.56, 125.44}";
type = Stem;
},
{
horizontal = 1;
place = "{626.94, 110.06}";
type = Stem;
}
);
layerId = "45368931-0D76-4CB6-835F-B3D628A2F0B6";
paths = (
{
closed = 1;
nodes = (
"531.87 0 LINE",
"643 111.12 LINE",
"643 606.12 LINE",
"725.25 606.12 LINE",
"794.75 801.62 LINE",
"667.5 801.62 LINE",
"651.12 683 LINE",
"585.87 683 LINE",
"531.87 737 LINE",
"171.12 737 LINE",
"60 625.87 LINE",
"60 111.12 LINE",
"171.12 0 LINE"
);
},
{
closed = 1;
nodes = (
"412 -182.63 LINE",
"412 -57.25 LINE",
"291 -57.25 LINE",
"291 -182.63 LINE"
);
},
{
closed = 1;
nodes = (
"185.62 154 LINE",
"185.12 583 LINE",
"229.37 626.75 LINE",
"473.5 627.12 LINE",
"517.37 583 LINE",
"517.75 154.12 LINE",
"473.62 110.25 LINE",
"229.5 109.87 LINE"
);
}
);
width = 703;
}
);
leftKerningGroup = C;
note = uni1EE2;
rightKerningGroup = O;
unicode = 1EE2;
},
{
glyphname = uni1EDC;
lastChange = "2019-09-03 16:30:53 +0000";
layers = (
{
hints = (
{
horizontal = 1;
place = "{0, 110.06}";
type = Stem;
},
{
horizontal = 1;
place = "{626.94, 110.06}";
type = Stem;
},
{
horizontal = 1;
place = "{794.25, 154}";
type = Stem;
},
{
place = "{60, 125.37}";
type = Stem;
},
{
place = "{517.56, 125.44}";
type = Stem;
},
{
horizontal = 1;
place = "{606.12, 76.88}";
type = Stem;
}
);
layerId = "45368931-0D76-4CB6-835F-B3D628A2F0B6";
paths = (
{
closed = 1;
nodes = (
"531.87 0 LINE",
"643 111.12 LINE",
"643 606.12 LINE",
"725.25 606.12 LINE",
"794.75 801.62 LINE",
"667.5 801.62 LINE",
"651.12 683 LINE",
"585.87 683 LINE",
"531.87 737 LINE",
"171.12 737 LINE",
"60 625.87 LINE",
"60 111.12 LINE",
"171.12 0 LINE"
);
},
{
closed = 1;
nodes = (
"185.62 154 LINE",
"185.12 583 LINE",
"229.37 626.75 LINE",
"473.5 627.12 LINE",
"517.37 583 LINE",
"517.75 154.12 LINE",
"473.62 110.25 LINE",
"229.5 109.87 LINE"
);
},
{
closed = 1;
nodes = (
"397.5 794.25 LINE",
"296.37 948.25 LINE",
"157.75 948.25 LINE",
"296.37 794.25 LINE"
);
}
);
width = 703;
}
);
leftKerningGroup = C;
note = uni1EDC;
rightKerningGroup = O;
unicode = 1EDC;
},
{
glyphname = uni1EDE;
lastChange = "2019-09-03 16:30:53 +0000";
layers = (
{
hints = (
{
horizontal = 1;
place = "{0, 110.06}";
type = Stem;
},
{
horizontal = 1;
place = "{626.94, 110.06}";
type = Stem;
},
{
horizontal = 1;
place = "{794.25, 69.12}";
type = Stem;
},
{
horizontal = 1;
place = "{939, 71}";
type = Stem;
},
{
place = "{60, 125.37}";
type = Stem;
},
{
place = "{376, 87.37}";
type = Stem;
},
{
place = "{517.56, 125.44}";
type = Stem;
},
{
place = "{311.25, 80.37}";
type = Stem;
},
{
horizontal = 1;
place = "{606.12, 76.88}";
type = Stem;
}
);
layerId = "45368931-0D76-4CB6-835F-B3D628A2F0B6";
paths = (
{
closed = 1;
nodes = (
"531.87 0 LINE",
"643 111.12 LINE",
"643 606.12 LINE",
"725.25 606.12 LINE",
"794.75 801.62 LINE",
"667.5 801.62 LINE",
"651.12 683 LINE",
"585.87 683 LINE",
"531.87 737 LINE",
"171.12 737 LINE",
"60 625.87 LINE",
"60 111.12 LINE",
"171.12 0 LINE"
);
},
{
closed = 1;
nodes = (
"185.62 154 LINE",
"185.12 583 LINE",
"229.37 626.75 LINE",
"473.5 627.12 LINE",
"517.37 583 LINE",
"517.75 154.12 LINE",
"473.62 110.25 LINE",
"229.5 109.87 LINE"
);
},
{
closed = 1;
nodes = (
"391.62 794.25 LINE",
"391.62 830.37 LINE",
"463.37 884.75 LINE",
"463.37 960.12 LINE",
"413.62 1010 LINE",
"297.12 1010 LINE",
"246.12 958.75 LINE",
"301.12 903.37 LINE",
"337.25 939 LINE",
"371.87 939 LINE",
"376 934.87 LINE",
"376 915.37 LINE",
"311.25 863.37 LINE",
"311.25 794.25 LINE"
);
}
);
width = 703;
}
);
leftKerningGroup = C;
note = uni1EDE;
rightKerningGroup = O;
unicode = 1EDE;
},
{
glyphname = uni1EE0;
lastChange = "2019-09-03 16:30:53 +0000";
layers = (
{
hints = (
{
horizontal = 1;
place = "{0, 110.06}";
type = Stem;
},
{
horizontal = 1;
place = "{626.94, 110.06}";
type = Stem;
},
{
horizontal = 1;
place = "{860.25, 75.87}";
type = Stem;
},
{
place = "{161.75, 69.87}";
type = Stem;
},
{
place = "{517.56, 125.44}";
type = Stem;
},
{
horizontal = 1;
place = "{794.25, 75.87}";
type = Stem;
},
{
place = "{60, 125.37}";
type = Stem;
},
{
place = "{476.87, 69.88}";
type = Stem;
},
{
horizontal = 1;
place = "{606.12, 76.88}";
type = Stem;
}
);
layerId = "45368931-0D76-4CB6-835F-B3D628A2F0B6";
paths = (
{
closed = 1;
nodes = (
"531.87 0 LINE",
"643 111.12 LINE",
"643 606.12 LINE",
"725.25 606.12 LINE",
"794.75 801.62 LINE",
"667.5 801.62 LINE",
"651.12 683 LINE",
"585.87 683 LINE",
"531.87 737 LINE",
"171.12 737 LINE",
"60 625.87 LINE",
"60 111.12 LINE",
"171.12 0 LINE"
);
},
{
closed = 1;
nodes = (
"185.62 154 LINE",
"185.12 583 LINE",
"229.37 626.75 LINE",
"473.5 627.12 LINE",
"517.37 583 LINE",
"517.75 154.12 LINE",
"473.62 110.25 LINE",
"229.5 109.87 LINE"
);
},
{
closed = 1;
nodes = (
"480.25 794.25 LINE",
"546.25 861.25 LINE",
"547.25 932.75 LINE",
"476.87 932.75 LINE",
"476.87 906.37 LINE",
"441.75 870.12 LINE",
"410.87 870.12 LINE",
"341.62 936.12 LINE",
"228.25 936.12 LINE",
"162.25 869 LINE",
"161.25 797.5 LINE",
"231.62 797.5 LINE",
"231.62 823.87 LINE",
"266.75 860.25 LINE",
"297.62 860.25 LINE",
"366.87 794.25 LINE"
);
}
);
width = 703;
}
);
leftKerningGroup = C;
note = uni1EE0;
rightKerningGroup = O;
unicode = 1EE0;
},
{
glyphname = Ohungarumlaut;
lastChange = "2019-09-03 16:30:53 +0000";
layers = (
{
hints = (
{
horizontal = 1;
place = "{0, 110.06}";
type = Stem;
},
{
horizontal = 1;
place = "{626.94, 110.06}";
type = Stem;
},
{
horizontal = 1;
place = "{794.25, 154}";
type = Stem;
},
{
place = "{60, 125.37}";
type = Stem;
},
{
place = "{517.56, 125.44}";
type = Stem;
}
);
layerId = "45368931-0D76-4CB6-835F-B3D628A2F0B6";
paths = (
{
closed = 1;
nodes = (
"531.87 0 LINE",
"643 111.12 LINE",
"643 625.87 LINE",
"531.87 737 LINE",
"171.12 737 LINE",
"60 625.87 LINE",
"60 111.12 LINE",
"171.12 0 LINE"
);
},
{
closed = 1;
nodes = (
"185.62 154 LINE",
"185.12 583 LINE",
"229.37 626.75 LINE",
"473.5 627.12 LINE",
"517.37 583 LINE",
"517.75 154.12 LINE",
"473.62 110.25 LINE",
"229.5 109.87 LINE"
);
},
{
closed = 1;
nodes = (
"307.5 794.25 LINE",
"446.12 948.25 LINE",
"318.5 948.25 LINE",
"217.25 794.25 LINE"
);
},
{
closed = 1;
nodes = (
"501.12 794.25 LINE",
"639.75 948.25 LINE",
"512.12 948.25 LINE",
"410.87 794.25 LINE"
);
}
);
width = 703;
}
);
leftKerningGroup = C;
note = Ohungarumlaut;
rightKerningGroup = O;
unicode = 0150;
},
{
glyphname = uni020E;
lastChange = "2019-09-03 16:30:53 +0000";
layers = (
{
hints = (
{
horizontal = 1;
place = "{0, 110.06}";
type = Stem;
},
{
horizontal = 1;
place = "{626.94, 110.06}";
type = Stem;
},
{
horizontal = 1;
place = "{859.12, 78.13}";
type = Stem;
},
{
place = "{60, 125.37}";
type = Stem;
},
{
place = "{200.75, 80.37}";
type = Stem;
},
{
place = "{421.87, 80.38}";
type = Stem;
},
{
place = "{517.56, 125.44}";
type = Stem;
}
);
layerId = "45368931-0D76-4CB6-835F-B3D628A2F0B6";
paths = (
{
closed = 1;
nodes = (
"531.87 0 LINE",
"643 111.12 LINE",
"643 625.87 LINE",
"531.87 737 LINE",
"171.12 737 LINE",
"60 625.87 LINE",
"60 111.12 LINE",
"171.12 0 LINE"
);
},
{
closed = 1;
nodes = (
"185.62 154 LINE",
"185.12 583 LINE",
"229.37 626.75 LINE",
"473.5 627.12 LINE",
"517.37 583 LINE",
"517.75 154.12 LINE",
"473.62 110.25 LINE",
"229.5 109.87 LINE"
);
},
{
closed = 1;
nodes = (
"281.12 794.25 LINE",
"281.12 838.25 LINE",
"302 859.12 LINE",
"401 859.12 LINE",
"421.87 838.25 LINE",
"421.87 794.25 LINE",
"502.25 794.25 LINE",
"502.25 867.87 LINE",
"432.87 937.25 LINE",
"270.12 937.25 LINE",
"200.75 867.87 LINE",
"200.75 794.25 LINE"
);
}
);
width = 703;
}
);
leftKerningGroup = C;
note = uni020E;
rightKerningGroup = O;
unicode = 020E;
},
{
glyphname = Omacron;
lastChange = "2019-09-03 16:30:53 +0000";
layers = (
{
hints = (
{
horizontal = 1;
place = "{0, 110.06}";
type = Stem;
},
{
horizontal = 1;
place = "{626.94, 110.06}";
type = Stem;
},
{
horizontal = 1;
place = "{794.25, 90.12}";
type = Stem;
},
{
place = "{60, 125.37}";
type = Stem;
},
{
place = "{517.56, 125.44}";
type = Stem;
}
);
layerId = "45368931-0D76-4CB6-835F-B3D628A2F0B6";
paths = (
{
closed = 1;
nodes = (
"531.87 0 LINE",
"643 111.12 LINE",
"643 625.87 LINE",
"531.87 737 LINE",
"171.12 737 LINE",
"60 625.87 LINE",
"60 111.12 LINE",
"171.12 0 LINE"
);
},
{
closed = 1;
nodes = (
"185.62 154 LINE",
"185.12 583 LINE",
"229.37 626.75 LINE",
"473.5 627.12 LINE",
"517.37 583 LINE",
"517.75 154.12 LINE",
"473.62 110.25 LINE",
"229.5 109.87 LINE"
);
},
{
closed = 1;
nodes = (
"544.5 794.25 LINE",
"544.5 884.37 LINE",
"158.5 884.37 LINE",
"158.5 794.25 LINE"
);
}
);
width = 703;
}
);
leftKerningGroup = C;
note = Omacron;
rightKerningGroup = O;
unicode = 014C;
},
{
glyphname = uni01EA;
lastChange = "2019-09-03 16:30:53 +0000";
layers = (
{
hints = (
{
horizontal = 1;
place = "{-171.63, 81.38}";
type = Stem;
},
{
horizontal = 1;
place = "{0, 110.06}";
type = Stem;
},
{
horizontal = 1;
place = "{626.94, 110.06}";
type = Stem;
},
{
place = "{60, 125.37}";
type = Stem;
},
{
place = "{417.37, 75.88}";
type = Stem;
},
{
place = "{517.56, 125.44}";
type = Stem;
}
);
layerId = "45368931-0D76-4CB6-835F-B3D628A2F0B6";
paths = (
{
closed = 1;
nodes = (
"546 -171.63 LINE",
"546 -90.25 LINE",
"514.12 -90.25 LINE",
"493.25 -69.25 LINE",
"493.25 -38.5 LINE",
"643 111.12 LINE",
"643 625.87 LINE",
"531.87 737 LINE",
"171.12 737 LINE",
"60 625.87 LINE",
"60 111.12 LINE",
"171.12 0 LINE",
"458.37 0 LINE",
"417.37 -33 LINE",
"417.37 -107.75 LINE",
"481.12 -171.63 LINE"
);
},
{
closed = 1;
nodes = (
"185.62 154 LINE",
"185.12 583 LINE",
"229.37 626.75 LINE",
"473.5 627.12 LINE",
"517.37 583 LINE",
"517.75 154.12 LINE",
"473.62 110.25 LINE",
"229.5 109.87 LINE"
);
}
);
width = 703;
}
);
leftKerningGroup = C;
note = uni01EA;
rightKerningGroup = O;
unicode = 01EA;
},
{
glyphname = Oslash;
lastChange = "2019-09-03 16:30:53 +0000";
layers = (
{
hints = (
{
horizontal = 1;
place = "{0, 110.07}";
type = Stem;
},
{
horizontal = 1;
place = "{626.93, 110.07}";
type = Stem;
},
{
place = "{60, 125.34}";
type = Stem;
},
{
place = "{517.58, 125.42}";
type = Stem;
}
);
layerId = "45368931-0D76-4CB6-835F-B3D628A2F0B6";
paths = (
{
closed = 1;
nodes = (
"531.87 0 LINE",
"643 111.12 LINE",
"643 625.87 LINE",
"531.87 737 LINE",
"171.12 737 LINE",
"60 625.87 LINE",
"60 111.12 LINE",
"171.12 0 LINE"
);
},
{
closed = 1;
nodes = (
"517.42 528.17 LINE",
"517.75 154.12 LINE",
"473.62 110.25 LINE",
"235.3 109.88 LINE"
);
},
{
closed = 1;
nodes = (
"185.12 583 LINE",
"229.37 626.75 LINE",
"467.74 627.11 LINE",
"185.56 208.74 LINE"
);
}
);
width = 703;
}
);
leftKerningGroup = C;
note = Oslash;
rightKerningGroup = O;
unicode = 00D8;
},
{
glyphname = Oslashacute;
lastChange = "2019-09-03 16:30:53 +0000";
layers = (
{
hints = (
{
horizontal = 1;
place = "{0, 110.07}";
type = Stem;
},
{
horizontal = 1;
place = "{626.93, 110.07}";
type = Stem;
},
{
horizontal = 1;
place = "{794.25, 154}";
type = Stem;
},
{
place = "{60, 125.34}";
type = Stem;
},
{
place = "{517.58, 125.42}";
type = Stem;
}
);
layerId = "45368931-0D76-4CB6-835F-B3D628A2F0B6";
paths = (
{
closed = 1;
nodes = (
"531.87 0 LINE",
"643 111.12 LINE",
"643 625.87 LINE",
"531.87 737 LINE",
"171.12 737 LINE",
"60 625.87 LINE",
"60 111.12 LINE",
"171.12 0 LINE"
);
},
{
closed = 1;
nodes = (
"517.42 528.17 LINE",
"517.75 154.12 LINE",
"473.62 110.25 LINE",
"235.3 109.88 LINE"
);
},
{
closed = 1;
nodes = (
"185.12 583 LINE",
"229.37 626.75 LINE",
"467.74 627.11 LINE",
"185.56 208.74 LINE"
);
},
{
closed = 1;
nodes = (
"402 794.25 LINE",
"540.62 948.25 LINE",
"402 948.25 LINE",
"300.87 794.25 LINE"
);
}
);
width = 703;
}
);
leftKerningGroup = C;
note = Oslashacute;
rightKerningGroup = O;
unicode = 01FE;
},
{
glyphname = Otilde;
lastChange = "2019-09-03 16:30:53 +0000";
layers = (
{
hints = (
{
horizontal = 1;
place = "{0, 110.06}";
type = Stem;
},
{
horizontal = 1;
place = "{626.94, 110.06}";
type = Stem;
},
{
horizontal = 1;
place = "{860.25, 75.87}";
type = Stem;
},
{
place = "{161.75, 69.87}";
type = Stem;
},
{
place = "{517.56, 125.44}";
type = Stem;
},
{
horizontal = 1;
place = "{794.25, 75.87}";
type = Stem;
},
{
place = "{60, 125.37}";
type = Stem;
},
{
place = "{476.87, 69.88}";
type = Stem;
}
);
layerId = "45368931-0D76-4CB6-835F-B3D628A2F0B6";
paths = (
{
closed = 1;
nodes = (
"531.87 0 LINE",
"643 111.12 LINE",
"643 625.87 LINE",
"531.87 737 LINE",
"171.12 737 LINE",
"60 625.87 LINE",
"60 111.12 LINE",
"171.12 0 LINE"
);
},
{
closed = 1;
nodes = (
"185.62 154 LINE",
"185.12 583 LINE",
"229.37 626.75 LINE",
"473.5 627.12 LINE",
"517.37 583 LINE",
"517.75 154.12 LINE",
"473.62 110.25 LINE",
"229.5 109.87 LINE"
);
},
{
closed = 1;
nodes = (
"480.25 794.25 LINE",
"546.25 861.25 LINE",
"547.25 932.75 LINE",
"476.87 932.75 LINE",
"476.87 906.37 LINE",
"441.75 870.12 LINE",
"410.87 870.12 LINE",
"341.62 936.12 LINE",
"228.25 936.12 LINE",
"162.25 869 LINE",
"161.25 797.5 LINE",
"231.62 797.5 LINE",
"231.62 823.87 LINE",
"266.75 860.25 LINE",
"297.62 860.25 LINE",
"366.87 794.25 LINE"
);
}
);
width = 703;
}
);
leftKerningGroup = C;
note = Otilde;
rightKerningGroup = O;
unicode = 00D5;
},
{
glyphname = uni022C;
lastChange = "2019-09-03 16:30:53 +0000";
layers = (
{
hints = (
{
horizontal = 1;
place = "{0, 110.06}";
type = Stem;
},
{
horizontal = 1;
place = "{626.94, 110.06}";
type = Stem;
},
{
horizontal = 1;
place = "{794.25, 75.87}";
type = Stem;
},
{
horizontal = 1;
place = "{967.37, 90.13}";
type = Stem;
},
{
place = "{60, 125.37}";
type = Stem;
},
{
place = "{517.56, 125.44}";
type = Stem;
},
{
horizontal = 1;
place = "{860.25, 75.87}";
type = Stem;
},
{
place = "{161.75, 69.87}";
type = Stem;
},
{
place = "{476.87, 69.88}";
type = Stem;
}
);
layerId = "45368931-0D76-4CB6-835F-B3D628A2F0B6";
paths = (
{
closed = 1;
nodes = (
"531.87 0 LINE",
"643 111.12 LINE",
"643 625.87 LINE",
"531.87 737 LINE",
"171.12 737 LINE",
"60 625.87 LINE",
"60 111.12 LINE",
"171.12 0 LINE"
);
},
{
closed = 1;
nodes = (
"185.62 154 LINE",
"185.12 583 LINE",
"229.37 626.75 LINE",
"473.5 627.12 LINE",
"517.37 583 LINE",
"517.75 154.12 LINE",
"473.62 110.25 LINE",
"229.5 109.87 LINE"
);
},
{
closed = 1;
nodes = (
"480.25 794.25 LINE",
"546.25 861.25 LINE",
"547.25 932.75 LINE",
"476.87 932.75 LINE",
"476.87 906.37 LINE",
"441.75 870.12 LINE",
"410.87 870.12 LINE",
"341.62 936.12 LINE",
"228.25 936.12 LINE",
"162.25 869 LINE",
"161.25 797.5 LINE",
"231.62 797.5 LINE",
"231.62 823.87 LINE",
"266.75 860.25 LINE",
"297.62 860.25 LINE",
"366.87 794.25 LINE"
);
},
{
closed = 1;
nodes = (
"544.5 967.37 LINE",
"544.5 1057.5 LINE",
"158.5 1057.5 LINE",
"158.5 967.37 LINE"
);
}
);
width = 703;
}
);
leftKerningGroup = C;
note = uni022C;
rightKerningGroup = O;
unicode = 022C;
},
{
glyphname = OE;
lastChange = "2019-09-03 16:31:07 +0000";
layers = (
{
hints = (
{
horizontal = 1;
place = "{0, 114.37}";
type = Stem;
},
{
horizontal = 1;
place = "{328.87, 114.38}";
type = Stem;
},
{
horizontal = 1;
place = "{622.62, 114.38}";
type = Stem;
},
{
place = "{60, 125.37}";
type = Stem;
},
{
place = "{517.65, 125.4}";
type = Stem;
}
);
layerId = "45368931-0D76-4CB6-835F-B3D628A2F0B6";
paths = (
{
closed = 1;
nodes = (
"1021 0 LINE",
"1021 114.37 LINE",
"643.05 114.37 LINE",
"643.05 328.87 LINE",
"988 328.87 LINE",
"988 443.25 LINE",
"643.05 443.25 LINE",
"643.05 622.62 LINE",
"1021 622.62 LINE",
"1021 737 LINE",
"171.12 737 LINE",
"60 625.87 LINE",
"60 111.12 LINE",
"171.12 0 LINE"
);
},
{
closed = 1;
nodes = (
"185.62 154 LINE",
"185.12 583 LINE",
"229.37 626.75 LINE",
"473.5 627.12 LINE",
"517.37 583 LINE",
"517.65 154.02 LINE",
"473.62 110.25 LINE",
"229.5 109.87 LINE"
);
}
);
width = 1071;
}
);
leftKerningGroup = C;
note = OE;
rightKerningGroup = AE;
unicode = 0152;
},
{
glyphname = P;
lastChange = "2019-09-03 16:30:53 +0000";
layers = (
{
hints = (
{
horizontal = 1;
place = "{254.12, 110.14}";
type = Stem;
},
{
horizontal = 1;
place = "{627.14, 109.86}";
type = Stem;
},
{
place = "{80, 125.4}";
type = Stem;
},
{
place = "{480.31, 125.44}";
type = Stem;
}
);
layerId = "45368931-0D76-4CB6-835F-B3D628A2F0B6";
paths = (
{
closed = 1;
nodes = (
"205.4 0 LINE",
"205.4 254.12 LINE",
"494.62 254.12 LINE",
"605.75 365.25 LINE",
"605.75 625.87 LINE",
"494.62 737 LINE",
"80 737 LINE",
"80 0 LINE"
);
},
{
closed = 1;
nodes = (
"205.4 627.03 LINE",
"436.37 627.25 LINE",
"480.12 583 LINE",
"480.5 408.25 LINE",
"436.37 364.37 LINE",
"205.4 364.15 LINE"
);
}
);
width = 626;
}
);
leftKerningGroup = B;
note = P;
rightKerningGroup = P;
unicode = 0050;
},
{
glyphname = Thorn;
lastChange = "2019-09-03 16:30:53 +0000";
layers = (
{
hints = (
{
horizontal = 1;
place = "{136.37, 110.14}";
type = Stem;
},
{
horizontal = 1;
place = "{509.46, 109.79}";
type = Stem;
},
{
place = "{80, 125.4}";
type = Stem;
},
{
place = "{480.31, 125.44}";
type = Stem;
}
);
layerId = "45368931-0D76-4CB6-835F-B3D628A2F0B6";
paths = (
{
closed = 1;
nodes = (
"205.4 -2.25 LINE",
"205.4 136.37 LINE",
"494.62 136.37 LINE",
"605.75 247.5 LINE",
"605.75 508.25 LINE",
"494.62 619.25 LINE",
"205.4 619.25 LINE",
"205.4 734.75 LINE",
"80 734.75 LINE",
"80 -2.25 LINE"
);
},
{
closed = 1;
nodes = (
"205.4 509.3 LINE",
"436.37 509.62 LINE",
"480.12 465.25 LINE",
"480.5 290.5 LINE",
"436.37 246.62 LINE",
"205.4 246.4 LINE"
);
}
);
width = 626;
}
);
leftKerningGroup = B;
note = Thorn;
rightKerningGroup = Thorn;
unicode = 00DE;
},
{
glyphname = Q;
lastChange = "2019-09-03 16:30:53 +0000";
layers = (
{
hints = (
{
horizontal = 1;
place = "{0, 109.93}";
type = Stem;
},
{
horizontal = 1;
place = "{626.94, 110.06}";
type = Stem;
},
{
place = "{60, 125.37}";
type = Stem;
},
{
place = "{297.62, 107.75}";
type = Stem;
},
{
place = "{517.56, 125.44}";
type = Stem;
}
);
layerId = "45368931-0D76-4CB6-835F-B3D628A2F0B6";
paths = (
{
closed = 1;
nodes = (
"405.37 -89.13 LINE",
"405.37 0 LINE",
"531.87 0 LINE",
"643 111.12 LINE",
"643 625.87 LINE",
"531.87 737 LINE",
"171.12 737 LINE",
"60 625.87 LINE",
"60 111.12 LINE",
"171.12 0 LINE",
"297.62 0 LINE",
"297.62 -89.13 LINE"
);
},
{
closed = 1;
nodes = (
"185.62 154 LINE",
"185.12 583 LINE",
"229.37 626.75 LINE",
"473.5 627.12 LINE",
"517.37 583 LINE",
"517.75 154.12 LINE",
"473.62 110.25 LINE",
"405.37 110.14 LINE",
"405.37 209 LINE",
"297.62 209 LINE",
"297.62 109.98 LINE",
"229.5 109.87 LINE"
);
}
);
width = 703;
}
);
leftKerningGroup = C;
note = Q;
rightKerningGroup = O;
unicode = 0051;
},
{
glyphname = R;
lastChange = "2019-09-03 16:30:53 +0000";
layers = (
{
hints = (
{
horizontal = 1;
place = "{270.62, 110.14}";
type = Stem;
},
{
horizontal = 1;
place = "{627.14, 109.86}";
type = Stem;
},
{
place = "{80, 125.4}";
type = Stem;
},
{
place = "{494.75, 125.37}";
type = Stem;
}
);
layerId = "45368931-0D76-4CB6-835F-B3D628A2F0B6";
paths = (
{
closed = 1;
nodes = (
"205.4 0 LINE",
"205.4 270.62 LINE",
"386.39 270.62 LINE",
"502.37 0 LINE",
"644.25 0 LINE",
"519.36 280.99 LINE",
"620.12 381.75 LINE",
"620.12 625.87 LINE",
"509 737 LINE",
"80 737 LINE",
"80 0 LINE"
);
},
{
closed = 1;
nodes = (
"205.4 627.03 LINE",
"450.62 627.25 LINE",
"494.5 583 LINE",
"495 424.62 LINE",
"450.62 380.87 LINE",
"205.4 380.65 LINE"
);
}
);
width = 694;
}
);
leftKerningGroup = B;
note = R;
rightKerningGroup = R;
unicode = 0052;
},
{
glyphname = Racute;
lastChange = "2019-09-03 16:30:53 +0000";
layers = (
{
hints = (
{
horizontal = 1;
place = "{270.62, 110.14}";
type = Stem;
},
{
horizontal = 1;
place = "{627.14, 109.86}";
type = Stem;
},
{
horizontal = 1;
place = "{794.25, 154}";
type = Stem;
},
{
place = "{80, 125.4}";
type = Stem;
},
{
place = "{494.75, 125.37}";
type = Stem;
}
);
layerId = "45368931-0D76-4CB6-835F-B3D628A2F0B6";
paths = (
{
closed = 1;
nodes = (
"205.4 0 LINE",
"205.4 270.62 LINE",
"386.39 270.62 LINE",
"502.37 0 LINE",
"644.25 0 LINE",
"519.36 280.99 LINE",
"620.12 381.75 LINE",
"620.12 625.87 LINE",
"509 737 LINE",
"80 737 LINE",
"80 0 LINE"
);
},
{
closed = 1;
nodes = (
"205.4 627.03 LINE",
"450.62 627.25 LINE",
"494.5 583 LINE",
"495 424.62 LINE",
"450.62 380.87 LINE",
"205.4 380.65 LINE"
);
},
{
closed = 1;
nodes = (
"375.75 794.25 LINE",
"514.37 948.25 LINE",
"375.75 948.25 LINE",
"274.62 794.25 LINE"
);
}
);
width = 694;
}
);
leftKerningGroup = B;
note = Racute;
rightKerningGroup = R;
unicode = 0154;
},
{
glyphname = Rcaron;
lastChange = "2019-09-03 16:30:53 +0000";
layers = (
{
hints = (
{
horizontal = 1;
place = "{270.62, 110.14}";
type = Stem;
},
{
horizontal = 1;
place = "{627.14, 109.86}";
type = Stem;
},
{
horizontal = 1;
place = "{794.25, 143}";
type = Stem;
},
{
place = "{80, 125.4}";
type = Stem;
},
{
place = "{494.75, 125.37}";
type = Stem;
}
);
layerId = "45368931-0D76-4CB6-835F-B3D628A2F0B6";
paths = (
{
closed = 1;
nodes = (
"205.4 0 LINE",
"205.4 270.62 LINE",
"386.39 270.62 LINE",
"502.37 0 LINE",
"644.25 0 LINE",
"519.36 280.99 LINE",
"620.12 381.75 LINE",
"620.12 625.87 LINE",
"509 737 LINE",
"80 737 LINE",
"80 0 LINE"
);
},
{
closed = 1;
nodes = (
"205.4 627.03 LINE",
"450.62 627.25 LINE",
"494.5 583 LINE",
"495 424.62 LINE",
"450.62 380.87 LINE",
"205.4 380.65 LINE"
);
},
{
closed = 1;
nodes = (
"389 794.25 LINE",
"493.5 937.25 LINE",
"392.37 937.25 LINE",
"325.25 869.12 LINE",
"258.12 937.25 LINE",
"157 937.25 LINE",
"261.5 794.25 LINE"
);
}
);
width = 694;
}
);
leftKerningGroup = B;
note = Rcaron;
rightKerningGroup = R;
unicode = 0158;
},
{
glyphname = uni0156;
lastChange = "2019-09-03 16:30:53 +0000";
layers = (
{
hints = (
{
horizontal = 1;
place = "{-239.75, 182.5}";
type = Stem;
},
{
horizontal = 1;
place = "{270.62, 110.14}";
type = Stem;
},
{
horizontal = 1;
place = "{627.14, 109.86}";
type = Stem;
},
{
place = "{80, 125.4}";
type = Stem;
},
{
place = "{494.75, 125.37}";
type = Stem;
}
);
layerId = "45368931-0D76-4CB6-835F-B3D628A2F0B6";
paths = (
{
closed = 1;
nodes = (
"205.4 0 LINE",
"205.4 270.62 LINE",
"386.39 270.62 LINE",
"502.37 0 LINE",
"644.25 0 LINE",
"519.36 280.99 LINE",
"620.12 381.75 LINE",
"620.12 625.87 LINE",
"509 737 LINE",
"80 737 LINE",
"80 0 LINE"
);
},
{
closed = 1;
nodes = (
"315.25 -239.75 LINE",
"406.62 -57.25 LINE",
"288.87 -57.25 LINE",
"248.25 -239.75 LINE"
);
},
{
closed = 1;
nodes = (
"205.4 627.03 LINE",
"450.62 627.25 LINE",
"494.5 583 LINE",
"495 424.62 LINE",
"450.62 380.87 LINE",
"205.4 380.65 LINE"
);
}
);
width = 694;
}
);
leftKerningGroup = B;
note = uni0156;
rightKerningGroup = R;
unicode = 0156;
},
{
glyphname = uni0210;
lastChange = "2019-09-03 16:30:53 +0000";
layers = (
{
hints = (
{
horizontal = 1;
place = "{270.62, 110.14}";
type = Stem;
},
{
horizontal = 1;
place = "{627.14, 109.86}";
type = Stem;
},
{
horizontal = 1;
place = "{794.25, 154}";
type = Stem;
},
{
place = "{80, 125.4}";
type = Stem;
},
{
place = "{494.75, 125.37}";
type = Stem;
}
);
layerId = "45368931-0D76-4CB6-835F-B3D628A2F0B6";
paths = (
{
closed = 1;
nodes = (
"205.4 0 LINE",
"205.4 270.62 LINE",
"386.39 270.62 LINE",
"502.37 0 LINE",
"644.25 0 LINE",
"519.36 280.99 LINE",
"620.12 381.75 LINE",
"620.12 625.87 LINE",
"509 737 LINE",
"80 737 LINE",
"80 0 LINE"
);
},
{
closed = 1;
nodes = (
"205.4 627.03 LINE",
"450.62 627.25 LINE",
"494.5 583 LINE",
"495 424.62 LINE",
"450.62 380.87 LINE",
"205.4 380.65 LINE"
);
},
{
closed = 1;
nodes = (
"282.25 794.25 LINE",
"181 948.25 LINE",
"53.37 948.25 LINE",
"192 794.25 LINE"
);
},
{
closed = 1;
nodes = (
"475.87 794.25 LINE",
"374.62 948.25 LINE",
"247 948.25 LINE",
"385.62 794.25 LINE"
);
}
);
width = 694;
}
);
leftKerningGroup = B;
note = uni0210;
rightKerningGroup = R;
unicode = 0210;
},
{
glyphname = uni0212;
lastChange = "2019-09-03 16:30:53 +0000";
layers = (
{
hints = (
{
horizontal = 1;
place = "{270.62, 110.14}";
type = Stem;
},
{
horizontal = 1;
place = "{627.14, 109.86}";
type = Stem;
},
{
horizontal = 1;
place = "{859.12, 78.13}";
type = Stem;
},
{
place = "{174.5, 80.37}";
type = Stem;
},
{
place = "{395.62, 80.38}";
type = Stem;
},
{
place = "{494.75, 125.37}";
type = Stem;
},
{
place = "{80, 125.4}";
type = Stem;
}
);
layerId = "45368931-0D76-4CB6-835F-B3D628A2F0B6";
paths = (
{
closed = 1;
nodes = (
"205.4 0 LINE",
"205.4 270.62 LINE",
"386.39 270.62 LINE",
"502.37 0 LINE",
"644.25 0 LINE",
"519.36 280.99 LINE",
"620.12 381.75 LINE",
"620.12 625.87 LINE",
"509 737 LINE",
"80 737 LINE",
"80 0 LINE"
);
},
{
closed = 1;
nodes = (
"205.4 627.03 LINE",
"450.62 627.25 LINE",
"494.5 583 LINE",
"495 424.62 LINE",
"450.62 380.87 LINE",
"205.4 380.65 LINE"
);
},
{
closed = 1;
nodes = (
"254.87 794.25 LINE",
"254.87 838.25 LINE",
"275.75 859.12 LINE",
"374.75 859.12 LINE",
"395.62 838.25 LINE",
"395.62 794.25 LINE",
"476 794.25 LINE",
"476 867.87 LINE",
"406.62 937.25 LINE",
"243.87 937.25 LINE",
"174.5 867.87 LINE",
"174.5 794.25 LINE"
);
}
);
width = 694;
}
);
leftKerningGroup = B;
note = uni0212;
rightKerningGroup = R;
unicode = 0212;
},
{
glyphname = S;
lastChange = "2019-09-03 16:30:53 +0000";
layers = (
{
hints = (
{
horizontal = 1;
place = "{0, 114.5}";
type = Stem;
},
{
horizontal = 1;
place = "{326.88, 109.56}";
type = Stem;
},
{
horizontal = 1;
place = "{622.5, 114.5}";
type = Stem;
},
{
place = "{55, 125.37}";
type = Stem;
},
{
place = "{489.43, 125.57}";
type = Stem;
}
);
layerId = "45368931-0D76-4CB6-835F-B3D628A2F0B6";
paths = (
{
closed = 1;
nodes = (
"503.87 0 LINE",
"615 111.12 LINE",
"615 325.5 LINE",
"503.87 436.5 LINE",
"224.5 436.37 LINE",
"180.62 480.75 LINE",
"180.12 578.62 LINE",
"224.5 622.37 LINE",
"574.25 622.62 LINE",
"574.25 737 LINE",
"166.12 737 LINE",
"55 625.87 LINE",
"55 437.75 LINE",
"166.12 326.75 LINE",
"445.5 327 LINE",
"489.25 282.75 LINE",
"489.62 158.5 LINE",
"445.5 114.62 LINE",
"80.37 114.37 LINE",
"80.37 0 LINE"
);
}
);
width = 670;
}
);
leftKerningGroup = S;
note = S;
rightKerningGroup = S;
unicode = 0053;
},
{
glyphname = Sacute;
lastChange = "2019-09-03 16:30:53 +0000";
layers = (
{
hints = (
{
horizontal = 1;
place = "{0, 114.5}";
type = Stem;
},
{
horizontal = 1;
place = "{326.88, 109.56}";
type = Stem;
},
{
horizontal = 1;
place = "{622.5, 114.5}";
type = Stem;
},
{
horizontal = 1;
place = "{794.25, 154}";
type = Stem;
},
{
place = "{55, 125.37}";
type = Stem;
},
{
place = "{489.43, 125.57}";
type = Stem;
}
);
layerId = "45368931-0D76-4CB6-835F-B3D628A2F0B6";
paths = (
{
closed = 1;
nodes = (
"503.87 0 LINE",
"615 111.12 LINE",
"615 325.5 LINE",
"503.87 436.5 LINE",
"224.5 436.37 LINE",
"180.62 480.75 LINE",
"180.12 578.62 LINE",
"224.5 622.37 LINE",
"574.25 622.62 LINE",
"574.25 737 LINE",
"166.12 737 LINE",
"55 625.87 LINE",
"55 437.75 LINE",
"166.12 326.75 LINE",
"445.5 327 LINE",
"489.25 282.75 LINE",
"489.62 158.5 LINE",
"445.5 114.62 LINE",
"80.37 114.37 LINE",
"80.37 0 LINE"
);
},
{
closed = 1;
nodes = (
"382.75 794.25 LINE",
"521.37 948.25 LINE",
"382.75 948.25 LINE",
"281.62 794.25 LINE"
);
}
);
width = 670;
}
);
leftKerningGroup = S;
note = Sacute;
rightKerningGroup = S;
unicode = 015A;
},
{
glyphname = Scaron;
lastChange = "2019-09-03 16:30:53 +0000";
layers = (
{
hints = (
{
horizontal = 1;
place = "{0, 114.5}";
type = Stem;
},
{
horizontal = 1;
place = "{326.88, 109.56}";
type = Stem;
},
{
horizontal = 1;
place = "{622.5, 114.5}";
type = Stem;
},
{
horizontal = 1;
place = "{794.25, 143}";
type = Stem;
},
{
place = "{55, 125.37}";
type = Stem;
},
{
place = "{489.43, 125.57}";
type = Stem;
}
);
layerId = "45368931-0D76-4CB6-835F-B3D628A2F0B6";
paths = (
{
closed = 1;
nodes = (
"503.87 0 LINE",
"615 111.12 LINE",
"615 325.5 LINE",
"503.87 436.5 LINE",
"224.5 436.37 LINE",
"180.62 480.75 LINE",
"180.12 578.62 LINE",
"224.5 622.37 LINE",
"574.25 622.62 LINE",
"574.25 737 LINE",
"166.12 737 LINE",
"55 625.87 LINE",
"55 437.75 LINE",
"166.12 326.75 LINE",
"445.5 327 LINE",
"489.25 282.75 LINE",
"489.62 158.5 LINE",
"445.5 114.62 LINE",
"80.37 114.37 LINE",
"80.37 0 LINE"
);
},
{
closed = 1;
nodes = (
"396 794.25 LINE",
"500.5 937.25 LINE",
"399.37 937.25 LINE",
"332.25 869.12 LINE",
"265.12 937.25 LINE",
"164 937.25 LINE",
"268.5 794.25 LINE"
);
}
);
width = 670;
}
);
leftKerningGroup = S;
note = Scaron;
rightKerningGroup = S;
unicode = 0160;
},
{
glyphname = Scedilla;
lastChange = "2019-09-03 16:30:53 +0000";
layers = (
{
hints = (
{
horizontal = 1;
place = "{0, 114.5}";
type = Stem;
},
{
horizontal = 1;
place = "{326.88, 109.56}";
type = Stem;
},
{
horizontal = 1;
place = "{622.5, 114.5}";
type = Stem;
},
{
place = "{55, 125.37}";
type = Stem;
},
{
place = "{489.43, 125.57}";
type = Stem;
}
);
layerId = "45368931-0D76-4CB6-835F-B3D628A2F0B6";
paths = (
{
closed = 1;
nodes = (
"345.5 -125.38 LINE",
"384 0 LINE",
"503.87 0 LINE",
"615 111.12 LINE",
"615 325.5 LINE",
"503.87 436.5 LINE",
"224.5 436.37 LINE",
"180.62 480.75 LINE",
"180.12 578.62 LINE",
"224.5 622.37 LINE",
"574.25 622.62 LINE",
"574.25 737 LINE",
"166.12 737 LINE",
"55 625.87 LINE",
"55 437.75 LINE",
"166.12 326.75 LINE",
"445.5 327 LINE",
"489.25 282.75 LINE",
"489.62 158.5 LINE",
"445.5 114.62 LINE",
"80.37 114.37 LINE",
"80.37 0 LINE",
"280.62 0 LINE",
"260.75 -125.38 LINE"
);
}
);
width = 670;
}
);
leftKerningGroup = S;
note = Scedilla;
rightKerningGroup = S;
unicode = 015E;
},
{
glyphname = Scircumflex;
lastChange = "2019-09-03 16:30:53 +0000";
layers = (
{
hints = (
{
horizontal = 1;
place = "{0, 114.5}";
type = Stem;
},
{
horizontal = 1;
place = "{326.88, 109.56}";
type = Stem;
},
{
horizontal = 1;
place = "{622.5, 114.5}";
type = Stem;
},
{
horizontal = 1;
place = "{794.25, 143}";
type = Stem;
},
{
place = "{55, 125.37}";
type = Stem;
},
{
place = "{489.43, 125.57}";
type = Stem;
}
);
layerId = "45368931-0D76-4CB6-835F-B3D628A2F0B6";
paths = (
{
closed = 1;
nodes = (
"503.87 0 LINE",
"615 111.12 LINE",
"615 325.5 LINE",
"503.87 436.5 LINE",
"224.5 436.37 LINE",
"180.62 480.75 LINE",
"180.12 578.62 LINE",
"224.5 622.37 LINE",
"574.25 622.62 LINE",
"574.25 737 LINE",
"166.12 737 LINE",
"55 625.87 LINE",
"55 437.75 LINE",
"166.12 326.75 LINE",
"445.5 327 LINE",
"489.25 282.75 LINE",
"489.62 158.5 LINE",
"445.5 114.62 LINE",
"80.37 114.37 LINE",
"80.37 0 LINE"
);
},
{
closed = 1;
nodes = (
"265.12 794.25 LINE",
"332.25 862.37 LINE",
"399.37 794.25 LINE",
"500.5 794.25 LINE",
"396 937.25 LINE",
"268.5 937.25 LINE",
"164 794.25 LINE"
);
}
);
width = 670;
}
);
leftKerningGroup = S;
note = Scircumflex;
rightKerningGroup = S;
unicode = 015C;
},
{
glyphname = uni0218;
lastChange = "2019-09-03 16:30:53 +0000";
layers = (
{
hints = (
{
horizontal = 1;
place = "{-239.75, 182.5}";
type = Stem;
},
{
horizontal = 1;
place = "{0, 114.5}";
type = Stem;
},
{
horizontal = 1;
place = "{326.88, 109.56}";
type = Stem;
},
{
horizontal = 1;
place = "{622.5, 114.5}";
type = Stem;
},
{
place = "{55, 125.37}";
type = Stem;
},
{
place = "{489.43, 125.57}";
type = Stem;
}
);
layerId = "45368931-0D76-4CB6-835F-B3D628A2F0B6";
paths = (
{
closed = 1;
nodes = (
"503.87 0 LINE",
"615 111.12 LINE",
"615 325.5 LINE",
"503.87 436.5 LINE",
"224.5 436.37 LINE",
"180.62 480.75 LINE",
"180.12 578.62 LINE",
"224.5 622.37 LINE",
"574.25 622.62 LINE",
"574.25 737 LINE",
"166.12 737 LINE",
"55 625.87 LINE",
"55 437.75 LINE",
"166.12 326.75 LINE",
"445.5 327 LINE",
"489.25 282.75 LINE",
"489.62 158.5 LINE",
"445.5 114.62 LINE",
"80.37 114.37 LINE",
"80.37 0 LINE"
);
},
{
closed = 1;
nodes = (
"291.5 -239.75 LINE",
"382.87 -57.25 LINE",
"265.12 -57.25 LINE",
"224.5 -239.75 LINE"
);
}
);
width = 670;
}
);
leftKerningGroup = S;
note = uni0218;
rightKerningGroup = S;
unicode = 0218;
},
{
glyphname = uni1E9E;
lastChange = "2019-09-03 16:30:53 +0000";
layers = (
{
hints = (
{
horizontal = 1;
place = "{0, 110.13}";
type = Stem;
},
{
horizontal = 1;
place = "{329, 109.87}";
type = Stem;
},
{
horizontal = 1;
place = "{626.94, 110.06}";
type = Stem;
},
{
place = "{80, 125.18}";
type = Stem;
},
{
place = "{516.68, 125.19}";
type = Stem;
}
);
layerId = "45368931-0D76-4CB6-835F-B3D628A2F0B6";
paths = (
{
closed = 1;
nodes = (
"205.25 0 LINE",
"205.12 583 LINE",
"249.37 626.75 LINE",
"384 627.12 LINE",
"438.87 572 LINE",
"282.75 416.87 LINE",
"282.75 328.87 LINE",
"461.5 329.12 LINE",
"516.62 273.87 LINE",
"516.75 154 LINE",
"472.5 110.25 LINE",
"390.37 110 LINE",
"316.75 182.62 LINE",
"235.37 100.12 LINE",
"335.37 0 LINE",
"530.87 0 LINE",
"641.87 111.12 LINE",
"641.87 316.75 LINE",
"519.87 438.87 LINE",
"452 438.87 LINE",
"553.12 540 LINE",
"553.5 625.87 LINE",
"442.37 737 LINE",
"191 737 LINE",
"80 625.87 LINE",
"80 0 LINE"
);
}
);
width = 702;
}
);
leftKerningGroup = B;
note = uni1E9E;
rightKerningGroup = B;
unicode = 1E9E;
},
{
glyphname = uni018F;
lastChange = "2019-09-03 16:30:53 +0000";
layers = (
{
hints = (
{
horizontal = 1;
place = "{0, 110.06}";
type = Stem;
},
{
horizontal = 1;
place = "{322.62, 106.63}";
type = Stem;
},
{
horizontal = 1;
place = "{626.94, 110.06}";
type = Stem;
},
{
place = "{60, 125.49}";
type = Stem;
},
{
place = "{583.67, 125.33}";
type = Stem;
}
);
layerId = "45368931-0D76-4CB6-835F-B3D628A2F0B6";
paths = (
{
closed = 1;
nodes = (
"597.87 0 LINE",
"709 111.12 LINE",
"709 625.87 LINE",
"597.87 737 LINE",
"73.25 737 LINE",
"73.25 626.75 LINE",
"539.5 627.12 LINE",
"583.37 583 LINE",
"583.51 429.25 LINE",
"60 429.25 LINE",
"60 111.12 LINE",
"171.12 0 LINE"
);
},
{
closed = 1;
nodes = (
"185.62 154 LINE",
"185.37 322.62 LINE",
"583.6 322.62 LINE",
"583.75 154.12 LINE",
"539.62 110.25 LINE",
"229.5 109.87 LINE"
);
}
);
width = 769;
}
);
leftKerningGroup = C;
note = uni018F;
rightKerningGroup = O;
unicode = 018F;
},
{
glyphname = T;
lastChange = "2019-09-03 16:30:53 +0000";
layers = (
{
hints = (
{
horizontal = 1;
place = "{622.62, 114.38}";
type = Stem;
},
{
place = "{219.5, 125.4}";
type = Stem;
}
);
layerId = "45368931-0D76-4CB6-835F-B3D628A2F0B6";
paths = (
{
closed = 1;
nodes = (
"344.9 0 LINE",
"344.9 622.62 LINE",
"549.5 622.62 LINE",
"549.5 737 LINE",
"15 737 LINE",
"15 622.62 LINE",
"219.5 622.62 LINE",
"219.5 0 LINE"
);
}
);
width = 565;
}
);
leftKerningGroup = T;
note = T;
rightKerningGroup = T;
unicode = 0054;
},
{
glyphname = Tbar;
lastChange = "2019-09-03 16:30:53 +0000";
layers = (
{
hints = (
{
horizontal = 1;
place = "{319, 92.37}";
type = Stem;
},
{
horizontal = 1;
place = "{622.62, 114.38}";
type = Stem;
},
{
place = "{219.5, 125.4}";
type = Stem;
}
);
layerId = "45368931-0D76-4CB6-835F-B3D628A2F0B6";
paths = (
{
closed = 1;
nodes = (
"344.9 0 LINE",
"344.9 319 LINE",
"502.25 319 LINE",
"502.25 411.37 LINE",
"344.9 411.37 LINE",
"344.9 622.62 LINE",
"549.5 622.62 LINE",
"549.5 737 LINE",
"15 737 LINE",
"15 622.62 LINE",
"219.5 622.62 LINE",
"219.5 411.37 LINE",
"62.25 411.37 LINE",
"62.25 319 LINE",
"219.5 319 LINE",
"219.5 0 LINE"
);
}
);
width = 565;
}
);
leftKerningGroup = T;
note = Tbar;
rightKerningGroup = T;
unicode = 0166;
},
{
glyphname = Tcaron;
lastChange = "2019-09-03 16:30:53 +0000";
layers = (
{
hints = (
{
horizontal = 1;
place = "{622.62, 114.38}";
type = Stem;
},
{
horizontal = 1;
place = "{794.25, 143}";
type = Stem;
},
{
place = "{219.5, 125.4}";
type = Stem;
}
);
layerId = "45368931-0D76-4CB6-835F-B3D628A2F0B6";
paths = (
{
closed = 1;
nodes = (
"344.9 0 LINE",
"344.9 622.62 LINE",
"549.5 622.62 LINE",
"549.5 737 LINE",
"15 737 LINE",
"15 622.62 LINE",
"219.5 622.62 LINE",
"219.5 0 LINE"
);
},
{
closed = 1;
nodes = (
"344.87 794.25 LINE",
"449.37 937.25 LINE",
"348.25 937.25 LINE",
"281.12 869.12 LINE",
"214 937.25 LINE",
"112.87 937.25 LINE",
"217.37 794.25 LINE"
);
}
);
width = 565;
}
);
leftKerningGroup = T;
note = Tcaron;
rightKerningGroup = T;
unicode = 0164;
},
{
glyphname = uni0162;
lastChange = "2019-10-05 13:50:07 +0000";
layers = (
{
hints = (
{
horizontal = 1;
place = "{622.62, 114.38}";
type = Stem;
},
{
place = "{219.5, 125.4}";
type = Stem;
}
);
layerId = "45368931-0D76-4CB6-835F-B3D628A2F0B6";
paths = (
{
closed = 1;
nodes = (
"306.37 -125.38 LINE",
"344.87 0 LINE",
"344.9 622.62 LINE",
"549.5 622.62 LINE",
"549.5 737 LINE",
"15 737 LINE",
"15 622.62 LINE",
"219.5 622.62 LINE",
"219.5 0 LINE",
"241.5 0 LINE",
"221.75 -125.38 LINE"
);
}
);
width = 565;
}
);
leftKerningGroup = T;
note = uni0162;
rightKerningGroup = T;
unicode = 0162;
},
{
glyphname = uni021A;
lastChange = "2019-09-03 16:30:53 +0000";
layers = (
{
hints = (
{
horizontal = 1;
place = "{-239.75, 182.5}";
type = Stem;
},
{
horizontal = 1;
place = "{622.62, 114.38}";
type = Stem;
},
{
place = "{219.5, 125.4}";
type = Stem;
}
);
layerId = "45368931-0D76-4CB6-835F-B3D628A2F0B6";
paths = (
{
closed = 1;
nodes = (
"344.9 0 LINE",
"344.9 622.62 LINE",
"549.5 622.62 LINE",
"549.5 737 LINE",
"15 737 LINE",
"15 622.62 LINE",
"219.5 622.62 LINE",
"219.5 0 LINE"
);
},
{
closed = 1;
nodes = (
"251.25 -239.75 LINE",
"342.62 -57.25 LINE",
"224.87 -57.25 LINE",
"184.25 -239.75 LINE"
);
}
);
width = 565;
}
);
leftKerningGroup = T;
note = uni021A;
rightKerningGroup = T;
unicode = 021A;
},
{
glyphname = U;
lastChange = "2019-09-03 16:30:53 +0000";
layers = (
{
hints = (
{
horizontal = 1;
place = "{0, 110.06}";
type = Stem;
},
{
place = "{65, 125.24}";
type = Stem;
},
{
place = "{522.49, 125.51}";
type = Stem;
}
);
layerId = "45368931-0D76-4CB6-835F-B3D628A2F0B6";
paths = (
{
closed = 1;
nodes = (
"536.87 0 LINE",
"648 111.12 LINE",
"648 737 LINE",
"522.62 737 LINE",
"522.37 153.75 LINE",
"478.37 109.87 LINE",
"234.25 110.25 LINE",
"190.12 154.25 LINE",
"190.37 737 LINE",
"65 737 LINE",
"65 111.12 LINE",
"176.12 0 LINE"
);
}
);
width = 713;
}
);
leftKerningGroup = U;
note = U;
unicode = 0055;
},
{
glyphname = Uacute;
lastChange = "2019-09-03 16:30:53 +0000";
layers = (
{
hints = (
{
horizontal = 1;
place = "{0, 110.06}";
type = Stem;
},
{
horizontal = 1;
place = "{794.25, 154}";
type = Stem;
},
{
place = "{65, 125.24}";
type = Stem;
},
{
place = "{522.49, 125.51}";
type = Stem;
}
);
layerId = "45368931-0D76-4CB6-835F-B3D628A2F0B6";
paths = (
{
closed = 1;
nodes = (
"536.87 0 LINE",
"648 111.12 LINE",
"648 737 LINE",
"522.62 737 LINE",
"522.37 153.75 LINE",
"478.37 109.87 LINE",
"234.25 110.25 LINE",
"190.12 154.25 LINE",
"190.37 737 LINE",
"65 737 LINE",
"65 111.12 LINE",
"176.12 0 LINE"
);
},
{
closed = 1;
nodes = (
"407 794.25 LINE",
"545.62 948.25 LINE",
"407 948.25 LINE",
"305.87 794.25 LINE"
);
}
);
width = 713;
}
);
leftKerningGroup = U;
note = Uacute;
unicode = 00DA;
},
{
glyphname = Ubreve;
lastChange = "2019-09-03 16:30:53 +0000";
layers = (
{
hints = (
{
horizontal = 1;
place = "{0, 110.06}";
type = Stem;
},
{
horizontal = 1;
place = "{794.25, 78}";
type = Stem;
},
{
place = "{65, 125.24}";
type = Stem;
},
{
place = "{522.49, 125.51}";
type = Stem;
},
{
place = "{205.75, 80.37}";
type = Stem;
},
{
place = "{426.87, 80.38}";
type = Stem;
}
);
layerId = "45368931-0D76-4CB6-835F-B3D628A2F0B6";
paths = (
{
closed = 1;
nodes = (
"536.87 0 LINE",
"648 111.12 LINE",
"648 737 LINE",
"522.62 737 LINE",
"522.37 153.75 LINE",
"478.37 109.87 LINE",
"234.25 110.25 LINE",
"190.12 154.25 LINE",
"190.37 737 LINE",
"65 737 LINE",
"65 111.12 LINE",
"176.12 0 LINE"
);
},
{
closed = 1;
nodes = (
"437.87 794.25 LINE",
"507.25 863.5 LINE",
"507.25 937.25 LINE",
"426.87 937.25 LINE",
"426.87 893.25 LINE",
"406 872.25 LINE",
"307 872.25 LINE",
"286.12 893.25 LINE",
"286.12 937.25 LINE",
"205.75 937.25 LINE",
"205.75 863.5 LINE",
"275.12 794.25 LINE"
);
}
);
width = 713;
}
);
leftKerningGroup = U;
note = Ubreve;
unicode = 016C;
},
{
glyphname = Ucircumflex;
lastChange = "2019-09-03 16:30:53 +0000";
layers = (
{
hints = (
{
horizontal = 1;
place = "{0, 110.06}";
type = Stem;
},
{
horizontal = 1;
place = "{794.25, 143}";
type = Stem;
},
{
place = "{65, 125.24}";
type = Stem;
},
{
place = "{522.49, 125.51}";
type = Stem;
}
);
layerId = "45368931-0D76-4CB6-835F-B3D628A2F0B6";
paths = (
{
closed = 1;
nodes = (
"536.87 0 LINE",
"648 111.12 LINE",
"648 737 LINE",
"522.62 737 LINE",
"522.37 153.75 LINE",
"478.37 109.87 LINE",
"234.25 110.25 LINE",
"190.12 154.25 LINE",
"190.37 737 LINE",
"65 737 LINE",
"65 111.12 LINE",
"176.12 0 LINE"
);
},
{
closed = 1;
nodes = (
"289.37 794.25 LINE",
"356.5 862.37 LINE",
"423.62 794.25 LINE",
"524.75 794.25 LINE",
"420.25 937.25 LINE",
"292.75 937.25 LINE",
"188.25 794.25 LINE"
);
}
);
width = 713;
}
);
leftKerningGroup = U;
note = Ucircumflex;
unicode = 00DB;
},
{
glyphname = uni0214;
lastChange = "2019-10-08 20:33:09 +0000";
layers = (
{
hints = (
{
horizontal = 1;
place = "{0, 110.06}";
type = Stem;
},
{
horizontal = 1;
place = "{794.25, 154}";
type = Stem;
},
{
place = "{65, 125.24}";
type = Stem;
},
{
place = "{522.49, 125.51}";
type = Stem;
}
);
layerId = "45368931-0D76-4CB6-835F-B3D628A2F0B6";
paths = (
{
closed = 1;
nodes = (
"536.87 0 LINE",
"648 111.12 LINE",
"648 737 LINE",
"522.62 737 LINE",
"522.37 153.75 LINE",
"478.37 109.87 LINE",
"234.25 110.25 LINE",
"190.12 154.25 LINE",
"190.37 737 LINE",
"65 737 LINE",
"65 111.12 LINE",
"176.12 0 LINE"
);
},
{
closed = 1;
nodes = (
"313 794 LINE",
"212 948 LINE",
"73 948 LINE",
"212 794 LINE"
);
},
{
closed = 1;
nodes = (
"518 794 LINE",
"417 948 LINE",
"278 948 LINE",
"417 794 LINE"
);
}
);
width = 713;
}
);
leftKerningGroup = U;
note = uni0214;
unicode = 0214;
},
{
glyphname = Udieresis;
lastChange = "2019-09-03 16:30:53 +0000";
layers = (
{
hints = (
{
horizontal = 1;
place = "{0, 110.06}";
type = Stem;
},
{
horizontal = 1;
place = "{794.25, 125.5}";
type = Stem;
},
{
place = "{65, 125.24}";
type = Stem;
},
{
place = "{522.49, 125.51}";
type = Stem;
},
{
place = "{163.5, 121}";
type = Stem;
},
{
place = "{428.5, 121}";
type = Stem;
}
);
layerId = "45368931-0D76-4CB6-835F-B3D628A2F0B6";
paths = (
{
closed = 1;
nodes = (
"536.87 0 LINE",
"648 111.12 LINE",
"648 737 LINE",
"522.62 737 LINE",
"522.37 153.75 LINE",
"478.37 109.87 LINE",
"234.25 110.25 LINE",
"190.12 154.25 LINE",
"190.37 737 LINE",
"65 737 LINE",
"65 111.12 LINE",
"176.12 0 LINE"
);
},
{
closed = 1;
nodes = (
"284.5 794.25 LINE",
"284.5 919.75 LINE",
"163.5 919.75 LINE",
"163.5 794.25 LINE"
);
},
{
closed = 1;
nodes = (
"549.5 794.25 LINE",
"549.5 919.75 LINE",
"428.5 919.75 LINE",
"428.5 794.25 LINE"
);
}
);
width = 713;
}
);
leftKerningGroup = U;
note = Udieresis;
unicode = 00DC;
},
{
glyphname = uni1EE4;
lastChange = "2019-09-03 16:30:53 +0000";
layers = (
{
hints = (
{
horizontal = 1;
place = "{-182.63, 125.38}";
type = Stem;
},
{
horizontal = 1;
place = "{0, 110.06}";
type = Stem;
},
{
place = "{65, 125.24}";
type = Stem;
},
{
place = "{296.12, 121}";
type = Stem;
},
{
place = "{522.49, 125.51}";
type = Stem;
}
);
layerId = "45368931-0D76-4CB6-835F-B3D628A2F0B6";
paths = (
{
closed = 1;
nodes = (
"536.87 0 LINE",
"648 111.12 LINE",
"648 737 LINE",
"522.62 737 LINE",
"522.37 153.75 LINE",
"478.37 109.87 LINE",
"234.25 110.25 LINE",
"190.12 154.25 LINE",
"190.37 737 LINE",
"65 737 LINE",
"65 111.12 LINE",
"176.12 0 LINE"
);
},
{
closed = 1;
nodes = (
"417.12 -182.63 LINE",
"417.12 -57.25 LINE",
"296.12 -57.25 LINE",
"296.12 -182.63 LINE"
);
}
);
width = 713;
}
);
leftKerningGroup = U;
note = uni1EE4;
unicode = 1EE4;
},
{
glyphname = Ugrave;
lastChange = "2019-09-03 16:30:53 +0000";
layers = (
{
hints = (
{
horizontal = 1;
place = "{0, 110.06}";
type = Stem;
},
{
horizontal = 1;
place = "{794.25, 154}";
type = Stem;
},
{
place = "{65, 125.24}";
type = Stem;
},
{
place = "{522.49, 125.51}";
type = Stem;
}
);
layerId = "45368931-0D76-4CB6-835F-B3D628A2F0B6";
paths = (
{
closed = 1;
nodes = (
"536.87 0 LINE",
"648 111.12 LINE",
"648 737 LINE",
"522.62 737 LINE",
"522.37 153.75 LINE",
"478.37 109.87 LINE",
"234.25 110.25 LINE",
"190.12 154.25 LINE",
"190.37 737 LINE",
"65 737 LINE",
"65 111.12 LINE",
"176.12 0 LINE"
);
},
{
closed = 1;
nodes = (
"402.5 794.25 LINE",
"301.37 948.25 LINE",
"162.75 948.25 LINE",
"301.37 794.25 LINE"
);
}
);
width = 713;
}
);
leftKerningGroup = U;
note = Ugrave;
unicode = 00D9;
},
{
glyphname = uni1EE6;
lastChange = "2019-09-03 16:30:53 +0000";
layers = (
{
hints = (
{
horizontal = 1;
place = "{0, 110.06}";
type = Stem;
},
{
horizontal = 1;
place = "{794.25, 69.12}";
type = Stem;
},
{
horizontal = 1;
place = "{939, 71}";
type = Stem;
},
{
place = "{65, 125.24}";
type = Stem;
},
{
place = "{316.25, 80.37}";
type = Stem;
},
{
place = "{522.49, 125.51}";
type = Stem;
},
{
place = "{381, 87.37}";
type = Stem;
}
);
layerId = "45368931-0D76-4CB6-835F-B3D628A2F0B6";
paths = (
{
closed = 1;
nodes = (
"536.87 0 LINE",
"648 111.12 LINE",
"648 737 LINE",
"522.62 737 LINE",
"522.37 153.75 LINE",
"478.37 109.87 LINE",
"234.25 110.25 LINE",
"190.12 154.25 LINE",
"190.37 737 LINE",
"65 737 LINE",
"65 111.12 LINE",
"176.12 0 LINE"
);
},
{
closed = 1;
nodes = (
"396.62 794.25 LINE",
"396.62 830.37 LINE",
"468.37 884.75 LINE",
"468.37 960.12 LINE",
"418.62 1010 LINE",
"302.12 1010 LINE",
"251.12 958.75 LINE",
"306.12 903.37 LINE",
"342.25 939 LINE",
"376.87 939 LINE",
"381 934.87 LINE",
"381 915.37 LINE",
"316.25 863.37 LINE",
"316.25 794.25 LINE"
);
}
);
width = 713;
}
);
leftKerningGroup = U;
note = uni1EE6;
unicode = 1EE6;
},
{
glyphname = Uhorn;
lastChange = "2019-09-03 16:30:53 +0000";
layers = (
{
hints = (
{
horizontal = 1;
place = "{0, 110.06}";
type = Stem;
},
{
horizontal = 1;
place = "{606.12, 76.88}";
type = Stem;
},
{
place = "{65, 125.24}";
type = Stem;
},
{
place = "{522.49, 125.51}";
type = Stem;
}
);
layerId = "45368931-0D76-4CB6-835F-B3D628A2F0B6";
paths = (
{
closed = 1;
nodes = (
"536.87 0 LINE",
"648 111.12 LINE",
"648 606.12 LINE",
"794.62 606.12 LINE",
"864.12 801.62 LINE",
"736.87 801.62 LINE",
"720.5 683 LINE",
"648 683 LINE",
"648 737 LINE",
"522.62 737 LINE",
"522.37 153.75 LINE",
"478.37 109.87 LINE",
"234.25 110.25 LINE",
"190.12 154.25 LINE",
"190.37 737 LINE",
"65 737 LINE",
"65 111.12 LINE",
"176.12 0 LINE"
);
}
);
width = 713;
}
);
leftKerningGroup = Uhorn;
note = Uhorn;
rightKerningGroup = Uhorn;
unicode = 01AF;
},
{
glyphname = uni1EE8;
lastChange = "2019-09-03 16:30:53 +0000";
layers = (
{
hints = (
{
horizontal = 1;
place = "{0, 110.06}";
type = Stem;
},
{
horizontal = 1;
place = "{606.12, 76.88}";
type = Stem;
},
{
horizontal = 1;
place = "{794.25, 154}";
type = Stem;
},
{
place = "{65, 125.24}";
type = Stem;
},
{
place = "{522.49, 125.51}";
type = Stem;
}
);
layerId = "45368931-0D76-4CB6-835F-B3D628A2F0B6";
paths = (
{
closed = 1;
nodes = (
"536.87 0 LINE",
"648 111.12 LINE",
"648 606.12 LINE",
"794.62 606.12 LINE",
"864.12 801.62 LINE",
"736.87 801.62 LINE",
"720.5 683 LINE",
"648 683 LINE",
"648 737 LINE",
"522.62 737 LINE",
"522.37 153.75 LINE",
"478.37 109.87 LINE",
"234.25 110.25 LINE",
"190.12 154.25 LINE",
"190.37 737 LINE",
"65 737 LINE",
"65 111.12 LINE",
"176.12 0 LINE"
);
},
{
closed = 1;
nodes = (
"407 794.25 LINE",
"545.62 948.25 LINE",
"407 948.25 LINE",
"305.87 794.25 LINE"
);
}
);
width = 713;
}
);
note = uni1EE8;
rightKerningGroup = Uhorn;
unicode = 1EE8;
},
{
glyphname = uni1EF0;
lastChange = "2019-09-03 16:30:53 +0000";
layers = (
{
hints = (
{
horizontal = 1;
place = "{-182.63, 125.38}";
type = Stem;
},
{
horizontal = 1;
place = "{0, 110.06}";
type = Stem;
},
{
horizontal = 1;
place = "{606.12, 76.88}";
type = Stem;
},
{
place = "{65, 125.24}";
type = Stem;
},
{
place = "{296.12, 121}";
type = Stem;
},
{
place = "{522.49, 125.51}";
type = Stem;
}
);
layerId = "45368931-0D76-4CB6-835F-B3D628A2F0B6";
paths = (
{
closed = 1;
nodes = (
"536.87 0 LINE",
"648 111.12 LINE",
"648 606.12 LINE",
"794.62 606.12 LINE",
"864.12 801.62 LINE",
"736.87 801.62 LINE",
"720.5 683 LINE",
"648 683 LINE",
"648 737 LINE",
"522.62 737 LINE",
"522.37 153.75 LINE",
"478.37 109.87 LINE",
"234.25 110.25 LINE",
"190.12 154.25 LINE",
"190.37 737 LINE",
"65 737 LINE",
"65 111.12 LINE",
"176.12 0 LINE"
);
},
{
closed = 1;
nodes = (
"417.12 -182.63 LINE",
"417.12 -57.25 LINE",
"296.12 -57.25 LINE",
"296.12 -182.63 LINE"
);
}
);
width = 713;
}
);
note = uni1EF0;
rightKerningGroup = Uhorn;
unicode = 1EF0;
},
{
glyphname = uni1EEA;
lastChange = "2019-09-03 16:30:53 +0000";
layers = (
{
hints = (
{
horizontal = 1;
place = "{0, 110.06}";
type = Stem;
},
{
horizontal = 1;
place = "{606.12, 76.88}";
type = Stem;
},
{
horizontal = 1;
place = "{794.25, 154}";
type = Stem;
},
{
place = "{65, 125.24}";
type = Stem;
},
{
place = "{522.49, 125.51}";
type = Stem;
}
);
layerId = "45368931-0D76-4CB6-835F-B3D628A2F0B6";
paths = (
{
closed = 1;
nodes = (
"536.87 0 LINE",
"648 111.12 LINE",
"648 606.12 LINE",
"794.62 606.12 LINE",
"864.12 801.62 LINE",
"736.87 801.62 LINE",
"720.5 683 LINE",
"648 683 LINE",
"648 737 LINE",
"522.62 737 LINE",
"522.37 153.75 LINE",
"478.37 109.87 LINE",
"234.25 110.25 LINE",
"190.12 154.25 LINE",
"190.37 737 LINE",
"65 737 LINE",
"65 111.12 LINE",
"176.12 0 LINE"
);
},
{
closed = 1;
nodes = (
"402.5 794.25 LINE",
"301.37 948.25 LINE",
"162.75 948.25 LINE",
"301.37 794.25 LINE"
);
}
);
width = 713;
}
);
note = uni1EEA;
rightKerningGroup = Uhorn;
unicode = 1EEA;
},
{
glyphname = uni1EEC;
lastChange = "2019-09-03 16:30:53 +0000";
layers = (
{
hints = (
{
horizontal = 1;
place = "{0, 110.06}";
type = Stem;
},
{
horizontal = 1;
place = "{606.12, 76.88}";
type = Stem;
},
{
horizontal = 1;
place = "{794.25, 69.12}";
type = Stem;
},
{
horizontal = 1;
place = "{939, 71}";
type = Stem;
},
{
place = "{65, 125.24}";
type = Stem;
},
{
place = "{381, 87.37}";
type = Stem;
},
{
place = "{522.49, 125.51}";
type = Stem;
},
{
place = "{316.25, 80.37}";
type = Stem;
}
);
layerId = "45368931-0D76-4CB6-835F-B3D628A2F0B6";
paths = (
{
closed = 1;
nodes = (
"536.87 0 LINE",
"648 111.12 LINE",
"648 606.12 LINE",
"794.62 606.12 LINE",
"864.12 801.62 LINE",
"736.87 801.62 LINE",
"720.5 683 LINE",
"648 683 LINE",
"648 737 LINE",
"522.62 737 LINE",
"522.37 153.75 LINE",
"478.37 109.87 LINE",
"234.25 110.25 LINE",
"190.12 154.25 LINE",
"190.37 737 LINE",
"65 737 LINE",
"65 111.12 LINE",
"176.12 0 LINE"
);
},
{
closed = 1;
nodes = (
"396.62 794.25 LINE",
"396.62 830.37 LINE",
"468.37 884.75 LINE",
"468.37 960.12 LINE",
"418.62 1010 LINE",
"302.12 1010 LINE",
"251.12 958.75 LINE",
"306.12 903.37 LINE",
"342.25 939 LINE",
"376.87 939 LINE",
"381 934.87 LINE",
"381 915.37 LINE",
"316.25 863.37 LINE",
"316.25 794.25 LINE"
);
}
);
width = 713;
}
);
note = uni1EEC;
rightKerningGroup = Uhorn;
unicode = 1EEC;
},
{
glyphname = uni1EEE;
lastChange = "2019-09-03 16:30:53 +0000";
layers = (
{
hints = (
{
horizontal = 1;
place = "{0, 110.06}";
type = Stem;
},
{
horizontal = 1;
place = "{606.12, 76.88}";
type = Stem;
},
{
horizontal = 1;
place = "{860.25, 75.87}";
type = Stem;
},
{
place = "{166.75, 69.87}";
type = Stem;
},
{
place = "{522.49, 125.51}";
type = Stem;
},
{
horizontal = 1;
place = "{794.25, 75.87}";
type = Stem;
},
{
place = "{65, 125.24}";
type = Stem;
},
{
place = "{481.87, 69.88}";
type = Stem;
}
);
layerId = "45368931-0D76-4CB6-835F-B3D628A2F0B6";
paths = (
{
closed = 1;
nodes = (
"536.87 0 LINE",
"648 111.12 LINE",
"648 606.12 LINE",
"794.62 606.12 LINE",
"864.12 801.62 LINE",
"736.87 801.62 LINE",
"720.5 683 LINE",
"648 683 LINE",
"648 737 LINE",
"522.62 737 LINE",
"522.37 153.75 LINE",
"478.37 109.87 LINE",
"234.25 110.25 LINE",
"190.12 154.25 LINE",
"190.37 737 LINE",
"65 737 LINE",
"65 111.12 LINE",
"176.12 0 LINE"
);
},
{
closed = 1;
nodes = (
"485.25 794.25 LINE",
"551.25 861.25 LINE",
"552.25 932.75 LINE",
"481.87 932.75 LINE",
"481.87 906.37 LINE",
"446.75 870.12 LINE",
"415.87 870.12 LINE",
"346.62 936.12 LINE",
"233.25 936.12 LINE",
"167.25 869 LINE",
"166.25 797.5 LINE",
"236.62 797.5 LINE",
"236.62 823.87 LINE",
"271.75 860.25 LINE",
"302.62 860.25 LINE",
"371.87 794.25 LINE"
);
}
);
width = 713;
}
);
note = uni1EEE;
rightKerningGroup = Uhorn;
unicode = 1EEE;
},
{
glyphname = Uhungarumlaut;
lastChange = "2019-09-03 16:30:53 +0000";
layers = (
{
hints = (
{
horizontal = 1;
place = "{0, 110.06}";
type = Stem;
},
{
horizontal = 1;
place = "{794.25, 154}";
type = Stem;
},
{
place = "{65, 125.24}";
type = Stem;
},
{
place = "{522.49, 125.51}";
type = Stem;
}
);
layerId = "45368931-0D76-4CB6-835F-B3D628A2F0B6";
paths = (
{
closed = 1;
nodes = (
"536.87 0 LINE",
"648 111.12 LINE",
"648 737 LINE",
"522.62 737 LINE",
"522.37 153.75 LINE",
"478.37 109.87 LINE",
"234.25 110.25 LINE",
"190.12 154.25 LINE",
"190.37 737 LINE",
"65 737 LINE",
"65 111.12 LINE",
"176.12 0 LINE"
);
},
{
closed = 1;
nodes = (
"312.5 794.25 LINE",
"451.12 948.25 LINE",
"323.5 948.25 LINE",
"222.25 794.25 LINE"
);
},
{
closed = 1;
nodes = (
"506.12 794.25 LINE",
"644.75 948.25 LINE",
"517.12 948.25 LINE",
"415.87 794.25 LINE"
);
}
);
width = 713;
}
);
leftKerningGroup = U;
note = Uhungarumlaut;
unicode = 0170;
},
{
glyphname = uni0216;
lastChange = "2019-09-03 16:30:53 +0000";
layers = (
{
hints = (
{
horizontal = 1;
place = "{0, 110.06}";
type = Stem;
},
{
horizontal = 1;
place = "{859.12, 78.13}";
type = Stem;
},
{
place = "{65, 125.24}";
type = Stem;
},
{
place = "{205.75, 80.37}";
type = Stem;
},
{
place = "{426.87, 80.38}";
type = Stem;
},
{
place = "{522.49, 125.51}";
type = Stem;
}
);
layerId = "45368931-0D76-4CB6-835F-B3D628A2F0B6";
paths = (
{
closed = 1;
nodes = (
"536.87 0 LINE",
"648 111.12 LINE",
"648 737 LINE",
"522.62 737 LINE",
"522.37 153.75 LINE",
"478.37 109.87 LINE",
"234.25 110.25 LINE",
"190.12 154.25 LINE",
"190.37 737 LINE",
"65 737 LINE",
"65 111.12 LINE",
"176.12 0 LINE"
);
},
{
closed = 1;
nodes = (
"286.12 794.25 LINE",
"286.12 838.25 LINE",
"307 859.12 LINE",
"406 859.12 LINE",
"426.87 838.25 LINE",
"426.87 794.25 LINE",
"507.25 794.25 LINE",
"507.25 867.87 LINE",
"437.87 937.25 LINE",
"275.12 937.25 LINE",
"205.75 867.87 LINE",
"205.75 794.25 LINE"
);
}
);
width = 713;
}
);
leftKerningGroup = U;
note = uni0216;
unicode = 0216;
},
{
glyphname = Umacron;
lastChange = "2019-09-03 16:30:53 +0000";
layers = (
{
hints = (
{
horizontal = 1;
place = "{0, 110.06}";
type = Stem;
},
{
horizontal = 1;
place = "{794.25, 90.12}";
type = Stem;
},
{
place = "{65, 125.24}";
type = Stem;
},
{
place = "{522.49, 125.51}";
type = Stem;
}
);
layerId = "45368931-0D76-4CB6-835F-B3D628A2F0B6";
paths = (
{
closed = 1;
nodes = (
"536.87 0 LINE",
"648 111.12 LINE",
"648 737 LINE",
"522.62 737 LINE",
"522.37 153.75 LINE",
"478.37 109.87 LINE",
"234.25 110.25 LINE",
"190.12 154.25 LINE",
"190.37 737 LINE",
"65 737 LINE",
"65 111.12 LINE",
"176.12 0 LINE"
);
},
{
closed = 1;
nodes = (
"549.5 794.25 LINE",
"549.5 884.37 LINE",
"163.5 884.37 LINE",
"163.5 794.25 LINE"
);
}
);
width = 713;
}
);
leftKerningGroup = U;
note = Umacron;
unicode = 016A;
},
{
glyphname = Uogonek;
lastChange = "2019-09-03 16:30:53 +0000";
layers = (
{
hints = (
{
horizontal = 1;
place = "{-171.63, 81.38}";
type = Stem;
},
{
horizontal = 1;
place = "{0, 110.06}";
type = Stem;
},
{
place = "{65, 125.24}";
type = Stem;
},
{
place = "{302.5, 75.87}";
type = Stem;
},
{
place = "{522.49, 125.51}";
type = Stem;
}
);
layerId = "45368931-0D76-4CB6-835F-B3D628A2F0B6";
paths = (
{
closed = 1;
nodes = (
"431.25 -171.63 LINE",
"431.25 -90.25 LINE",
"399.37 -90.25 LINE",
"378.37 -69.25 LINE",
"378.37 -38.5 LINE",
"431.25 0 LINE",
"536.87 0 LINE",
"648 111.12 LINE",
"648 737 LINE",
"522.62 737 LINE",
"522.37 153.75 LINE",
"478.37 109.87 LINE",
"234.25 110.25 LINE",
"190.12 154.25 LINE",
"190.37 737 LINE",
"65 737 LINE",
"65 111.12 LINE",
"176.12 0 LINE",
"347.62 0 LINE",
"302.5 -33 LINE",
"302.5 -107.75 LINE",
"366.37 -171.63 LINE"
);
}
);
width = 713;
}
);
leftKerningGroup = U;
note = Uogonek;
unicode = 0172;
},
{
glyphname = Uring;
lastChange = "2019-09-03 16:30:53 +0000";
layers = (
{
hints = (
{
horizontal = 1;
place = "{0, 110.06}";
type = Stem;
},
{
horizontal = 1;
place = "{794.25, 64.87}";
type = Stem;
},
{
horizontal = 1;
place = "{940.5, 64.87}";
type = Stem;
},
{
place = "{65, 125.24}";
type = Stem;
},
{
place = "{234.37, 81.38}";
type = Stem;
},
{
place = "{397.25, 81.37}";
type = Stem;
},
{
place = "{522.49, 125.51}";
type = Stem;
}
);
layerId = "45368931-0D76-4CB6-835F-B3D628A2F0B6";
paths = (
{
closed = 1;
nodes = (
"536.87 0 LINE",
"648 111.12 LINE",
"648 737 LINE",
"522.62 737 LINE",
"522.37 153.75 LINE",
"478.37 109.87 LINE",
"234.25 110.25 LINE",
"190.12 154.25 LINE",
"190.37 737 LINE",
"65 737 LINE",
"65 111.12 LINE",
"176.12 0 LINE"
);
},
{
closed = 1;
nodes = (
"411.5 794.25 LINE",
"478.62 861.25 LINE",
"478.62 938.25 LINE",
"411.5 1005.37 LINE",
"301.5 1005.37 LINE",
"234.37 938.25 LINE",
"234.37 861.25 LINE",
"301.5 794.25 LINE"
);
},
{
closed = 1;
nodes = (
"315.75 885.5 LINE",
"315.75 914.12 LINE",
"342.25 940.5 LINE",
"370.75 940.5 LINE",
"397.25 914.12 LINE",
"397.25 885.5 LINE",
"370.75 859.12 LINE",
"342.25 859.12 LINE"
);
}
);
width = 713;
}
);
leftKerningGroup = U;
note = Uring;
unicode = 016E;
},
{
glyphname = Utilde;
lastChange = "2019-09-03 16:30:53 +0000";
layers = (
{
hints = (
{
horizontal = 1;
place = "{0, 110.06}";
type = Stem;
},
{
horizontal = 1;
place = "{860.25, 75.87}";
type = Stem;
},
{
place = "{65, 125.24}";
type = Stem;
},
{
place = "{522.49, 125.51}";
type = Stem;
},
{
place = "{166.75, 69.87}";
type = Stem;
},
{
horizontal = 1;
place = "{794.25, 75.87}";
type = Stem;
},
{
place = "{481.87, 69.88}";
type = Stem;
}
);
layerId = "45368931-0D76-4CB6-835F-B3D628A2F0B6";
paths = (
{
closed = 1;
nodes = (
"536.87 0 LINE",
"648 111.12 LINE",
"648 737 LINE",
"522.62 737 LINE",
"522.37 153.75 LINE",
"478.37 109.87 LINE",
"234.25 110.25 LINE",
"190.12 154.25 LINE",
"190.37 737 LINE",
"65 737 LINE",
"65 111.12 LINE",
"176.12 0 LINE"
);
},
{
closed = 1;
nodes = (
"485.25 794.25 LINE",
"551.25 861.25 LINE",
"552.25 932.75 LINE",
"481.87 932.75 LINE",
"481.87 906.37 LINE",
"446.75 870.12 LINE",
"415.87 870.12 LINE",
"346.62 936.12 LINE",
"233.25 936.12 LINE",
"167.25 869 LINE",
"166.25 797.5 LINE",
"236.62 797.5 LINE",
"236.62 823.87 LINE",
"271.75 860.25 LINE",
"302.62 860.25 LINE",
"371.87 794.25 LINE"
);
}
);
width = 713;
}
);
leftKerningGroup = U;
note = Utilde;
unicode = 0168;
},
{
glyphname = V;
lastChange = "2019-09-03 16:30:53 +0000";
layers = (
{
hints = (
{
horizontal = 1;
place = "{0, 118.75}";
type = Stem;
},
{
place = "{10, 666.5}";
type = Stem;
}
);
layerId = "45368931-0D76-4CB6-835F-B3D628A2F0B6";
paths = (
{
closed = 1;
nodes = (
"436.75 0 LINE",
"676.5 737 LINE",
"543.5 737 LINE",
"355.37 118.75 LINE",
"331.12 118.75 LINE",
"143 737 LINE",
"10 737 LINE",
"249.75 0 LINE"
);
}
);
width = 687;
}
);
leftKerningGroup = V;
note = V;
rightKerningGroup = V;
unicode = 0056;
},
{
glyphname = W;
lastChange = "2019-09-03 16:30:53 +0000";
layers = (
{
hints = (
{
horizontal = 1;
place = "{0, 118.75}";
type = Stem;
},
{
place = "{10, 897.5}";
type = Stem;
}
);
layerId = "45368931-0D76-4CB6-835F-B3D628A2F0B6";
paths = (
{
closed = 1;
nodes = (
"368.5 0 LINE",
"458.75 465.25 LINE",
"549 0 LINE",
"738.12 0 LINE",
"907.5 737 LINE",
"774.5 737 LINE",
"656.75 118.75 LINE",
"632.5 118.75 LINE",
"514.87 737 LINE",
"402.62 737 LINE",
"285 118.75 LINE",
"260.75 118.75 LINE",
"143 737 LINE",
"10 737 LINE",
"179.37 0 LINE"
);
}
);
width = 918;
}
);
leftKerningGroup = W;
note = W;
rightKerningGroup = W;
unicode = 0057;
},
{
glyphname = Wacute;
lastChange = "2019-09-03 16:30:53 +0000";
layers = (
{
hints = (
{
horizontal = 1;
place = "{0, 118.75}";
type = Stem;
},
{
horizontal = 1;
place = "{794.25, 154}";
type = Stem;
},
{
place = "{10, 897.5}";
type = Stem;
}
);
layerId = "45368931-0D76-4CB6-835F-B3D628A2F0B6";
paths = (
{
closed = 1;
nodes = (
"368.5 0 LINE",
"458.75 465.25 LINE",
"549 0 LINE",
"738.12 0 LINE",
"907.5 737 LINE",
"774.5 737 LINE",
"656.75 118.75 LINE",
"632.5 118.75 LINE",
"514.87 737 LINE",
"402.62 737 LINE",
"285 118.75 LINE",
"260.75 118.75 LINE",
"143 737 LINE",
"10 737 LINE",
"179.37 0 LINE"
);
},
{
closed = 1;
nodes = (
"509.25 794.25 LINE",
"647.87 948.25 LINE",
"509.25 948.25 LINE",
"408.12 794.25 LINE"
);
}
);
width = 918;
}
);
leftKerningGroup = W;
note = Wacute;
rightKerningGroup = W;
unicode = 1E82;
},
{
glyphname = Wcircumflex;
lastChange = "2019-09-03 16:30:53 +0000";
layers = (
{
hints = (
{
horizontal = 1;
place = "{0, 118.75}";
type = Stem;
},
{
horizontal = 1;
place = "{794.25, 143}";
type = Stem;
},
{
place = "{10, 897.5}";
type = Stem;
}
);
layerId = "45368931-0D76-4CB6-835F-B3D628A2F0B6";
paths = (
{
closed = 1;
nodes = (
"368.5 0 LINE",
"458.75 465.25 LINE",
"549 0 LINE",
"738.12 0 LINE",
"907.5 737 LINE",
"774.5 737 LINE",
"656.75 118.75 LINE",
"632.5 118.75 LINE",
"514.87 737 LINE",
"402.62 737 LINE",
"285 118.75 LINE",
"260.75 118.75 LINE",
"143 737 LINE",
"10 737 LINE",
"179.37 0 LINE"
);
},
{
closed = 1;
nodes = (
"391.62 794.25 LINE",
"458.75 862.37 LINE",
"525.87 794.25 LINE",
"627 794.25 LINE",
"522.5 937.25 LINE",
"395 937.25 LINE",
"290.5 794.25 LINE"
);
}
);
width = 918;
}
);
leftKerningGroup = W;
note = Wcircumflex;
rightKerningGroup = W;
unicode = 0174;
},
{
glyphname = Wdieresis;
lastChange = "2019-09-03 16:30:53 +0000";
layers = (
{
hints = (
{
horizontal = 1;
place = "{0, 118.75}";
type = Stem;
},
{
horizontal = 1;
place = "{794.25, 125.5}";
type = Stem;
},
{
place = "{265.75, 121}";
type = Stem;
},
{
place = "{530.75, 121}";
type = Stem;
}
);
layerId = "45368931-0D76-4CB6-835F-B3D628A2F0B6";
paths = (
{
closed = 1;
nodes = (
"368.5 0 LINE",
"458.75 465.25 LINE",
"549 0 LINE",
"738.12 0 LINE",
"907.5 737 LINE",
"774.5 737 LINE",
"656.75 118.75 LINE",
"632.5 118.75 LINE",
"514.87 737 LINE",
"402.62 737 LINE",
"285 118.75 LINE",
"260.75 118.75 LINE",
"143 737 LINE",
"10 737 LINE",
"179.37 0 LINE"
);
},
{
closed = 1;
nodes = (
"386.75 794.25 LINE",
"386.75 919.75 LINE",
"265.75 919.75 LINE",
"265.75 794.25 LINE"
);
},
{
closed = 1;
nodes = (
"651.75 794.25 LINE",
"651.75 919.75 LINE",
"530.75 919.75 LINE",
"530.75 794.25 LINE"
);
}
);
width = 918;
}
);
leftKerningGroup = W;
note = Wdieresis;
rightKerningGroup = W;
unicode = 1E84;
},
{
glyphname = Wgrave;
lastChange = "2019-09-03 16:30:53 +0000";
layers = (
{
hints = (
{
horizontal = 1;
place = "{0, 118.75}";
type = Stem;
},
{
horizontal = 1;
place = "{794.25, 154}";
type = Stem;
},
{
place = "{10, 897.5}";
type = Stem;
}
);
layerId = "45368931-0D76-4CB6-835F-B3D628A2F0B6";
paths = (
{
closed = 1;
nodes = (
"368.5 0 LINE",
"458.75 465.25 LINE",
"549 0 LINE",
"738.12 0 LINE",
"907.5 737 LINE",
"774.5 737 LINE",
"656.75 118.75 LINE",
"632.5 118.75 LINE",
"514.87 737 LINE",
"402.62 737 LINE",
"285 118.75 LINE",
"260.75 118.75 LINE",
"143 737 LINE",
"10 737 LINE",
"179.37 0 LINE"
);
},
{
closed = 1;
nodes = (
"504.75 794.25 LINE",
"403.62 948.25 LINE",
"265 948.25 LINE",
"403.62 794.25 LINE"
);
}
);
width = 918;
}
);
leftKerningGroup = W;
note = Wgrave;
rightKerningGroup = W;
unicode = 1E80;
},
{
glyphname = X;
lastChange = "2019-09-03 16:30:53 +0000";
layers = (
{
hints = (
{
horizontal = 1;
place = "{0, 737}";
type = Stem;
},
{
place = "{10, 644.5}";
type = Stem;
},
{
horizontal = 1;
place = "{306.87, 144.13}";
type = Stem;
}
);
layerId = "45368931-0D76-4CB6-835F-B3D628A2F0B6";
paths = (
{
closed = 1;
nodes = (
"154 0 LINE",
"320.12 306.87 LINE",
"344.37 306.87 LINE",
"510.5 0 LINE",
"654.5 0 LINE",
"440 381.75 LINE",
"652.37 737 LINE",
"509.37 737 LINE",
"344.37 451 LINE",
"320.12 451 LINE",
"155.12 737 LINE",
"12.12 737 LINE",
"224.5 381.75 LINE",
"10 0 LINE"
);
}
);
width = 665;
}
);
leftKerningGroup = X;
note = X;
rightKerningGroup = X;
unicode = 0058;
},
{
glyphname = Y;
lastChange = "2019-09-03 16:30:53 +0000";
layers = (
{
hints = (
{
horizontal = 1;
place = "{0, 737}";
type = Stem;
},
{
place = "{267.37, 125.5}";
type = Stem;
}
);
layerId = "45368931-0D76-4CB6-835F-B3D628A2F0B6";
paths = (
{
closed = 1;
nodes = (
"392.87 0 LINE",
"392.87 270.62 LINE",
"650.25 737 LINE",
"507.25 737 LINE",
"342.25 414.75 LINE",
"318 414.75 LINE",
"153 737 LINE",
"10 737 LINE",
"267.37 270.62 LINE",
"267.37 0 LINE"
);
}
);
width = 660;
}
);
leftKerningGroup = Y;
note = Y;
rightKerningGroup = Y;
unicode = 0059;
},
{
glyphname = Yacute;
lastChange = "2019-09-03 16:30:53 +0000";
layers = (
{
hints = (
{
horizontal = 1;
place = "{794.25, 154}";
type = Stem;
},
{
place = "{267.37, 125.5}";
type = Stem;
}
);
layerId = "45368931-0D76-4CB6-835F-B3D628A2F0B6";
paths = (
{
closed = 1;
nodes = (
"392.87 0 LINE",
"392.87 270.62 LINE",
"650.25 737 LINE",
"507.25 737 LINE",
"342.25 414.75 LINE",
"318 414.75 LINE",
"153 737 LINE",
"10 737 LINE",
"267.37 270.62 LINE",
"267.37 0 LINE"
);
},
{
closed = 1;
nodes = (
"380.62 794.25 LINE",
"519.25 948.25 LINE",
"380.62 948.25 LINE",
"279.5 794.25 LINE"
);
}
);
width = 660;
}
);
leftKerningGroup = Y;
note = Yacute;
rightKerningGroup = Y;
unicode = 00DD;
},
{
glyphname = Ycircumflex;
lastChange = "2019-09-03 16:30:53 +0000";
layers = (
{
hints = (
{
horizontal = 1;
place = "{794.25, 143}";
type = Stem;
},
{
place = "{267.37, 125.5}";
type = Stem;
}
);
layerId = "45368931-0D76-4CB6-835F-B3D628A2F0B6";
paths = (
{
closed = 1;
nodes = (
"392.87 0 LINE",
"392.87 270.62 LINE",
"650.25 737 LINE",
"507.25 737 LINE",
"342.25 414.75 LINE",
"318 414.75 LINE",
"153 737 LINE",
"10 737 LINE",
"267.37 270.62 LINE",
"267.37 0 LINE"
);
},
{
closed = 1;
nodes = (
"263 794.25 LINE",
"330.12 862.37 LINE",
"397.25 794.25 LINE",
"498.37 794.25 LINE",
"393.87 937.25 LINE",
"266.37 937.25 LINE",
"161.87 794.25 LINE"
);
}
);
width = 660;
}
);
leftKerningGroup = Y;
note = Ycircumflex;
rightKerningGroup = Y;
unicode = 0176;
},
{
glyphname = Ydieresis;
lastChange = "2019-09-03 16:30:53 +0000";
layers = (
{
hints = (
{
horizontal = 1;
place = "{794.25, 125.5}";
type = Stem;
},
{
place = "{137.12, 121}";
type = Stem;
},
{
place = "{267.37, 125.5}";
type = Stem;
},
{
place = "{402.12, 121}";
type = Stem;
}
);
layerId = "45368931-0D76-4CB6-835F-B3D628A2F0B6";
paths = (
{
closed = 1;
nodes = (
"392.87 0 LINE",
"392.87 270.62 LINE",
"650.25 737 LINE",
"507.25 737 LINE",
"342.25 414.75 LINE",
"318 414.75 LINE",
"153 737 LINE",
"10 737 LINE",
"267.37 270.62 LINE",
"267.37 0 LINE"
);
},
{
closed = 1;
nodes = (
"258.12 794.25 LINE",
"258.12 919.75 LINE",
"137.12 919.75 LINE",
"137.12 794.25 LINE"
);
},
{
closed = 1;
nodes = (
"523.12 794.25 LINE",
"523.12 919.75 LINE",
"402.12 919.75 LINE",
"402.12 794.25 LINE"
);
}
);
width = 660;
}
);
leftKerningGroup = Y;
note = Ydieresis;
rightKerningGroup = Y;
unicode = 0178;
},
{
glyphname = uni1EF4;
lastChange = "2019-09-03 16:30:53 +0000";
layers = (
{
hints = (
{
horizontal = 1;
place = "{-182.63, 125.38}";
type = Stem;
},
{
place = "{267.37, 125.5}";
type = Stem;
},
{
place = "{269.62, 121}";
type = Stem;
}
);
layerId = "45368931-0D76-4CB6-835F-B3D628A2F0B6";
paths = (
{
closed = 1;
nodes = (
"392.87 0 LINE",
"392.87 270.62 LINE",
"650.25 737 LINE",
"507.25 737 LINE",
"342.25 414.75 LINE",
"318 414.75 LINE",
"153 737 LINE",
"10 737 LINE",
"267.37 270.62 LINE",
"267.37 0 LINE"
);
},
{
closed = 1;
nodes = (
"390.62 -182.63 LINE",
"390.62 -57.25 LINE",
"269.62 -57.25 LINE",
"269.62 -182.63 LINE"
);
}
);
width = 660;
}
);
leftKerningGroup = Y;
note = uni1EF4;
rightKerningGroup = Y;
unicode = 1EF4;
},
{
glyphname = Ygrave;
lastChange = "2019-09-03 16:30:53 +0000";
layers = (
{
hints = (
{
horizontal = 1;
place = "{794.25, 154}";
type = Stem;
},
{
place = "{267.37, 125.5}";
type = Stem;
}
);
layerId = "45368931-0D76-4CB6-835F-B3D628A2F0B6";
paths = (
{
closed = 1;
nodes = (
"392.87 0 LINE",
"392.87 270.62 LINE",
"650.25 737 LINE",
"507.25 737 LINE",
"342.25 414.75 LINE",
"318 414.75 LINE",
"153 737 LINE",
"10 737 LINE",
"267.37 270.62 LINE",
"267.37 0 LINE"
);
},
{
closed = 1;
nodes = (
"376.12 794.25 LINE",
"275 948.25 LINE",
"136.37 948.25 LINE",
"275 794.25 LINE"
);
}
);
width = 660;
}
);
leftKerningGroup = Y;
note = Ygrave;
rightKerningGroup = Y;
unicode = 1EF2;
},
{
glyphname = uni1EF6;
lastChange = "2019-09-03 16:30:53 +0000";
layers = (
{
hints = (
{
horizontal = 1;
place = "{794.25, 69.12}";
type = Stem;
},
{
horizontal = 1;
place = "{939, 71}";
type = Stem;
},
{
place = "{289.87, 80.38}";
type = Stem;
},
{
place = "{354.62, 87.38}";
type = Stem;
},
{
place = "{267.37, 125.5}";
type = Stem;
}
);
layerId = "45368931-0D76-4CB6-835F-B3D628A2F0B6";
paths = (
{
closed = 1;
nodes = (
"392.87 0 LINE",
"392.87 270.62 LINE",
"650.25 737 LINE",
"507.25 737 LINE",
"342.25 414.75 LINE",
"318 414.75 LINE",
"153 737 LINE",
"10 737 LINE",
"267.37 270.62 LINE",
"267.37 0 LINE"
);
},
{
closed = 1;
nodes = (
"370.25 794.25 LINE",
"370.25 830.37 LINE",
"442 884.75 LINE",
"442 960.12 LINE",
"392.25 1010 LINE",
"275.75 1010 LINE",
"224.75 958.75 LINE",
"279.75 903.37 LINE",
"315.87 939 LINE",
"350.5 939 LINE",
"354.62 934.87 LINE",
"354.62 915.37 LINE",
"289.87 863.37 LINE",
"289.87 794.25 LINE"
);
}
);
width = 660;
}
);
leftKerningGroup = Y;
note = uni1EF6;
rightKerningGroup = Y;
unicode = 1EF6;
},
{
glyphname = uni0232;
lastChange = "2019-09-03 16:30:53 +0000";
layers = (
{
hints = (
{
horizontal = 1;
place = "{794.25, 90.12}";
type = Stem;
},
{
place = "{267.37, 125.5}";
type = Stem;
}
);
layerId = "45368931-0D76-4CB6-835F-B3D628A2F0B6";
paths = (
{
closed = 1;
nodes = (
"392.87 0 LINE",
"392.87 270.62 LINE",
"650.25 737 LINE",
"507.25 737 LINE",
"342.25 414.75 LINE",
"318 414.75 LINE",
"153 737 LINE",
"10 737 LINE",
"267.37 270.62 LINE",
"267.37 0 LINE"
);
},
{
closed = 1;
nodes = (
"523.12 794.25 LINE",
"523.12 884.37 LINE",
"137.12 884.37 LINE",
"137.12 794.25 LINE"
);
}
);
width = 660;
}
);
leftKerningGroup = Y;
note = uni0232;
rightKerningGroup = Y;
unicode = 0232;
},
{
glyphname = uni1EF8;
lastChange = "2019-09-03 16:30:53 +0000";
layers = (
{
hints = (
{
horizontal = 1;
place = "{860.25, 75.87}";
type = Stem;
},
{
place = "{140.37, 69.88}";
type = Stem;
},
{
place = "{267.37, 125.5}";
type = Stem;
},
{
place = "{455.5, 69.87}";
type = Stem;
},
{
horizontal = 1;
place = "{794.25, 75.87}";
type = Stem;
}
);
layerId = "45368931-0D76-4CB6-835F-B3D628A2F0B6";
paths = (
{
closed = 1;
nodes = (
"392.87 0 LINE",
"392.87 270.62 LINE",
"650.25 737 LINE",
"507.25 737 LINE",
"342.25 414.75 LINE",
"318 414.75 LINE",
"153 737 LINE",
"10 737 LINE",
"267.37 270.62 LINE",
"267.37 0 LINE"
);
},
{
closed = 1;
nodes = (
"458.87 794.25 LINE",
"524.87 861.25 LINE",
"525.87 932.75 LINE",
"455.5 932.75 LINE",
"455.5 906.37 LINE",
"420.37 870.12 LINE",
"389.5 870.12 LINE",
"320.25 936.12 LINE",
"206.87 936.12 LINE",
"140.87 869 LINE",
"139.87 797.5 LINE",
"210.25 797.5 LINE",
"210.25 823.87 LINE",
"245.37 860.25 LINE",
"276.25 860.25 LINE",
"345.5 794.25 LINE"
);
}
);
width = 660;
}
);
leftKerningGroup = Y;
note = uni1EF8;
rightKerningGroup = Y;
unicode = 1EF8;
},
